%TF.GenerationSoftware,KiCad,Pcbnew,10.0.0*%
%TF.CreationDate,2026-04-10T13:49:01+02:00*%
%TF.ProjectId,FG_Controller,46475f43-6f6e-4747-926f-6c6c65722e6b,rev?*%
%TF.SameCoordinates,Original*%
%TF.FileFunction,Legend,Bot*%
%TF.FilePolarity,Positive*%
%FSLAX46Y46*%
G04 Gerber Fmt 4.6, Leading zero omitted, Abs format (unit mm)*
G04 Created by KiCad (PCBNEW 10.0.0) date 2026-04-10 13:49:01*
%MOMM*%
%LPD*%
G01*
G04 APERTURE LIST*
G04 Aperture macros list*
%AMRoundRect*
0 Rectangle with rounded corners*
0 $1 Rounding radius*
0 $2 $3 $4 $5 $6 $7 $8 $9 X,Y pos of 4 corners*
0 Add a 4 corners polygon primitive as box body*
4,1,4,$2,$3,$4,$5,$6,$7,$8,$9,$2,$3,0*
0 Add four circle primitives for the rounded corners*
1,1,$1+$1,$2,$3*
1,1,$1+$1,$4,$5*
1,1,$1+$1,$6,$7*
1,1,$1+$1,$8,$9*
0 Add four rect primitives between the rounded corners*
20,1,$1+$1,$2,$3,$4,$5,0*
20,1,$1+$1,$4,$5,$6,$7,0*
20,1,$1+$1,$6,$7,$8,$9,0*
20,1,$1+$1,$8,$9,$2,$3,0*%
G04 Aperture macros list end*
%ADD10C,0.150000*%
%ADD11C,0.120000*%
%ADD12C,0.127000*%
%ADD13C,0.200000*%
%ADD14R,1.600000X1.400000*%
%ADD15C,1.750000*%
%ADD16C,3.987800*%
%ADD17C,3.300000*%
%ADD18C,3.600000*%
%ADD19C,0.700000*%
%ADD20O,0.900000X2.400000*%
%ADD21O,0.900000X1.700000*%
%ADD22C,3.000000*%
%ADD23RoundRect,0.102000X0.754000X0.754000X-0.754000X0.754000X-0.754000X-0.754000X0.754000X-0.754000X0*%
%ADD24C,1.712000*%
G04 APERTURE END LIST*
D10*
X26333332Y-53707200D02*
X26190475Y-53754819D01*
X26190475Y-53754819D02*
X25952380Y-53754819D01*
X25952380Y-53754819D02*
X25857142Y-53707200D01*
X25857142Y-53707200D02*
X25809523Y-53659580D01*
X25809523Y-53659580D02*
X25761904Y-53564342D01*
X25761904Y-53564342D02*
X25761904Y-53469104D01*
X25761904Y-53469104D02*
X25809523Y-53373866D01*
X25809523Y-53373866D02*
X25857142Y-53326247D01*
X25857142Y-53326247D02*
X25952380Y-53278628D01*
X25952380Y-53278628D02*
X26142856Y-53231009D01*
X26142856Y-53231009D02*
X26238094Y-53183390D01*
X26238094Y-53183390D02*
X26285713Y-53135771D01*
X26285713Y-53135771D02*
X26333332Y-53040533D01*
X26333332Y-53040533D02*
X26333332Y-52945295D01*
X26333332Y-52945295D02*
X26285713Y-52850057D01*
X26285713Y-52850057D02*
X26238094Y-52802438D01*
X26238094Y-52802438D02*
X26142856Y-52754819D01*
X26142856Y-52754819D02*
X25904761Y-52754819D01*
X25904761Y-52754819D02*
X25761904Y-52802438D01*
X25428570Y-52754819D02*
X25190475Y-53754819D01*
X25190475Y-53754819D02*
X24999999Y-53040533D01*
X24999999Y-53040533D02*
X24809523Y-53754819D01*
X24809523Y-53754819D02*
X24571428Y-52754819D01*
X24238094Y-52850057D02*
X24190475Y-52802438D01*
X24190475Y-52802438D02*
X24095237Y-52754819D01*
X24095237Y-52754819D02*
X23857142Y-52754819D01*
X23857142Y-52754819D02*
X23761904Y-52802438D01*
X23761904Y-52802438D02*
X23714285Y-52850057D01*
X23714285Y-52850057D02*
X23666666Y-52945295D01*
X23666666Y-52945295D02*
X23666666Y-53040533D01*
X23666666Y-53040533D02*
X23714285Y-53183390D01*
X23714285Y-53183390D02*
X24285713Y-53754819D01*
X24285713Y-53754819D02*
X23666666Y-53754819D01*
X26333332Y-35087200D02*
X26190475Y-35134819D01*
X26190475Y-35134819D02*
X25952380Y-35134819D01*
X25952380Y-35134819D02*
X25857142Y-35087200D01*
X25857142Y-35087200D02*
X25809523Y-35039580D01*
X25809523Y-35039580D02*
X25761904Y-34944342D01*
X25761904Y-34944342D02*
X25761904Y-34849104D01*
X25761904Y-34849104D02*
X25809523Y-34753866D01*
X25809523Y-34753866D02*
X25857142Y-34706247D01*
X25857142Y-34706247D02*
X25952380Y-34658628D01*
X25952380Y-34658628D02*
X26142856Y-34611009D01*
X26142856Y-34611009D02*
X26238094Y-34563390D01*
X26238094Y-34563390D02*
X26285713Y-34515771D01*
X26285713Y-34515771D02*
X26333332Y-34420533D01*
X26333332Y-34420533D02*
X26333332Y-34325295D01*
X26333332Y-34325295D02*
X26285713Y-34230057D01*
X26285713Y-34230057D02*
X26238094Y-34182438D01*
X26238094Y-34182438D02*
X26142856Y-34134819D01*
X26142856Y-34134819D02*
X25904761Y-34134819D01*
X25904761Y-34134819D02*
X25761904Y-34182438D01*
X25428570Y-34134819D02*
X25190475Y-35134819D01*
X25190475Y-35134819D02*
X24999999Y-34420533D01*
X24999999Y-34420533D02*
X24809523Y-35134819D01*
X24809523Y-35134819D02*
X24571428Y-34134819D01*
X23666666Y-35134819D02*
X24238094Y-35134819D01*
X23952380Y-35134819D02*
X23952380Y-34134819D01*
X23952380Y-34134819D02*
X24047618Y-34277676D01*
X24047618Y-34277676D02*
X24142856Y-34372914D01*
X24142856Y-34372914D02*
X24238094Y-34420533D01*
X269595238Y-18707200D02*
X269452381Y-18754819D01*
X269452381Y-18754819D02*
X269214286Y-18754819D01*
X269214286Y-18754819D02*
X269119048Y-18707200D01*
X269119048Y-18707200D02*
X269071429Y-18659580D01*
X269071429Y-18659580D02*
X269023810Y-18564342D01*
X269023810Y-18564342D02*
X269023810Y-18469104D01*
X269023810Y-18469104D02*
X269071429Y-18373866D01*
X269071429Y-18373866D02*
X269119048Y-18326247D01*
X269119048Y-18326247D02*
X269214286Y-18278628D01*
X269214286Y-18278628D02*
X269404762Y-18231009D01*
X269404762Y-18231009D02*
X269500000Y-18183390D01*
X269500000Y-18183390D02*
X269547619Y-18135771D01*
X269547619Y-18135771D02*
X269595238Y-18040533D01*
X269595238Y-18040533D02*
X269595238Y-17945295D01*
X269595238Y-17945295D02*
X269547619Y-17850057D01*
X269547619Y-17850057D02*
X269500000Y-17802438D01*
X269500000Y-17802438D02*
X269404762Y-17754819D01*
X269404762Y-17754819D02*
X269166667Y-17754819D01*
X269166667Y-17754819D02*
X269023810Y-17802438D01*
X268738095Y-18088152D02*
X268357143Y-18088152D01*
X268595238Y-17754819D02*
X268595238Y-18611961D01*
X268595238Y-18611961D02*
X268547619Y-18707200D01*
X268547619Y-18707200D02*
X268452381Y-18754819D01*
X268452381Y-18754819D02*
X268357143Y-18754819D01*
X267595238Y-18754819D02*
X267595238Y-18231009D01*
X267595238Y-18231009D02*
X267642857Y-18135771D01*
X267642857Y-18135771D02*
X267738095Y-18088152D01*
X267738095Y-18088152D02*
X267928571Y-18088152D01*
X267928571Y-18088152D02*
X268023809Y-18135771D01*
X267595238Y-18707200D02*
X267690476Y-18754819D01*
X267690476Y-18754819D02*
X267928571Y-18754819D01*
X267928571Y-18754819D02*
X268023809Y-18707200D01*
X268023809Y-18707200D02*
X268071428Y-18611961D01*
X268071428Y-18611961D02*
X268071428Y-18516723D01*
X268071428Y-18516723D02*
X268023809Y-18421485D01*
X268023809Y-18421485D02*
X267928571Y-18373866D01*
X267928571Y-18373866D02*
X267690476Y-18373866D01*
X267690476Y-18373866D02*
X267595238Y-18326247D01*
X267119047Y-18754819D02*
X267119047Y-18088152D01*
X267119047Y-18278628D02*
X267071428Y-18183390D01*
X267071428Y-18183390D02*
X267023809Y-18135771D01*
X267023809Y-18135771D02*
X266928571Y-18088152D01*
X266928571Y-18088152D02*
X266833333Y-18088152D01*
X266642856Y-18088152D02*
X266261904Y-18088152D01*
X266499999Y-17754819D02*
X266499999Y-18611961D01*
X266499999Y-18611961D02*
X266452380Y-18707200D01*
X266452380Y-18707200D02*
X266357142Y-18754819D01*
X266357142Y-18754819D02*
X266261904Y-18754819D01*
X265404761Y-18754819D02*
X265976189Y-18754819D01*
X265690475Y-18754819D02*
X265690475Y-17754819D01*
X265690475Y-17754819D02*
X265785713Y-17897676D01*
X265785713Y-17897676D02*
X265880951Y-17992914D01*
X265880951Y-17992914D02*
X265976189Y-18040533D01*
X251095238Y-18707200D02*
X250952381Y-18754819D01*
X250952381Y-18754819D02*
X250714286Y-18754819D01*
X250714286Y-18754819D02*
X250619048Y-18707200D01*
X250619048Y-18707200D02*
X250571429Y-18659580D01*
X250571429Y-18659580D02*
X250523810Y-18564342D01*
X250523810Y-18564342D02*
X250523810Y-18469104D01*
X250523810Y-18469104D02*
X250571429Y-18373866D01*
X250571429Y-18373866D02*
X250619048Y-18326247D01*
X250619048Y-18326247D02*
X250714286Y-18278628D01*
X250714286Y-18278628D02*
X250904762Y-18231009D01*
X250904762Y-18231009D02*
X251000000Y-18183390D01*
X251000000Y-18183390D02*
X251047619Y-18135771D01*
X251047619Y-18135771D02*
X251095238Y-18040533D01*
X251095238Y-18040533D02*
X251095238Y-17945295D01*
X251095238Y-17945295D02*
X251047619Y-17850057D01*
X251047619Y-17850057D02*
X251000000Y-17802438D01*
X251000000Y-17802438D02*
X250904762Y-17754819D01*
X250904762Y-17754819D02*
X250666667Y-17754819D01*
X250666667Y-17754819D02*
X250523810Y-17802438D01*
X249714286Y-18707200D02*
X249809524Y-18754819D01*
X249809524Y-18754819D02*
X250000000Y-18754819D01*
X250000000Y-18754819D02*
X250095238Y-18707200D01*
X250095238Y-18707200D02*
X250142857Y-18611961D01*
X250142857Y-18611961D02*
X250142857Y-18231009D01*
X250142857Y-18231009D02*
X250095238Y-18135771D01*
X250095238Y-18135771D02*
X250000000Y-18088152D01*
X250000000Y-18088152D02*
X249809524Y-18088152D01*
X249809524Y-18088152D02*
X249714286Y-18135771D01*
X249714286Y-18135771D02*
X249666667Y-18231009D01*
X249666667Y-18231009D02*
X249666667Y-18326247D01*
X249666667Y-18326247D02*
X250142857Y-18421485D01*
X249095238Y-18754819D02*
X249190476Y-18707200D01*
X249190476Y-18707200D02*
X249238095Y-18611961D01*
X249238095Y-18611961D02*
X249238095Y-17754819D01*
X248333333Y-18707200D02*
X248428571Y-18754819D01*
X248428571Y-18754819D02*
X248619047Y-18754819D01*
X248619047Y-18754819D02*
X248714285Y-18707200D01*
X248714285Y-18707200D02*
X248761904Y-18611961D01*
X248761904Y-18611961D02*
X248761904Y-18231009D01*
X248761904Y-18231009D02*
X248714285Y-18135771D01*
X248714285Y-18135771D02*
X248619047Y-18088152D01*
X248619047Y-18088152D02*
X248428571Y-18088152D01*
X248428571Y-18088152D02*
X248333333Y-18135771D01*
X248333333Y-18135771D02*
X248285714Y-18231009D01*
X248285714Y-18231009D02*
X248285714Y-18326247D01*
X248285714Y-18326247D02*
X248761904Y-18421485D01*
X247428571Y-18707200D02*
X247523809Y-18754819D01*
X247523809Y-18754819D02*
X247714285Y-18754819D01*
X247714285Y-18754819D02*
X247809523Y-18707200D01*
X247809523Y-18707200D02*
X247857142Y-18659580D01*
X247857142Y-18659580D02*
X247904761Y-18564342D01*
X247904761Y-18564342D02*
X247904761Y-18278628D01*
X247904761Y-18278628D02*
X247857142Y-18183390D01*
X247857142Y-18183390D02*
X247809523Y-18135771D01*
X247809523Y-18135771D02*
X247714285Y-18088152D01*
X247714285Y-18088152D02*
X247523809Y-18088152D01*
X247523809Y-18088152D02*
X247428571Y-18135771D01*
X247142856Y-18088152D02*
X246761904Y-18088152D01*
X246999999Y-17754819D02*
X246999999Y-18611961D01*
X246999999Y-18611961D02*
X246952380Y-18707200D01*
X246952380Y-18707200D02*
X246857142Y-18754819D01*
X246857142Y-18754819D02*
X246761904Y-18754819D01*
X245904761Y-18754819D02*
X246476189Y-18754819D01*
X246190475Y-18754819D02*
X246190475Y-17754819D01*
X246190475Y-17754819D02*
X246285713Y-17897676D01*
X246285713Y-17897676D02*
X246380951Y-17992914D01*
X246380951Y-17992914D02*
X246476189Y-18040533D01*
X270526904Y-37619819D02*
X270526904Y-38429342D01*
X270526904Y-38429342D02*
X270479285Y-38524580D01*
X270479285Y-38524580D02*
X270431666Y-38572200D01*
X270431666Y-38572200D02*
X270336428Y-38619819D01*
X270336428Y-38619819D02*
X270145952Y-38619819D01*
X270145952Y-38619819D02*
X270050714Y-38572200D01*
X270050714Y-38572200D02*
X270003095Y-38524580D01*
X270003095Y-38524580D02*
X269955476Y-38429342D01*
X269955476Y-38429342D02*
X269955476Y-37619819D01*
X269003095Y-37619819D02*
X269479285Y-37619819D01*
X269479285Y-37619819D02*
X269526904Y-38096009D01*
X269526904Y-38096009D02*
X269479285Y-38048390D01*
X269479285Y-38048390D02*
X269384047Y-38000771D01*
X269384047Y-38000771D02*
X269145952Y-38000771D01*
X269145952Y-38000771D02*
X269050714Y-38048390D01*
X269050714Y-38048390D02*
X269003095Y-38096009D01*
X269003095Y-38096009D02*
X268955476Y-38191247D01*
X268955476Y-38191247D02*
X268955476Y-38429342D01*
X268955476Y-38429342D02*
X269003095Y-38524580D01*
X269003095Y-38524580D02*
X269050714Y-38572200D01*
X269050714Y-38572200D02*
X269145952Y-38619819D01*
X269145952Y-38619819D02*
X269384047Y-38619819D01*
X269384047Y-38619819D02*
X269479285Y-38572200D01*
X269479285Y-38572200D02*
X269526904Y-38524580D01*
%TO.C,SW2*%
D11*
X27370000Y-54130000D02*
X27370000Y-54530000D01*
X27370000Y-54130000D02*
X22630000Y-54130000D01*
X27370000Y-57530000D02*
X27370000Y-55470000D01*
X27370000Y-58870000D02*
X27370000Y-58470000D01*
X27370000Y-58870000D02*
X22630000Y-58870000D01*
X22630000Y-54130000D02*
X22630000Y-54530000D01*
X22630000Y-57530000D02*
X22630000Y-55470000D01*
X22630000Y-58870000D02*
X22630000Y-58470000D01*
%TO.C,SW1*%
X27370000Y-35510000D02*
X27370000Y-35910000D01*
X27370000Y-35510000D02*
X22630000Y-35510000D01*
X27370000Y-38910000D02*
X27370000Y-36850000D01*
X27370000Y-40250000D02*
X27370000Y-39850000D01*
X27370000Y-40250000D02*
X22630000Y-40250000D01*
X22630000Y-35510000D02*
X22630000Y-35910000D01*
X22630000Y-38910000D02*
X22630000Y-36850000D01*
X22630000Y-40250000D02*
X22630000Y-39850000D01*
%TO.C,Start1*%
X269870000Y-19130000D02*
X269870000Y-19530000D01*
X269870000Y-19130000D02*
X265130000Y-19130000D01*
X269870000Y-22530000D02*
X269870000Y-20470000D01*
X269870000Y-23870000D02*
X269870000Y-23470000D01*
X269870000Y-23870000D02*
X265130000Y-23870000D01*
X265130000Y-19130000D02*
X265130000Y-19530000D01*
X265130000Y-22530000D02*
X265130000Y-20470000D01*
X265130000Y-23870000D02*
X265130000Y-23470000D01*
%TO.C,Select1*%
X250870000Y-19130000D02*
X250870000Y-19530000D01*
X250870000Y-19130000D02*
X246130000Y-19130000D01*
X250870000Y-22530000D02*
X250870000Y-20470000D01*
X250870000Y-23870000D02*
X250870000Y-23470000D01*
X250870000Y-23870000D02*
X246130000Y-23870000D01*
X246130000Y-19130000D02*
X246130000Y-19530000D01*
X246130000Y-22530000D02*
X246130000Y-20470000D01*
X246130000Y-23870000D02*
X246130000Y-23470000D01*
%TO.C,U5*%
D12*
X237440000Y-39200000D02*
X237440000Y-72900000D01*
X237440000Y-72900000D02*
X272940000Y-72900000D01*
X272940000Y-39200000D02*
X237440000Y-39200000D01*
X272940000Y-72900000D02*
X272940000Y-39200000D01*
D13*
X259100000Y-38650000D02*
G75*
G02*
X258900000Y-38650000I-100000J0D01*
G01*
X258900000Y-38650000D02*
G75*
G02*
X259100000Y-38650000I100000J0D01*
G01*
%TD*%
%LPC*%
D14*
%TO.C,SW2*%
X28600000Y-55000000D03*
X21400000Y-55000000D03*
X28600000Y-58000000D03*
X21400000Y-58000000D03*
%TD*%
%TO.C,SW1*%
X28600000Y-36380000D03*
X21400000Y-36380000D03*
X28600000Y-39380000D03*
X21400000Y-39380000D03*
%TD*%
%TO.C,Start1*%
X271100000Y-20000000D03*
X263900000Y-20000000D03*
X271100000Y-23000000D03*
X263900000Y-23000000D03*
%TD*%
%TO.C,Select1*%
X252100000Y-20000000D03*
X244900000Y-20000000D03*
X252100000Y-23000000D03*
X244900000Y-23000000D03*
%TD*%
D15*
%TO.C,A3*%
X82825652Y-59332090D03*
D16*
X87828475Y-60214223D03*
D15*
X92831298Y-61096356D03*
D17*
X92021659Y-58374411D03*
X86209196Y-54770333D03*
%TD*%
D15*
%TO.C,DOWN1*%
X194997176Y-86382133D03*
D16*
X200000000Y-85500000D03*
D15*
X205002824Y-84617867D03*
D17*
X203311051Y-82336989D03*
X196616455Y-80938243D03*
%TD*%
D15*
%TO.C,B2*%
X101113322Y-81849805D03*
D16*
X106116145Y-82731938D03*
D15*
X111118968Y-83614071D03*
D17*
X110309329Y-80892126D03*
X104496866Y-77288048D03*
%TD*%
D18*
%TO.C,H1*%
X15000000Y-16000000D03*
%TD*%
D15*
%TO.C,B1*%
X121551274Y-87565655D03*
D16*
X126554097Y-88447788D03*
D15*
X131556920Y-89329921D03*
D17*
X130747281Y-86607976D03*
X124934818Y-83003898D03*
%TD*%
D18*
%TO.C,H2*%
X15000000Y-135000000D03*
%TD*%
D15*
%TO.C,RIGHT1*%
X214141839Y-83006412D03*
D16*
X219144663Y-82124279D03*
D15*
X224147487Y-81242146D03*
D17*
X222455714Y-78961268D03*
X215761118Y-77562522D03*
%TD*%
D15*
%TO.C,B3*%
X79352688Y-79028245D03*
D16*
X84355511Y-79910378D03*
D15*
X89358334Y-80792511D03*
D17*
X88548695Y-78070566D03*
X82736232Y-74466488D03*
%TD*%
D15*
%TO.C,A1*%
X125077521Y-67797661D03*
D16*
X130080344Y-68679794D03*
D15*
X135083167Y-69561927D03*
D17*
X134273528Y-66839982D03*
X128461065Y-63235904D03*
%TD*%
D19*
%TO.C,J1*%
X116475000Y-17025000D03*
X115625000Y-17025000D03*
X114775000Y-17025000D03*
X113925000Y-17025000D03*
X113075000Y-17025000D03*
X112225000Y-17025000D03*
X111375000Y-17025000D03*
X110525000Y-17025000D03*
X110525000Y-15675000D03*
X111375000Y-15675000D03*
X112225000Y-15675000D03*
X113075000Y-15675000D03*
X113925000Y-15675000D03*
X114775000Y-15675000D03*
X115625000Y-15675000D03*
X116475000Y-15675000D03*
D20*
X117825000Y-16045000D03*
D21*
X117825000Y-12665000D03*
D20*
X109175000Y-16045000D03*
D21*
X109175000Y-12665000D03*
%TD*%
D15*
%TO.C,B4*%
X58469536Y-79407688D03*
D16*
X63472359Y-80289821D03*
D15*
X68475182Y-81171954D03*
D17*
X67665543Y-78450009D03*
X61853080Y-74845931D03*
%TD*%
D15*
%TO.C,A4*%
X61942500Y-59711533D03*
D16*
X66945323Y-60593666D03*
D15*
X71948146Y-61475799D03*
D17*
X71138507Y-58753854D03*
X65326044Y-55149776D03*
%TD*%
D15*
%TO.C,UP2*%
X148920000Y-118080000D03*
D16*
X154000000Y-118080000D03*
D15*
X159080000Y-118080000D03*
D17*
X157810000Y-115540000D03*
X151460000Y-113000000D03*
%TD*%
D15*
%TO.C,LEFT1*%
X175576767Y-89806475D03*
D16*
X180579591Y-88924342D03*
D15*
X185582415Y-88042209D03*
D17*
X183890642Y-85761331D03*
X177196046Y-84362585D03*
%TD*%
D15*
%TO.C,UP1*%
X191512555Y-67195746D03*
D16*
X196515379Y-66313613D03*
D15*
X201518203Y-65431480D03*
D17*
X199826430Y-63150602D03*
X193131834Y-61751856D03*
%TD*%
D18*
%TO.C,H5*%
X155000000Y-66000000D03*
%TD*%
D15*
%TO.C,A2*%
X104665070Y-62167542D03*
D16*
X109667893Y-63049675D03*
D15*
X114670716Y-63931808D03*
D17*
X113861077Y-61209863D03*
X108048614Y-57605785D03*
%TD*%
D18*
%TO.C,H4*%
X275000000Y-135000000D03*
%TD*%
%TO.C,H3*%
X275000000Y-16000000D03*
%TD*%
D22*
%TO.C,U5*%
X270940000Y-70900000D03*
X270940000Y-41200000D03*
X239440000Y-70900000D03*
X239440000Y-41200000D03*
D23*
X259000000Y-40500000D03*
D24*
X256460000Y-40500000D03*
X253920000Y-40500000D03*
X251380000Y-40500000D03*
%TD*%
%LPD*%
M02*
