M48
; DRILL file KiCad 10.0.0 date 2026-04-10T13:49:01
; FORMAT={-:-/ absolute / inch / decimal}
; #@! TF.CreationDate,2026-04-10T13:49:01+02:00
; #@! TF.GenerationSoftware,Kicad,Pcbnew,10.0.0
; #@! TF.FileFunction,NonPlated,1,2,NPTH
FMAT,2
INCH
; #@! TA.AperFunction,NonPlated,NPTH,ComponentDrill
T1C0.0689
; #@! TA.AperFunction,NonPlated,NPTH,ComponentDrill
T2C0.1181
; #@! TA.AperFunction,NonPlated,NPTH,ComponentDrill
T3C0.1570
%
G90
G05
T1
X2.302Y-3.1263
X2.4387Y-2.3508
X2.6959Y-3.1957
X2.8326Y-2.4203
X3.1241Y-3.1113
X3.2609Y-2.3359
X3.518Y-3.1808
X3.6548Y-2.4054
X3.9808Y-3.2224
X4.1207Y-2.4475
X4.3748Y-3.2919
X4.5146Y-2.517
X4.7855Y-3.4475
X4.9243Y-2.6692
X5.1794Y-3.5169
X5.3182Y-2.7387
X5.863Y-4.6488
X6.263Y-4.6488
X6.9125Y-3.5357
X7.3064Y-3.4662
X7.5399Y-2.6455
X7.6771Y-3.4009
X7.9338Y-2.576
X8.071Y-3.3314
X8.4308Y-3.268
X8.8247Y-3.1985
T2
X9.4268Y-1.622
X9.4268Y-2.7913
X10.6669Y-1.622
X10.6669Y-2.7913
T3
X2.4989Y-3.161
X2.6356Y-2.3856
X3.3211Y-3.1461
X3.4578Y-2.3706
X4.1778Y-3.2572
X4.3176Y-2.4823
X4.9824Y-3.4822
X5.1213Y-2.7039
X6.063Y-4.6488
X7.1094Y-3.501
X7.7368Y-2.6108
X7.874Y-3.3661
X8.6277Y-3.2332
M30
