%TF.GenerationSoftware,KiCad,Pcbnew,10.0.0*%
%TF.CreationDate,2026-04-10T13:49:01+02:00*%
%TF.ProjectId,FG_Controller,46475f43-6f6e-4747-926f-6c6c65722e6b,rev?*%
%TF.SameCoordinates,Original*%
%TF.FileFunction,Soldermask,Bot*%
%TF.FilePolarity,Negative*%
%FSLAX46Y46*%
G04 Gerber Fmt 4.6, Leading zero omitted, Abs format (unit mm)*
G04 Created by KiCad (PCBNEW 10.0.0) date 2026-04-10 13:49:01*
%MOMM*%
%LPD*%
G01*
G04 APERTURE LIST*
G04 Aperture macros list*
%AMRoundRect*
0 Rectangle with rounded corners*
0 $1 Rounding radius*
0 $2 $3 $4 $5 $6 $7 $8 $9 X,Y pos of 4 corners*
0 Add a 4 corners polygon primitive as box body*
4,1,4,$2,$3,$4,$5,$6,$7,$8,$9,$2,$3,0*
0 Add four circle primitives for the rounded corners*
1,1,$1+$1,$2,$3*
1,1,$1+$1,$4,$5*
1,1,$1+$1,$6,$7*
1,1,$1+$1,$8,$9*
0 Add four rect primitives between the rounded corners*
20,1,$1+$1,$2,$3,$4,$5,0*
20,1,$1+$1,$4,$5,$6,$7,0*
20,1,$1+$1,$6,$7,$8,$9,0*
20,1,$1+$1,$8,$9,$2,$3,0*%
G04 Aperture macros list end*
%ADD10R,1.600000X1.400000*%
%ADD11C,1.750000*%
%ADD12C,3.987800*%
%ADD13C,3.300000*%
%ADD14C,3.600000*%
%ADD15C,0.700000*%
%ADD16O,0.900000X2.400000*%
%ADD17O,0.900000X1.700000*%
%ADD18C,3.000000*%
%ADD19RoundRect,0.102000X0.754000X0.754000X-0.754000X0.754000X-0.754000X-0.754000X0.754000X-0.754000X0*%
%ADD20C,1.712000*%
G04 APERTURE END LIST*
D10*
%TO.C,SW2*%
X28600000Y-55000000D03*
X21400000Y-55000000D03*
X28600000Y-58000000D03*
X21400000Y-58000000D03*
%TD*%
%TO.C,SW1*%
X28600000Y-36380000D03*
X21400000Y-36380000D03*
X28600000Y-39380000D03*
X21400000Y-39380000D03*
%TD*%
%TO.C,Start1*%
X271100000Y-20000000D03*
X263900000Y-20000000D03*
X271100000Y-23000000D03*
X263900000Y-23000000D03*
%TD*%
%TO.C,Select1*%
X252100000Y-20000000D03*
X244900000Y-20000000D03*
X252100000Y-23000000D03*
X244900000Y-23000000D03*
%TD*%
D11*
%TO.C,A3*%
X82825652Y-59332090D03*
D12*
X87828475Y-60214223D03*
D11*
X92831298Y-61096356D03*
D13*
X92021659Y-58374411D03*
X86209196Y-54770333D03*
%TD*%
D11*
%TO.C,DOWN1*%
X194997176Y-86382133D03*
D12*
X200000000Y-85500000D03*
D11*
X205002824Y-84617867D03*
D13*
X203311051Y-82336989D03*
X196616455Y-80938243D03*
%TD*%
D11*
%TO.C,B2*%
X101113322Y-81849805D03*
D12*
X106116145Y-82731938D03*
D11*
X111118968Y-83614071D03*
D13*
X110309329Y-80892126D03*
X104496866Y-77288048D03*
%TD*%
D14*
%TO.C,H1*%
X15000000Y-16000000D03*
%TD*%
D11*
%TO.C,B1*%
X121551274Y-87565655D03*
D12*
X126554097Y-88447788D03*
D11*
X131556920Y-89329921D03*
D13*
X130747281Y-86607976D03*
X124934818Y-83003898D03*
%TD*%
D14*
%TO.C,H2*%
X15000000Y-135000000D03*
%TD*%
D11*
%TO.C,RIGHT1*%
X214141839Y-83006412D03*
D12*
X219144663Y-82124279D03*
D11*
X224147487Y-81242146D03*
D13*
X222455714Y-78961268D03*
X215761118Y-77562522D03*
%TD*%
D11*
%TO.C,B3*%
X79352688Y-79028245D03*
D12*
X84355511Y-79910378D03*
D11*
X89358334Y-80792511D03*
D13*
X88548695Y-78070566D03*
X82736232Y-74466488D03*
%TD*%
D11*
%TO.C,A1*%
X125077521Y-67797661D03*
D12*
X130080344Y-68679794D03*
D11*
X135083167Y-69561927D03*
D13*
X134273528Y-66839982D03*
X128461065Y-63235904D03*
%TD*%
D15*
%TO.C,J1*%
X116475000Y-17025000D03*
X115625000Y-17025000D03*
X114775000Y-17025000D03*
X113925000Y-17025000D03*
X113075000Y-17025000D03*
X112225000Y-17025000D03*
X111375000Y-17025000D03*
X110525000Y-17025000D03*
X110525000Y-15675000D03*
X111375000Y-15675000D03*
X112225000Y-15675000D03*
X113075000Y-15675000D03*
X113925000Y-15675000D03*
X114775000Y-15675000D03*
X115625000Y-15675000D03*
X116475000Y-15675000D03*
D16*
X117825000Y-16045000D03*
D17*
X117825000Y-12665000D03*
D16*
X109175000Y-16045000D03*
D17*
X109175000Y-12665000D03*
%TD*%
D11*
%TO.C,B4*%
X58469536Y-79407688D03*
D12*
X63472359Y-80289821D03*
D11*
X68475182Y-81171954D03*
D13*
X67665543Y-78450009D03*
X61853080Y-74845931D03*
%TD*%
D11*
%TO.C,A4*%
X61942500Y-59711533D03*
D12*
X66945323Y-60593666D03*
D11*
X71948146Y-61475799D03*
D13*
X71138507Y-58753854D03*
X65326044Y-55149776D03*
%TD*%
D11*
%TO.C,UP2*%
X148920000Y-118080000D03*
D12*
X154000000Y-118080000D03*
D11*
X159080000Y-118080000D03*
D13*
X157810000Y-115540000D03*
X151460000Y-113000000D03*
%TD*%
D11*
%TO.C,LEFT1*%
X175576767Y-89806475D03*
D12*
X180579591Y-88924342D03*
D11*
X185582415Y-88042209D03*
D13*
X183890642Y-85761331D03*
X177196046Y-84362585D03*
%TD*%
D11*
%TO.C,UP1*%
X191512555Y-67195746D03*
D12*
X196515379Y-66313613D03*
D11*
X201518203Y-65431480D03*
D13*
X199826430Y-63150602D03*
X193131834Y-61751856D03*
%TD*%
D14*
%TO.C,H5*%
X155000000Y-66000000D03*
%TD*%
D11*
%TO.C,A2*%
X104665070Y-62167542D03*
D12*
X109667893Y-63049675D03*
D11*
X114670716Y-63931808D03*
D13*
X113861077Y-61209863D03*
X108048614Y-57605785D03*
%TD*%
D14*
%TO.C,H4*%
X275000000Y-135000000D03*
%TD*%
%TO.C,H3*%
X275000000Y-16000000D03*
%TD*%
D18*
%TO.C,U5*%
X270940000Y-70900000D03*
X270940000Y-41200000D03*
X239440000Y-70900000D03*
X239440000Y-41200000D03*
D19*
X259000000Y-40500000D03*
D20*
X256460000Y-40500000D03*
X253920000Y-40500000D03*
X251380000Y-40500000D03*
%TD*%
M02*
