M48
; DRILL file KiCad 10.0.0 date 2026-04-13T10:45:01
; FORMAT={-:-/ absolute / inch / decimal}
; #@! TF.CreationDate,2026-04-13T10:45:01+02:00
; #@! TF.GenerationSoftware,Kicad,Pcbnew,10.0.0
; #@! TF.FileFunction,Plated,1,2,PTH
FMAT,2
INCH
; #@! TA.AperFunction,Plated,PTH,ViaDrill
T1C0.0118
; #@! TA.AperFunction,Plated,PTH,ComponentDrill
T2C0.0157
; #@! TA.AperFunction,Plated,PTH,ComponentDrill
T3C0.0236
; #@! TA.AperFunction,Plated,PTH,ComponentDrill
T4C0.0394
; #@! TA.AperFunction,Plated,PTH,ComponentDrill
T5C0.1181
; #@! TA.AperFunction,Plated,PTH,ComponentDrill
T6C0.1260
%
G90
G05
T1
X2.9331Y-2.7165
X2.9331Y-2.8346
X3.7402Y-2.8346
X3.7605Y-2.6969
X4.1732Y-0.689
X4.2913Y-0.8268
X4.3504Y-0.9646
X4.4291Y-0.7874
X4.4882Y-0.8858
X4.4882Y-1.2598
X4.5276Y-0.8208
X4.5374Y-0.7776
X4.6204Y-2.6969
X4.626Y-2.8346
X4.7638Y-0.7677
X4.8228Y-1.2598
X5.315Y-0.689
X5.4331Y-0.689
X5.4921Y-1.2598
X5.5315Y-0.9843
X5.6496Y-2.9528
X5.6496Y-3.1496
X5.8465Y-1.0433
X5.9646Y-1.0291
X5.9843Y-1.122
X6.0433Y-1.063
X6.0827Y-1.378
X6.2795Y-0.7874
X6.2795Y-1.378
X6.2795Y-1.437
X6.2992Y-1.0236
X6.378Y-1.063
X6.4173Y-0.9449
X6.437Y-1.2205
X6.4567Y-1.2598
X6.4764Y-1.3386
X6.4961Y-0.9449
X6.512Y-0.7837
X6.5157Y-1.2992
X6.5157Y-1.4173
X6.5157Y-1.4961
X6.5157Y-4.3504
X6.5748Y-2.9921
X6.5748Y-3.1299
X6.5945Y-1.0236
X6.6142Y-0.7837
X6.6535Y-1.3386
X6.6535Y-1.4995
X6.6547Y-1.1085
X6.6732Y-1.0039
X6.6929Y-0.8268
X6.6929Y-1.3386
X6.6929Y-1.4173
X6.6929Y-1.6535
X6.702Y-1.2924
X6.7717Y-1.4173
X6.7717Y-1.5748
X6.7717Y-1.7323
X6.8504Y-1.2795
X6.8504Y-4.0157
X6.8701Y-1.0433
X6.8701Y-1.378
X6.9094Y-0.5079
X6.9094Y-0.6102
X6.9114Y-1.3366
X6.9291Y-0.8858
X6.9291Y-1.3976
X6.9488Y-1.2402
X6.9566Y-0.4802
X6.9587Y-1.5256
X6.9857Y-1.0458
X6.9882Y-1.2402
X7.0079Y-1.4764
X7.0472Y-1.4961
X7.0669Y-0.5906
X7.0669Y-0.9843
X7.0669Y-1.2795
X7.1654Y-1.378
X7.2047Y-1.1024
X7.2047Y-1.4567
X7.2441Y-2.9724
X7.3228Y-3.0512
X7.4016Y-0.9449
X7.4606Y-1.1811
X7.4606Y-1.2598
X7.7165Y-1.2598
X7.8543Y-0.7087
X7.9134Y-0.6693
X8.0118Y-0.7087
X8.0709Y-1.2008
X8.1496Y-2.5787
X8.1496Y-2.7559
X8.1693Y-1.0827
X8.4252Y-0.8858
X8.937Y-0.8858
X9.0748Y-3.0906
X9.2913Y-3.0906
T2
X4.3514Y-0.6171
X4.3514Y-0.6703
X4.3848Y-0.6171
X4.3848Y-0.6703
X4.4183Y-0.6171
X4.4183Y-0.6703
X4.4518Y-0.6171
X4.4518Y-0.6703
X4.4852Y-0.6171
X4.4852Y-0.6703
X4.5187Y-0.6171
X4.5187Y-0.6703
X4.5522Y-0.6171
X4.5522Y-0.6703
X4.5856Y-0.6171
X4.5856Y-0.6703
T4
X2.1728Y-0.6476
X2.2728Y-0.6476
X2.3728Y-0.6476
X2.4728Y-0.6476
T5
X2.4352Y-2.9467
X2.5719Y-2.1713
X2.664Y-3.0886
X2.8007Y-2.3131
X3.2573Y-2.9318
X3.3941Y-2.1563
X3.4862Y-3.0736
X3.6229Y-2.2982
X4.114Y-3.0428
X4.2539Y-2.2679
X4.3429Y-3.1847
X4.4827Y-2.4098
X4.9187Y-3.2679
X5.0575Y-2.4896
X5.1475Y-3.4098
X5.2864Y-2.6315
X5.963Y-4.4488
X6.213Y-4.5488
X6.9762Y-3.3214
X7.2398Y-3.3764
X7.6036Y-2.4312
X7.7408Y-3.1865
X7.8672Y-2.4862
X8.0044Y-3.2416
X8.4945Y-3.0536
X8.7581Y-3.1087
T6
X1.4173Y-0.6693
X1.4173Y-5.315
X6.1024Y-2.5984
X9.6063Y-0.6693
X9.6063Y-5.315
T3
G00X4.2982Y-0.5144
M15
G01X4.2982Y-0.4829
M16
G05
G00X4.2982Y-0.6612
M15
G01X4.2982Y-0.6022
M16
G05
G00X4.6388Y-0.5144
M15
G01X4.6388Y-0.4829
M16
G05
G00X4.6388Y-0.6612
M15
G01X4.6388Y-0.6022
M16
G05
M30
