%TF.GenerationSoftware,KiCad,Pcbnew,10.0.0*%
%TF.CreationDate,2026-04-08T14:11:59+02:00*%
%TF.ProjectId,FG_Controller,46475f43-6f6e-4747-926f-6c6c65722e6b,rev?*%
%TF.SameCoordinates,Original*%
%TF.FileFunction,Soldermask,Top*%
%TF.FilePolarity,Negative*%
%FSLAX46Y46*%
G04 Gerber Fmt 4.6, Leading zero omitted, Abs format (unit mm)*
G04 Created by KiCad (PCBNEW 10.0.0) date 2026-04-08 14:11:59*
%MOMM*%
%LPD*%
G01*
G04 APERTURE LIST*
G04 Aperture macros list*
%AMRoundRect*
0 Rectangle with rounded corners*
0 $1 Rounding radius*
0 $2 $3 $4 $5 $6 $7 $8 $9 X,Y pos of 4 corners*
0 Add a 4 corners polygon primitive as box body*
4,1,4,$2,$3,$4,$5,$6,$7,$8,$9,$2,$3,0*
0 Add four circle primitives for the rounded corners*
1,1,$1+$1,$2,$3*
1,1,$1+$1,$4,$5*
1,1,$1+$1,$6,$7*
1,1,$1+$1,$8,$9*
0 Add four rect primitives between the rounded corners*
20,1,$1+$1,$2,$3,$4,$5,0*
20,1,$1+$1,$4,$5,$6,$7,0*
20,1,$1+$1,$6,$7,$8,$9,0*
20,1,$1+$1,$8,$9,$2,$3,0*%
G04 Aperture macros list end*
%ADD10C,3.300000*%
%ADD11RoundRect,0.250000X-1.183076X-0.806818X0.835780X-1.162797X1.183076X0.806818X-0.835780X1.162797X0*%
%ADD12C,1.750000*%
%ADD13C,3.987800*%
%ADD14RoundRect,0.250000X-0.835780X-1.162797X1.183076X-0.806818X0.835780X1.162797X-1.183076X0.806818X0*%
%ADD15RoundRect,0.250000X0.350000X0.650000X-0.350000X0.650000X-0.350000X-0.650000X0.350000X-0.650000X0*%
%ADD16RoundRect,0.150000X0.150000X0.625000X-0.150000X0.625000X-0.150000X-0.625000X0.150000X-0.625000X0*%
%ADD17C,1.778000*%
%ADD18R,3.200000X3.200000*%
%ADD19RoundRect,0.050000X-0.050000X-0.387500X0.050000X-0.387500X0.050000X0.387500X-0.050000X0.387500X0*%
%ADD20RoundRect,0.050000X-0.387500X-0.050000X0.387500X-0.050000X0.387500X0.050000X-0.387500X0.050000X0*%
%ADD21R,4.000000X3.400000*%
%ADD22RoundRect,0.125000X0.125000X-0.262500X0.125000X0.262500X-0.125000X0.262500X-0.125000X-0.262500X0*%
%ADD23C,3.000000*%
%ADD24C,1.712000*%
%ADD25RoundRect,0.102000X0.754000X0.754000X-0.754000X0.754000X-0.754000X-0.754000X0.754000X-0.754000X0*%
%ADD26RoundRect,0.250000X-1.025000X-1.000000X1.025000X-1.000000X1.025000X1.000000X-1.025000X1.000000X0*%
%ADD27RoundRect,0.147500X-0.147500X-0.172500X0.147500X-0.172500X0.147500X0.172500X-0.147500X0.172500X0*%
%ADD28RoundRect,0.250000X-0.450000X-0.350000X0.450000X-0.350000X0.450000X0.350000X-0.450000X0.350000X0*%
%ADD29RoundRect,0.112500X0.204187X0.078232X-0.165116X0.143350X-0.204187X-0.078232X0.165116X-0.143350X0*%
%ADD30RoundRect,0.150000X-0.512500X-0.150000X0.512500X-0.150000X0.512500X0.150000X-0.512500X0.150000X0*%
%ADD31RoundRect,0.225000X0.250000X-0.225000X0.250000X0.225000X-0.250000X0.225000X-0.250000X-0.225000X0*%
%ADD32RoundRect,0.250000X0.262500X0.450000X-0.262500X0.450000X-0.262500X-0.450000X0.262500X-0.450000X0*%
%ADD33RoundRect,0.250000X0.450000X-0.262500X0.450000X0.262500X-0.450000X0.262500X-0.450000X-0.262500X0*%
%ADD34RoundRect,0.112500X0.165116X0.143350X-0.204187X0.078232X-0.165116X-0.143350X0.204187X-0.078232X0*%
%ADD35RoundRect,0.250000X-0.375000X-0.625000X0.375000X-0.625000X0.375000X0.625000X-0.375000X0.625000X0*%
%ADD36RoundRect,0.225000X0.225000X0.250000X-0.225000X0.250000X-0.225000X-0.250000X0.225000X-0.250000X0*%
%ADD37RoundRect,0.225000X-0.250000X0.225000X-0.250000X-0.225000X0.250000X-0.225000X0.250000X0.225000X0*%
%ADD38RoundRect,0.225000X-0.225000X-0.250000X0.225000X-0.250000X0.225000X0.250000X-0.225000X0.250000X0*%
%ADD39RoundRect,0.250000X-0.262500X-0.450000X0.262500X-0.450000X0.262500X0.450000X-0.262500X0.450000X0*%
%ADD40RoundRect,0.112500X0.187500X0.112500X-0.187500X0.112500X-0.187500X-0.112500X0.187500X-0.112500X0*%
%ADD41RoundRect,0.162500X0.447500X0.162500X-0.447500X0.162500X-0.447500X-0.162500X0.447500X-0.162500X0*%
%ADD42C,0.700000*%
%ADD43O,0.900000X2.400000*%
%ADD44O,0.900000X1.700000*%
G04 APERTURE END LIST*
D10*
%TO.C,A1*%
X128461065Y-63235904D03*
D11*
X124964998Y-62619453D03*
X137769595Y-67456433D03*
D10*
X134273528Y-66839982D03*
D12*
X135083167Y-69561927D03*
D13*
X130080344Y-68679794D03*
D12*
X125077521Y-67797661D03*
%TD*%
D10*
%TO.C,A2*%
X108048614Y-57605785D03*
D11*
X104552547Y-56989334D03*
X117357144Y-61826314D03*
D10*
X113861077Y-61209863D03*
D12*
X114670716Y-63931808D03*
D13*
X109667893Y-63049675D03*
D12*
X104665070Y-62167542D03*
%TD*%
D10*
%TO.C,A3*%
X86209196Y-54770333D03*
D11*
X82713129Y-54153882D03*
X95517726Y-58990862D03*
D10*
X92021659Y-58374411D03*
D12*
X92831298Y-61096356D03*
D13*
X87828475Y-60214223D03*
D12*
X82825652Y-59332090D03*
%TD*%
D10*
%TO.C,A4*%
X65326044Y-55149776D03*
D11*
X61829977Y-54533325D03*
X74634574Y-59370305D03*
D10*
X71138507Y-58753854D03*
D12*
X71948146Y-61475799D03*
D13*
X66945323Y-60593666D03*
D12*
X61942500Y-59711533D03*
%TD*%
D10*
%TO.C,B1*%
X124934818Y-83003898D03*
D11*
X121438751Y-82387447D03*
X134243348Y-87224427D03*
D10*
X130747281Y-86607976D03*
D12*
X131556920Y-89329921D03*
D13*
X126554097Y-88447788D03*
D12*
X121551274Y-87565655D03*
%TD*%
D10*
%TO.C,B2*%
X104496866Y-77288048D03*
D11*
X101000799Y-76671597D03*
X113805396Y-81508577D03*
D10*
X110309329Y-80892126D03*
D12*
X111118968Y-83614071D03*
D13*
X106116145Y-82731938D03*
D12*
X101113322Y-81849805D03*
%TD*%
D10*
%TO.C,B3*%
X82736232Y-74466488D03*
D11*
X79240165Y-73850037D03*
X92044762Y-78687017D03*
D10*
X88548695Y-78070566D03*
D12*
X89358334Y-80792511D03*
D13*
X84355511Y-79910378D03*
D12*
X79352688Y-79028245D03*
%TD*%
D10*
%TO.C,B4*%
X61853080Y-74845931D03*
D11*
X58357013Y-74229480D03*
X71161610Y-79066460D03*
D10*
X67665543Y-78450009D03*
D12*
X68475182Y-81171954D03*
D13*
X63472359Y-80289821D03*
D12*
X58469536Y-79407688D03*
%TD*%
D10*
%TO.C,DOWN1*%
X196616455Y-80938243D03*
D14*
X193120388Y-81554694D03*
X206807119Y-81720538D03*
D10*
X203311051Y-82336989D03*
D12*
X205002824Y-84617867D03*
D13*
X200000000Y-85500000D03*
D12*
X194997176Y-86382133D03*
%TD*%
D15*
%TO.C,J2*%
X201200000Y-12625000D03*
X206800000Y-12625000D03*
D16*
X202500000Y-16500000D03*
X203500000Y-16500000D03*
X204500000Y-16500000D03*
X205500000Y-16500000D03*
%TD*%
D10*
%TO.C,LEFT1*%
X177196046Y-84362585D03*
D14*
X173699979Y-84979036D03*
X187386710Y-85144880D03*
D10*
X183890642Y-85761331D03*
D12*
X185582415Y-88042209D03*
D13*
X180579591Y-88924342D03*
D12*
X175576767Y-89806475D03*
%TD*%
D10*
%TO.C,RIGHT1*%
X215761118Y-77562522D03*
D14*
X212265051Y-78178973D03*
X225951782Y-78344817D03*
D10*
X222455714Y-78961268D03*
D12*
X224147487Y-81242146D03*
D13*
X219144663Y-82124279D03*
D12*
X214141839Y-83006412D03*
%TD*%
D17*
%TO.C,Select1*%
X248500000Y-21500000D03*
X243420000Y-21500000D03*
X243420000Y-29120000D03*
X245960000Y-29120000D03*
X248500000Y-29120000D03*
%TD*%
%TO.C,Start1*%
X267500000Y-29120000D03*
X264960000Y-29120000D03*
X262420000Y-29120000D03*
X262420000Y-21500000D03*
X267500000Y-21500000D03*
%TD*%
%TO.C,SW1*%
X25000000Y-45500000D03*
X22460000Y-45500000D03*
X19920000Y-45500000D03*
X19920000Y-37880000D03*
X25000000Y-37880000D03*
%TD*%
%TO.C,SW2*%
X25000000Y-64120000D03*
X22460000Y-64120000D03*
X19920000Y-64120000D03*
X19920000Y-56500000D03*
X25000000Y-56500000D03*
%TD*%
D18*
%TO.C,U1*%
X169030000Y-28155000D03*
D19*
X166430000Y-24717500D03*
X166830000Y-24717500D03*
X167230000Y-24717500D03*
X167630000Y-24717500D03*
X168030000Y-24717500D03*
X168430000Y-24717500D03*
X168830000Y-24717500D03*
X169230000Y-24717500D03*
X169630000Y-24717500D03*
X170030000Y-24717500D03*
X170430000Y-24717500D03*
X170830000Y-24717500D03*
X171230000Y-24717500D03*
X171630000Y-24717500D03*
D20*
X172467500Y-25555000D03*
X172467500Y-25955000D03*
X172467500Y-26355000D03*
X172467500Y-26755000D03*
X172467500Y-27155000D03*
X172467500Y-27555000D03*
X172467500Y-27955000D03*
X172467500Y-28355000D03*
X172467500Y-28755000D03*
X172467500Y-29155000D03*
X172467500Y-29555000D03*
X172467500Y-29955000D03*
X172467500Y-30355000D03*
X172467500Y-30755000D03*
D19*
X171630000Y-31592500D03*
X171230000Y-31592500D03*
X170830000Y-31592500D03*
X170430000Y-31592500D03*
X170030000Y-31592500D03*
X169630000Y-31592500D03*
X169230000Y-31592500D03*
X168830000Y-31592500D03*
X168430000Y-31592500D03*
X168030000Y-31592500D03*
X167630000Y-31592500D03*
X167230000Y-31592500D03*
X166830000Y-31592500D03*
X166430000Y-31592500D03*
D20*
X165592500Y-30755000D03*
X165592500Y-30355000D03*
X165592500Y-29955000D03*
X165592500Y-29555000D03*
X165592500Y-29155000D03*
X165592500Y-28755000D03*
X165592500Y-28355000D03*
X165592500Y-27955000D03*
X165592500Y-27555000D03*
X165592500Y-27155000D03*
X165592500Y-26755000D03*
X165592500Y-26355000D03*
X165592500Y-25955000D03*
X165592500Y-25555000D03*
%TD*%
D21*
%TO.C,U4*%
X167365000Y-18337500D03*
D22*
X165460000Y-15675000D03*
X166730000Y-15675000D03*
X168000000Y-15675000D03*
X169270000Y-15675000D03*
X169270000Y-21000000D03*
X168000000Y-21000000D03*
X166730000Y-21000000D03*
X165460000Y-21000000D03*
%TD*%
D23*
%TO.C,U5*%
X239440000Y-70900000D03*
X270940000Y-70900000D03*
X270940000Y-41200000D03*
X239440000Y-41200000D03*
D24*
X251380000Y-40500000D03*
X253920000Y-40500000D03*
X256460000Y-40500000D03*
D25*
X259000000Y-40500000D03*
%TD*%
D10*
%TO.C,UP1*%
X193131834Y-61751856D03*
D14*
X189635767Y-62368307D03*
X203322498Y-62534151D03*
D10*
X199826430Y-63150602D03*
D12*
X201518203Y-65431480D03*
D13*
X196515379Y-66313613D03*
D12*
X191512555Y-67195746D03*
%TD*%
D10*
%TO.C,UP2*%
X151460000Y-113000000D03*
D26*
X147910000Y-113000000D03*
X161360000Y-115540000D03*
D10*
X157810000Y-115540000D03*
D12*
X159080000Y-118080000D03*
D13*
X154000000Y-118080000D03*
D12*
X148920000Y-118080000D03*
%TD*%
D27*
%TO.C,FB1*%
X141475000Y-17500000D03*
X142445000Y-17500000D03*
%TD*%
D28*
%TO.C,Y1*%
X169800000Y-48000000D03*
X172000000Y-48000000D03*
X172000000Y-46300000D03*
X169800000Y-46300000D03*
%TD*%
D29*
%TO.C,D12*%
X106368776Y-87345904D03*
X104300680Y-86981242D03*
%TD*%
%TO.C,D7*%
X109841740Y-67649749D03*
X107773644Y-67285087D03*
%TD*%
D30*
%TO.C,U2*%
X114362500Y-24050000D03*
X114362500Y-25000000D03*
X114362500Y-25950000D03*
X116637500Y-25950000D03*
X116637500Y-25000000D03*
X116637500Y-24050000D03*
%TD*%
D31*
%TO.C,C16*%
X162500000Y-16550000D03*
X162500000Y-15000000D03*
%TD*%
D32*
%TO.C,R2*%
X106912500Y-21000000D03*
X105087500Y-21000000D03*
%TD*%
D33*
%TO.C,R5*%
X169000000Y-39912500D03*
X169000000Y-38087500D03*
%TD*%
D34*
%TO.C,D5*%
X220794518Y-85895072D03*
X218726422Y-86259732D03*
%TD*%
D35*
%TO.C,F1*%
X127200000Y-17500000D03*
X130000000Y-17500000D03*
%TD*%
D34*
%TO.C,D4*%
X198291451Y-70569864D03*
X196223355Y-70934524D03*
%TD*%
D36*
%TO.C,C4*%
X25500000Y-32000000D03*
X23950000Y-32000000D03*
%TD*%
%TO.C,C6*%
X29775000Y-45500000D03*
X28225000Y-45500000D03*
%TD*%
D29*
%TO.C,D6*%
X130254191Y-73279868D03*
X128186095Y-72915206D03*
%TD*%
D36*
%TO.C,C14*%
X167000000Y-50000000D03*
X165450000Y-50000000D03*
%TD*%
%TO.C,C2*%
X178925000Y-26500000D03*
X177375000Y-26500000D03*
%TD*%
D34*
%TO.C,D3*%
X201726832Y-89764933D03*
X199658736Y-90129593D03*
%TD*%
D33*
%TO.C,R4*%
X179500000Y-18825000D03*
X179500000Y-17000000D03*
%TD*%
D37*
%TO.C,C11*%
X162000000Y-31500000D03*
X162000000Y-33050000D03*
%TD*%
D33*
%TO.C,R3*%
X174500000Y-18825000D03*
X174500000Y-17000000D03*
%TD*%
D36*
%TO.C,C9*%
X155550000Y-29500000D03*
X154000000Y-29500000D03*
%TD*%
D38*
%TO.C,C13*%
X174000000Y-32500000D03*
X175550000Y-32500000D03*
%TD*%
D37*
%TO.C,C1*%
X143500000Y-23500000D03*
X143500000Y-25050000D03*
%TD*%
%TO.C,C3*%
X157500000Y-23725000D03*
X157500000Y-25275000D03*
%TD*%
D29*
%TO.C,D9*%
X67247194Y-65216315D03*
X65179098Y-64851653D03*
%TD*%
D37*
%TO.C,C7*%
X154000000Y-23725000D03*
X154000000Y-25275000D03*
%TD*%
D38*
%TO.C,C17*%
X242000000Y-32000000D03*
X243550000Y-32000000D03*
%TD*%
D32*
%TO.C,R1*%
X106912500Y-24500000D03*
X105087500Y-24500000D03*
%TD*%
D34*
%TO.C,D2*%
X182473840Y-93159755D03*
X180405744Y-93524415D03*
%TD*%
D38*
%TO.C,C8*%
X199225000Y-31500000D03*
X200775000Y-31500000D03*
%TD*%
D36*
%TO.C,C5*%
X168000000Y-36000000D03*
X166450000Y-36000000D03*
%TD*%
D39*
%TO.C,R7*%
X181237500Y-26500000D03*
X183062500Y-26500000D03*
%TD*%
D36*
%TO.C,C15*%
X167050000Y-44500000D03*
X165500000Y-44500000D03*
%TD*%
D38*
%TO.C,C12*%
X174450000Y-22500000D03*
X176000000Y-22500000D03*
%TD*%
D40*
%TO.C,D10*%
X155060000Y-122500000D03*
X152960000Y-122500000D03*
%TD*%
D29*
%TO.C,D13*%
X84608142Y-84524344D03*
X82540046Y-84159682D03*
%TD*%
D32*
%TO.C,R6*%
X182912500Y-23500000D03*
X181087500Y-23500000D03*
%TD*%
D41*
%TO.C,U3*%
X149810000Y-24450000D03*
X149810000Y-22550000D03*
X147190000Y-23500000D03*
%TD*%
D29*
%TO.C,D8*%
X88130346Y-64836871D03*
X86062250Y-64472209D03*
%TD*%
%TO.C,D11*%
X126781227Y-92976023D03*
X124713131Y-92611361D03*
%TD*%
D36*
%TO.C,C10*%
X175500000Y-42500000D03*
X173950000Y-42500000D03*
%TD*%
D29*
%TO.C,D14*%
X63724991Y-84903787D03*
X61656895Y-84539125D03*
%TD*%
D42*
%TO.C,J1*%
X116475000Y-17025000D03*
X115625000Y-17025000D03*
X114775000Y-17025000D03*
X113925000Y-17025000D03*
X113075000Y-17025000D03*
X112225000Y-17025000D03*
X111375000Y-17025000D03*
X110525000Y-17025000D03*
X110525000Y-15675000D03*
X111375000Y-15675000D03*
X112225000Y-15675000D03*
X113075000Y-15675000D03*
X113925000Y-15675000D03*
X114775000Y-15675000D03*
X115625000Y-15675000D03*
X116475000Y-15675000D03*
D43*
X117825000Y-16045000D03*
D44*
X117825000Y-12665000D03*
D43*
X109175000Y-16045000D03*
D44*
X109175000Y-12665000D03*
%TD*%
M02*
