%TF.GenerationSoftware,KiCad,Pcbnew,10.0.0*%
%TF.CreationDate,2026-04-08T14:11:59+02:00*%
%TF.ProjectId,FG_Controller,46475f43-6f6e-4747-926f-6c6c65722e6b,rev?*%
%TF.SameCoordinates,Original*%
%TF.FileFunction,Copper,L2,Bot*%
%TF.FilePolarity,Positive*%
%FSLAX46Y46*%
G04 Gerber Fmt 4.6, Leading zero omitted, Abs format (unit mm)*
G04 Created by KiCad (PCBNEW 10.0.0) date 2026-04-08 14:11:59*
%MOMM*%
%LPD*%
G01*
G04 APERTURE LIST*
%TA.AperFunction,ComponentPad*%
%ADD10C,3.300000*%
%TD*%
%TA.AperFunction,ComponentPad*%
%ADD11C,1.778000*%
%TD*%
%TA.AperFunction,ComponentPad*%
%ADD12C,1.508000*%
%TD*%
%TA.AperFunction,ComponentPad*%
%ADD13R,1.508000X1.508000*%
%TD*%
%TA.AperFunction,ComponentPad*%
%ADD14C,0.700000*%
%TD*%
%TA.AperFunction,ComponentPad*%
%ADD15O,0.900000X2.400000*%
%TD*%
%TA.AperFunction,ComponentPad*%
%ADD16O,0.900000X1.700000*%
%TD*%
%TA.AperFunction,ViaPad*%
%ADD17C,0.600000*%
%TD*%
%TA.AperFunction,Conductor*%
%ADD18C,0.200000*%
%TD*%
G04 APERTURE END LIST*
D10*
%TO.P,A1,2,2_2*%
%TO.N,Net-(D6-A)*%
X128461065Y-63235904D03*
%TO.P,A1,1,1_1*%
%TO.N,GP8*%
X134273528Y-66839982D03*
%TD*%
%TO.P,A2,2,2_2*%
%TO.N,Net-(D7-A)*%
X108048614Y-57605785D03*
%TO.P,A2,1,1_1*%
%TO.N,GP7*%
X113861077Y-61209863D03*
%TD*%
%TO.P,A3,2,2_2*%
%TO.N,Net-(D8-A)*%
X86209196Y-54770333D03*
%TO.P,A3,1,1_1*%
%TO.N,GP6*%
X92021659Y-58374411D03*
%TD*%
%TO.P,A4,2,2_2*%
%TO.N,Net-(D9-A)*%
X65326044Y-55149776D03*
%TO.P,A4,1,1_1*%
%TO.N,GP5*%
X71138507Y-58753854D03*
%TD*%
%TO.P,B1,2,2_2*%
%TO.N,Net-(D11-A)*%
X124934818Y-83003898D03*
%TO.P,B1,1,1_1*%
%TO.N,GP8*%
X130747281Y-86607976D03*
%TD*%
%TO.P,B2,2,2_2*%
%TO.N,Net-(D12-A)*%
X104496866Y-77288048D03*
%TO.P,B2,1,1_1*%
%TO.N,GP7*%
X110309329Y-80892126D03*
%TD*%
%TO.P,B3,2,2_2*%
%TO.N,Net-(D13-A)*%
X82736232Y-74466488D03*
%TO.P,B3,1,1_1*%
%TO.N,GP6*%
X88548695Y-78070566D03*
%TD*%
%TO.P,B4,2,2_2*%
%TO.N,Net-(D14-A)*%
X61853080Y-74845931D03*
%TO.P,B4,1,1_1*%
%TO.N,GP5*%
X67665543Y-78450009D03*
%TD*%
%TO.P,DOWN1,2,2_2*%
%TO.N,Net-(D3-A)*%
X196616455Y-80938243D03*
%TO.P,DOWN1,1,1_1*%
%TO.N,GP19*%
X203311051Y-82336989D03*
%TD*%
%TO.P,LEFT1,2,2_2*%
%TO.N,Net-(D2-A)*%
X177196046Y-84362585D03*
%TO.P,LEFT1,1,1_1*%
%TO.N,GP22*%
X183890642Y-85761331D03*
%TD*%
%TO.P,RIGHT1,2,2_2*%
%TO.N,Net-(D5-A)*%
X215761118Y-77562522D03*
%TO.P,RIGHT1,1,1_1*%
%TO.N,GP4*%
X222455714Y-78961268D03*
%TD*%
D11*
%TO.P,Select1,1,1_1*%
%TO.N,GND*%
X248500000Y-21500000D03*
%TO.P,Select1,2,2_2*%
%TO.N,GP26*%
X243420000Y-21500000D03*
%TO.P,Select1,3*%
%TO.N,N/C*%
X243420000Y-29120000D03*
%TO.P,Select1,4*%
X245960000Y-29120000D03*
%TO.P,Select1,5*%
X248500000Y-29120000D03*
%TD*%
%TO.P,Start1,5*%
%TO.N,N/C*%
X267500000Y-29120000D03*
%TO.P,Start1,4*%
X264960000Y-29120000D03*
%TO.P,Start1,3*%
X262420000Y-29120000D03*
%TO.P,Start1,2,2_2*%
%TO.N,GP10*%
X262420000Y-21500000D03*
%TO.P,Start1,1,1_1*%
%TO.N,GND*%
X267500000Y-21500000D03*
%TD*%
%TO.P,SW1,5*%
%TO.N,N/C*%
X25000000Y-45500000D03*
%TO.P,SW1,4*%
X22460000Y-45500000D03*
%TO.P,SW1,3*%
X19920000Y-45500000D03*
%TO.P,SW1,2,2_2*%
%TO.N,/CS_*%
X19920000Y-37880000D03*
%TO.P,SW1,1,1_1*%
%TO.N,GND*%
X25000000Y-37880000D03*
%TD*%
%TO.P,SW2,5*%
%TO.N,N/C*%
X25000000Y-64120000D03*
%TO.P,SW2,4*%
X22460000Y-64120000D03*
%TO.P,SW2,3*%
X19920000Y-64120000D03*
%TO.P,SW2,2,2_2*%
%TO.N,/RUN_*%
X19920000Y-56500000D03*
%TO.P,SW2,1,1_1*%
%TO.N,GND*%
X25000000Y-56500000D03*
%TD*%
D12*
%TO.P,U5,4,SDA_4*%
%TO.N,GP25*%
X251380000Y-40500000D03*
%TO.P,U5,3,SCL_3*%
%TO.N,GP24*%
X253920000Y-40500000D03*
%TO.P,U5,2,VCC_2*%
%TO.N,+3V3*%
X256460000Y-40500000D03*
D13*
%TO.P,U5,1,GND_1*%
%TO.N,GND*%
X259000000Y-40500000D03*
%TD*%
D10*
%TO.P,UP1,2,2_2*%
%TO.N,Net-(D4-A)*%
X193131834Y-61751856D03*
%TO.P,UP1,1,1_1*%
%TO.N,GP19*%
X199826430Y-63150602D03*
%TD*%
%TO.P,UP2,2,2_2*%
%TO.N,Net-(D10-A)*%
X151460000Y-113000000D03*
%TO.P,UP2,1,1_1*%
%TO.N,GP4*%
X157810000Y-115540000D03*
%TD*%
D14*
%TO.P,J1,A1,GND_A1*%
%TO.N,GND*%
X116475000Y-17025000D03*
%TO.P,J1,A4,VBUS_A4*%
%TO.N,/VBUS*%
X115625000Y-17025000D03*
%TO.P,J1,A5,CC1_A5*%
%TO.N,Net-(J1-CC1)*%
X114775000Y-17025000D03*
%TO.P,J1,A6,D+_A6*%
%TO.N,/D2+*%
X113925000Y-17025000D03*
%TO.P,J1,A7,D-_A7*%
%TO.N,/d1-*%
X113075000Y-17025000D03*
%TO.P,J1,A8,SBU1_A8*%
%TO.N,unconnected-(J1-SBU1-PadA8)*%
X112225000Y-17025000D03*
%TO.P,J1,A9,VBUS_A9*%
%TO.N,/VBUS*%
X111375000Y-17025000D03*
%TO.P,J1,A12,GND_A12*%
%TO.N,GND*%
X110525000Y-17025000D03*
%TO.P,J1,B1,GND_B1*%
X110525000Y-15675000D03*
%TO.P,J1,B4,VBUS_B4*%
%TO.N,/VBUS*%
X111375000Y-15675000D03*
%TO.P,J1,B5,CC2_B5*%
%TO.N,Net-(J1-CC2)*%
X112225000Y-15675000D03*
%TO.P,J1,B6,D+_B6*%
%TO.N,/D2+*%
X113075000Y-15675000D03*
%TO.P,J1,B7,D-_B7*%
%TO.N,/d1-*%
X113925000Y-15675000D03*
%TO.P,J1,B8,SBU2_B8*%
%TO.N,unconnected-(J1-SBU2-PadB8)*%
X114775000Y-15675000D03*
%TO.P,J1,B9,VBUS_B9*%
%TO.N,/VBUS*%
X115625000Y-15675000D03*
%TO.P,J1,B12,GND_B12*%
%TO.N,GND*%
X116475000Y-15675000D03*
D15*
%TO.P,J1,SH,SHIELD_SH*%
%TO.N,unconnected-(J1-SHIELD-PadSH)_3*%
X117825000Y-16045000D03*
D16*
%TO.N,unconnected-(J1-SHIELD-PadSH)*%
X117825000Y-12665000D03*
D15*
%TO.N,unconnected-(J1-SHIELD-PadSH)_2*%
X109175000Y-16045000D03*
D16*
%TO.N,unconnected-(J1-SHIELD-PadSH)_1*%
X109175000Y-12665000D03*
%TD*%
D17*
%TO.N,GND*%
X201000000Y-17000000D03*
%TO.N,/DP*%
X203500000Y-18000000D03*
X199500000Y-18000000D03*
%TO.N,GND*%
X27000000Y-45500000D03*
%TO.N,+3V3*%
X31000000Y-45500000D03*
%TO.N,GND*%
X165500000Y-36000000D03*
%TO.N,+3V3*%
X170000000Y-36000000D03*
X148500000Y-26500000D03*
X28500000Y-32000000D03*
%TO.N,GND*%
X19920000Y-32080000D03*
%TO.N,/D2+*%
X112500000Y-20000000D03*
%TO.N,Net-(J1-CC2)*%
X106000000Y-17500000D03*
%TO.N,/XIN-*%
X172000000Y-44000000D03*
X164500000Y-34000000D03*
%TO.N,+3V3*%
X176750000Y-38750000D03*
%TO.N,GND*%
X172000000Y-40000000D03*
X140500000Y-25000000D03*
X170000000Y-42000000D03*
X205000000Y-30500000D03*
%TO.N,+3V3*%
X196000000Y-32000000D03*
%TO.N,GND*%
X172000000Y-36000000D03*
X174500000Y-35000000D03*
X175550000Y-33950000D03*
%TO.N,+1V1*%
X174000000Y-32500000D03*
%TO.N,+3V3*%
X170000000Y-34000000D03*
%TO.N,GP6*%
X95000000Y-72000000D03*
X95517726Y-68500000D03*
%TO.N,+3V3*%
X188000000Y-24000000D03*
X240000000Y-32000000D03*
X198500000Y-34500000D03*
X160000000Y-26000000D03*
X169500000Y-25500000D03*
X167500000Y-26000000D03*
X249500000Y-35000000D03*
X238500000Y-35000000D03*
%TO.N,GP4*%
X159500000Y-36500000D03*
X153500000Y-27000000D03*
X236000000Y-78500000D03*
X187460000Y-115540000D03*
X162000000Y-27000000D03*
X230500000Y-78500000D03*
X152000000Y-28500000D03*
X193000000Y-115500000D03*
%TO.N,GP5*%
X74500000Y-72000000D03*
X74500000Y-69000000D03*
%TO.N,GP7*%
X117500000Y-72000000D03*
X117357144Y-68500000D03*
%TO.N,GP8*%
X143500000Y-80000000D03*
X143500000Y-75000000D03*
%TO.N,GP10*%
X183000000Y-28000000D03*
X163500000Y-31000000D03*
%TO.N,GND*%
X176000000Y-22500000D03*
X211000000Y-24000000D03*
X121000000Y-19500000D03*
X167365000Y-18337500D03*
X162500000Y-15000000D03*
X165500000Y-38000000D03*
X30500000Y-21500000D03*
X151500000Y-26140000D03*
X246000000Y-32120000D03*
X177437500Y-26562500D03*
X207500000Y-27500000D03*
X170000000Y-20500000D03*
X165500000Y-33000000D03*
X169030000Y-28155000D03*
%TO.N,Net-(U1-XOUT)*%
X169000000Y-34000000D03*
X169000000Y-38087500D03*
%TO.N,+1V1*%
X170230000Y-32825735D03*
X164000000Y-32000000D03*
%TO.N,/RUN_*%
X159500000Y-35000000D03*
X154500000Y-35000000D03*
%TO.N,GP17*%
X176000000Y-35500000D03*
X178000000Y-37500000D03*
X167000000Y-76000000D03*
X167000000Y-79500000D03*
%TO.N,GP18*%
X179000000Y-38000000D03*
X176500000Y-31500000D03*
%TO.N,GP19*%
X207000000Y-65500000D03*
X177500000Y-31500000D03*
X207000000Y-70000000D03*
X183000000Y-37000000D03*
%TO.N,GP25*%
X248500000Y-32500000D03*
%TO.N,/CS_*%
X163000000Y-24000000D03*
X164000000Y-23000000D03*
%TO.N,/d1-*%
X114000000Y-22500000D03*
X115000000Y-21500000D03*
%TO.N,/DN*%
X174500000Y-15500000D03*
X175500000Y-12797792D03*
%TO.N,/DP*%
X179500000Y-15000000D03*
X176697792Y-12197792D03*
%TO.N,Net-(J1-CC2)*%
X109000000Y-21000000D03*
%TO.N,Net-(F1-Pad2)*%
X135000000Y-17500000D03*
X138000000Y-17500000D03*
%TO.N,Net-(J1-CC1)*%
X115250000Y-19750000D03*
X110500000Y-24500000D03*
%TO.N,GP22*%
X179500000Y-32500000D03*
X186000000Y-77500000D03*
X182000000Y-35000000D03*
X184000000Y-75500000D03*
%TO.N,GP26*%
X174500000Y-26500000D03*
X179500000Y-25000000D03*
%TD*%
%TO.N,GND*%
D18*
X198500000Y-18500000D02*
X207500000Y-27500000D01*
X199000000Y-17000000D02*
X198500000Y-17500000D01*
X198500000Y-17500000D02*
X198500000Y-18500000D01*
X201000000Y-17000000D02*
X199000000Y-17000000D01*
%TO.N,/DP*%
X199500000Y-18000000D02*
X203500000Y-18000000D01*
%TO.N,GND*%
X27000000Y-45500000D02*
X27000000Y-49000000D01*
%TO.N,+3V3*%
X31000000Y-34500000D02*
X31000000Y-45500000D01*
X28500000Y-32000000D02*
X31000000Y-34500000D01*
%TO.N,GND*%
X26000000Y-50000000D02*
X25000000Y-51000000D01*
X25000000Y-51000000D02*
X25000000Y-56500000D01*
X27000000Y-49000000D02*
X26000000Y-50000000D01*
X27000000Y-39880000D02*
X27000000Y-45500000D01*
X25000000Y-37880000D02*
X27000000Y-39880000D01*
X19920000Y-32800000D02*
X25000000Y-37880000D01*
X19920000Y-32080000D02*
X19920000Y-32800000D01*
%TO.N,GP25*%
X248500000Y-37620000D02*
X251380000Y-40500000D01*
X248500000Y-32500000D02*
X248500000Y-37620000D01*
%TO.N,+3V3*%
X255000000Y-35000000D02*
X249500000Y-35000000D01*
X256460000Y-36460000D02*
X255000000Y-35000000D01*
X256460000Y-40500000D02*
X256460000Y-36460000D01*
%TO.N,GND*%
X259000000Y-36500000D02*
X259000000Y-40500000D01*
X253500000Y-31000000D02*
X259000000Y-36500000D01*
X250000000Y-31000000D02*
X253500000Y-31000000D01*
%TO.N,+3V3*%
X249580000Y-35080000D02*
X249500000Y-35000000D01*
%TO.N,GND*%
X251000000Y-22500000D02*
X250000000Y-21500000D01*
X250000000Y-31000000D02*
X251000000Y-30000000D01*
X251000000Y-30000000D02*
X251000000Y-22500000D01*
X248000000Y-31000000D02*
X250000000Y-31000000D01*
X250000000Y-21500000D02*
X248500000Y-21500000D01*
X246880000Y-32120000D02*
X248000000Y-31000000D01*
X246000000Y-32120000D02*
X246880000Y-32120000D01*
X165500000Y-36000000D02*
X165500000Y-33000000D01*
%TO.N,+3V3*%
X170000000Y-34000000D02*
X170000000Y-36000000D01*
X134000000Y-29000000D02*
X146000000Y-29000000D01*
X131000000Y-32000000D02*
X134000000Y-29000000D01*
X28500000Y-32000000D02*
X131000000Y-32000000D01*
X146000000Y-29000000D02*
X148500000Y-26500000D01*
%TO.N,GND*%
X110525000Y-17525000D02*
X110525000Y-17025000D01*
X116000000Y-18000000D02*
X111000000Y-18000000D01*
X116475000Y-17525000D02*
X116000000Y-18000000D01*
X111000000Y-18000000D02*
X110525000Y-17525000D01*
X116475000Y-17025000D02*
X116475000Y-17525000D01*
%TO.N,/D2+*%
X113075000Y-15744239D02*
X113075000Y-15675000D01*
X113925000Y-16594239D02*
X113075000Y-15744239D01*
X113925000Y-17025000D02*
X113925000Y-16594239D01*
%TO.N,Net-(J1-CC2)*%
X106000000Y-18000000D02*
X109000000Y-21000000D01*
X106000000Y-17500000D02*
X106000000Y-18000000D01*
%TO.N,/XIN-*%
X171000000Y-43000000D02*
X172000000Y-44000000D01*
X166500000Y-43000000D02*
X171000000Y-43000000D01*
X164500000Y-41000000D02*
X166500000Y-43000000D01*
X164500000Y-34000000D02*
X164500000Y-41000000D01*
%TO.N,+3V3*%
X176750000Y-38750000D02*
X177500000Y-39500000D01*
%TO.N,GND*%
X139000000Y-25000000D02*
X140500000Y-25000000D01*
X122500000Y-21000000D02*
X135000000Y-21000000D01*
X135000000Y-21000000D02*
X139000000Y-25000000D01*
X121000000Y-19500000D02*
X122500000Y-21000000D01*
X207500000Y-28000000D02*
X207500000Y-27500000D01*
X205000000Y-30500000D02*
X207500000Y-28000000D01*
%TO.N,+3V3*%
X196000000Y-32000000D02*
X188000000Y-24000000D01*
%TO.N,GND*%
X166500000Y-39000000D02*
X165500000Y-38000000D01*
X166500000Y-41000000D02*
X166500000Y-39000000D01*
X167500000Y-42000000D02*
X166500000Y-41000000D01*
X170000000Y-42000000D02*
X167500000Y-42000000D01*
X172000000Y-40000000D02*
X170000000Y-42000000D01*
X172000000Y-36000000D02*
X172000000Y-40000000D01*
X175550000Y-33950000D02*
X174500000Y-35000000D01*
%TO.N,+1V1*%
X173674265Y-32825735D02*
X174000000Y-32500000D01*
X170230000Y-32825735D02*
X173674265Y-32825735D01*
%TO.N,+3V3*%
X177500000Y-39500000D02*
X183500000Y-39500000D01*
X173000000Y-35000000D02*
X176750000Y-38750000D01*
X171000000Y-35000000D02*
X173000000Y-35000000D01*
X183500000Y-39500000D02*
X188000000Y-35000000D01*
X188000000Y-35000000D02*
X188000000Y-24000000D01*
X170000000Y-34000000D02*
X171000000Y-35000000D01*
%TO.N,+1V1*%
X169325735Y-32825735D02*
X168500000Y-32000000D01*
X170230000Y-32825735D02*
X169325735Y-32825735D01*
X168500000Y-32000000D02*
X164000000Y-32000000D01*
%TO.N,GP6*%
X95517726Y-71482274D02*
X95517726Y-68500000D01*
X95000000Y-72000000D02*
X95517726Y-71482274D01*
%TO.N,+3V3*%
X167500000Y-26000000D02*
X160000000Y-26000000D01*
X198500000Y-34500000D02*
X196000000Y-32000000D01*
X168000000Y-25500000D02*
X167500000Y-26000000D01*
X169500000Y-25500000D02*
X168000000Y-25500000D01*
X238500000Y-33500000D02*
X240000000Y-32000000D01*
X238500000Y-35000000D02*
X238500000Y-33500000D01*
%TO.N,GP4*%
X192960000Y-115540000D02*
X193000000Y-115500000D01*
X159500000Y-36500000D02*
X154500000Y-36500000D01*
X187460000Y-115540000D02*
X192960000Y-115540000D01*
X230500000Y-78500000D02*
X236000000Y-78500000D01*
X153500000Y-27000000D02*
X162000000Y-27000000D01*
X154500000Y-36500000D02*
X152000000Y-34000000D01*
X152000000Y-34000000D02*
X152000000Y-28500000D01*
%TO.N,GP5*%
X74500000Y-72000000D02*
X74500000Y-69000000D01*
%TO.N,GP7*%
X117500000Y-72000000D02*
X117500000Y-68642856D01*
X117500000Y-68642856D02*
X117357144Y-68500000D01*
%TO.N,GP8*%
X143500000Y-80000000D02*
X143500000Y-75000000D01*
%TO.N,GP10*%
X180500000Y-30500000D02*
X183000000Y-28000000D01*
X163500000Y-31000000D02*
X164000000Y-30500000D01*
X164000000Y-30500000D02*
X180500000Y-30500000D01*
%TO.N,GND*%
X162500000Y-15000000D02*
X166000000Y-18500000D01*
X170000000Y-20500000D02*
X173342500Y-23842500D01*
X176000000Y-22500000D02*
X174685000Y-22500000D01*
X174685000Y-22500000D02*
X173342500Y-23842500D01*
X151500000Y-26140000D02*
X153515000Y-28155000D01*
X177437500Y-26562500D02*
X175845000Y-28155000D01*
X207500000Y-27500000D02*
X211000000Y-24000000D01*
X173342500Y-23842500D02*
X169030000Y-28155000D01*
X165500000Y-38000000D02*
X165500000Y-36000000D01*
X166000000Y-18500000D02*
X167500000Y-18500000D01*
X30500000Y-21500000D02*
X19920000Y-32080000D01*
X153515000Y-28155000D02*
X169030000Y-28155000D01*
X175845000Y-28155000D02*
X169030000Y-28155000D01*
%TO.N,Net-(U1-XOUT)*%
X169000000Y-38087500D02*
X169000000Y-34000000D01*
%TO.N,/RUN_*%
X159500000Y-35000000D02*
X154500000Y-35000000D01*
%TO.N,GP17*%
X178000000Y-37500000D02*
X176000000Y-35500000D01*
X167000000Y-79500000D02*
X167000000Y-76000000D01*
%TO.N,GP18*%
X179000000Y-38000000D02*
X179000000Y-34000000D01*
X179000000Y-34000000D02*
X176500000Y-31500000D01*
%TO.N,GP19*%
X207000000Y-70000000D02*
X207000000Y-65500000D01*
X183000000Y-37000000D02*
X177500000Y-31500000D01*
%TO.N,/CS_*%
X163000000Y-24000000D02*
X164000000Y-23000000D01*
%TO.N,/d1-*%
X115000000Y-21500000D02*
X114000000Y-22500000D01*
%TO.N,/DN*%
X175500000Y-12797792D02*
X175500000Y-14500000D01*
X175500000Y-14500000D02*
X174500000Y-15500000D01*
%TO.N,/DP*%
X176697792Y-12197792D02*
X179500000Y-15000000D01*
%TO.N,Net-(F1-Pad2)*%
X138000000Y-17500000D02*
X135000000Y-17500000D01*
%TO.N,Net-(J1-CC1)*%
X115250000Y-19750000D02*
X110500000Y-24500000D01*
%TO.N,GP22*%
X184000000Y-75500000D02*
X186000000Y-77500000D01*
X179500000Y-32500000D02*
X182000000Y-35000000D01*
%TO.N,GP26*%
X179500000Y-25000000D02*
X177500000Y-25000000D01*
X177500000Y-25000000D02*
X176000000Y-26500000D01*
X176000000Y-26500000D02*
X174500000Y-26500000D01*
%TO.N,/D2+*%
X112500000Y-20000000D02*
X109000000Y-20000000D01*
X109000000Y-20000000D02*
X107000000Y-18000000D01*
X107000000Y-14500000D02*
X107500000Y-14000000D01*
X107000000Y-18000000D02*
X107000000Y-14500000D01*
X113075000Y-15180026D02*
X113075000Y-15675000D01*
X111894974Y-14000000D02*
X113075000Y-15180026D01*
X107500000Y-14000000D02*
X111894974Y-14000000D01*
%TD*%
M02*
