%TF.GenerationSoftware,KiCad,Pcbnew,10.0.0*%
%TF.CreationDate,2026-04-08T14:11:59+02:00*%
%TF.ProjectId,FG_Controller,46475f43-6f6e-4747-926f-6c6c65722e6b,rev?*%
%TF.SameCoordinates,Original*%
%TF.FileFunction,Legend,Top*%
%TF.FilePolarity,Positive*%
%FSLAX46Y46*%
G04 Gerber Fmt 4.6, Leading zero omitted, Abs format (unit mm)*
G04 Created by KiCad (PCBNEW 10.0.0) date 2026-04-08 14:11:59*
%MOMM*%
%LPD*%
G01*
G04 APERTURE LIST*
%ADD10C,0.100000*%
%ADD11C,0.150000*%
%ADD12C,0.300000*%
%ADD13C,0.120000*%
G04 APERTURE END LIST*
D10*
X239767544Y-119565500D02*
X239767544Y-115565500D01*
X239767544Y-115565500D02*
X241291354Y-115565500D01*
X241291354Y-115565500D02*
X241672306Y-115755976D01*
X241672306Y-115755976D02*
X241862783Y-115946452D01*
X241862783Y-115946452D02*
X242053259Y-116327404D01*
X242053259Y-116327404D02*
X242053259Y-116898833D01*
X242053259Y-116898833D02*
X241862783Y-117279785D01*
X241862783Y-117279785D02*
X241672306Y-117470262D01*
X241672306Y-117470262D02*
X241291354Y-117660738D01*
X241291354Y-117660738D02*
X239767544Y-117660738D01*
X245291354Y-119375024D02*
X244910402Y-119565500D01*
X244910402Y-119565500D02*
X244148497Y-119565500D01*
X244148497Y-119565500D02*
X243767544Y-119375024D01*
X243767544Y-119375024D02*
X243577068Y-118994071D01*
X243577068Y-118994071D02*
X243577068Y-117470262D01*
X243577068Y-117470262D02*
X243767544Y-117089309D01*
X243767544Y-117089309D02*
X244148497Y-116898833D01*
X244148497Y-116898833D02*
X244910402Y-116898833D01*
X244910402Y-116898833D02*
X245291354Y-117089309D01*
X245291354Y-117089309D02*
X245481830Y-117470262D01*
X245481830Y-117470262D02*
X245481830Y-117851214D01*
X245481830Y-117851214D02*
X243577068Y-118232166D01*
X248910401Y-119565500D02*
X248910401Y-117470262D01*
X248910401Y-117470262D02*
X248719925Y-117089309D01*
X248719925Y-117089309D02*
X248338973Y-116898833D01*
X248338973Y-116898833D02*
X247577068Y-116898833D01*
X247577068Y-116898833D02*
X247196115Y-117089309D01*
X248910401Y-119375024D02*
X248529449Y-119565500D01*
X248529449Y-119565500D02*
X247577068Y-119565500D01*
X247577068Y-119565500D02*
X247196115Y-119375024D01*
X247196115Y-119375024D02*
X247005639Y-118994071D01*
X247005639Y-118994071D02*
X247005639Y-118613119D01*
X247005639Y-118613119D02*
X247196115Y-118232166D01*
X247196115Y-118232166D02*
X247577068Y-118041690D01*
X247577068Y-118041690D02*
X248529449Y-118041690D01*
X248529449Y-118041690D02*
X248910401Y-117851214D01*
X250815163Y-119565500D02*
X250815163Y-116898833D01*
X250815163Y-117660738D02*
X251005640Y-117279785D01*
X251005640Y-117279785D02*
X251196116Y-117089309D01*
X251196116Y-117089309D02*
X251577068Y-116898833D01*
X251577068Y-116898833D02*
X251958021Y-116898833D01*
X253862782Y-119565500D02*
X253481830Y-119375024D01*
X253481830Y-119375024D02*
X253291353Y-118994071D01*
X253291353Y-118994071D02*
X253291353Y-115565500D01*
X257862782Y-115565500D02*
X259196115Y-119565500D01*
X259196115Y-119565500D02*
X260529449Y-115565500D01*
X262624686Y-115565500D02*
X263005639Y-115565500D01*
X263005639Y-115565500D02*
X263386591Y-115755976D01*
X263386591Y-115755976D02*
X263577067Y-115946452D01*
X263577067Y-115946452D02*
X263767543Y-116327404D01*
X263767543Y-116327404D02*
X263958020Y-117089309D01*
X263958020Y-117089309D02*
X263958020Y-118041690D01*
X263958020Y-118041690D02*
X263767543Y-118803595D01*
X263767543Y-118803595D02*
X263577067Y-119184547D01*
X263577067Y-119184547D02*
X263386591Y-119375024D01*
X263386591Y-119375024D02*
X263005639Y-119565500D01*
X263005639Y-119565500D02*
X262624686Y-119565500D01*
X262624686Y-119565500D02*
X262243734Y-119375024D01*
X262243734Y-119375024D02*
X262053258Y-119184547D01*
X262053258Y-119184547D02*
X261862781Y-118803595D01*
X261862781Y-118803595D02*
X261672305Y-118041690D01*
X261672305Y-118041690D02*
X261672305Y-117089309D01*
X261672305Y-117089309D02*
X261862781Y-116327404D01*
X261862781Y-116327404D02*
X262053258Y-115946452D01*
X262053258Y-115946452D02*
X262243734Y-115755976D01*
X262243734Y-115755976D02*
X262624686Y-115565500D01*
X265672305Y-119184547D02*
X265862782Y-119375024D01*
X265862782Y-119375024D02*
X265672305Y-119565500D01*
X265672305Y-119565500D02*
X265481829Y-119375024D01*
X265481829Y-119375024D02*
X265672305Y-119184547D01*
X265672305Y-119184547D02*
X265672305Y-119565500D01*
X269672306Y-119565500D02*
X267386591Y-119565500D01*
X268529448Y-119565500D02*
X268529448Y-115565500D01*
X268529448Y-115565500D02*
X268148496Y-116136928D01*
X268148496Y-116136928D02*
X267767544Y-116517881D01*
X267767544Y-116517881D02*
X267386591Y-116708357D01*
X205862780Y-126005276D02*
X205862780Y-122005276D01*
X205862780Y-122005276D02*
X207196114Y-124862419D01*
X207196114Y-124862419D02*
X208529447Y-122005276D01*
X208529447Y-122005276D02*
X208529447Y-126005276D01*
X210434209Y-123910038D02*
X211767543Y-123910038D01*
X212338971Y-126005276D02*
X210434209Y-126005276D01*
X210434209Y-126005276D02*
X210434209Y-122005276D01*
X210434209Y-122005276D02*
X212338971Y-122005276D01*
X216338972Y-126005276D02*
X215005638Y-124100514D01*
X214053257Y-126005276D02*
X214053257Y-122005276D01*
X214053257Y-122005276D02*
X215577067Y-122005276D01*
X215577067Y-122005276D02*
X215958019Y-122195752D01*
X215958019Y-122195752D02*
X216148496Y-122386228D01*
X216148496Y-122386228D02*
X216338972Y-122767180D01*
X216338972Y-122767180D02*
X216338972Y-123338609D01*
X216338972Y-123338609D02*
X216148496Y-123719561D01*
X216148496Y-123719561D02*
X215958019Y-123910038D01*
X215958019Y-123910038D02*
X215577067Y-124100514D01*
X215577067Y-124100514D02*
X214053257Y-124100514D01*
X219958019Y-126005276D02*
X218053257Y-126005276D01*
X218053257Y-126005276D02*
X218053257Y-122005276D01*
X221291352Y-123910038D02*
X222624686Y-123910038D01*
X223196114Y-126005276D02*
X221291352Y-126005276D01*
X221291352Y-126005276D02*
X221291352Y-122005276D01*
X221291352Y-122005276D02*
X223196114Y-122005276D01*
X224338972Y-122005276D02*
X226624686Y-122005276D01*
X225481829Y-126005276D02*
X225481829Y-122005276D01*
X232338972Y-123910038D02*
X232910400Y-124100514D01*
X232910400Y-124100514D02*
X233100877Y-124290990D01*
X233100877Y-124290990D02*
X233291353Y-124671942D01*
X233291353Y-124671942D02*
X233291353Y-125243371D01*
X233291353Y-125243371D02*
X233100877Y-125624323D01*
X233100877Y-125624323D02*
X232910400Y-125814800D01*
X232910400Y-125814800D02*
X232529448Y-126005276D01*
X232529448Y-126005276D02*
X231005638Y-126005276D01*
X231005638Y-126005276D02*
X231005638Y-122005276D01*
X231005638Y-122005276D02*
X232338972Y-122005276D01*
X232338972Y-122005276D02*
X232719924Y-122195752D01*
X232719924Y-122195752D02*
X232910400Y-122386228D01*
X232910400Y-122386228D02*
X233100877Y-122767180D01*
X233100877Y-122767180D02*
X233100877Y-123148133D01*
X233100877Y-123148133D02*
X232910400Y-123529085D01*
X232910400Y-123529085D02*
X232719924Y-123719561D01*
X232719924Y-123719561D02*
X232338972Y-123910038D01*
X232338972Y-123910038D02*
X231005638Y-123910038D01*
X236719924Y-126005276D02*
X236719924Y-123910038D01*
X236719924Y-123910038D02*
X236529448Y-123529085D01*
X236529448Y-123529085D02*
X236148496Y-123338609D01*
X236148496Y-123338609D02*
X235386591Y-123338609D01*
X235386591Y-123338609D02*
X235005638Y-123529085D01*
X236719924Y-125814800D02*
X236338972Y-126005276D01*
X236338972Y-126005276D02*
X235386591Y-126005276D01*
X235386591Y-126005276D02*
X235005638Y-125814800D01*
X235005638Y-125814800D02*
X234815162Y-125433847D01*
X234815162Y-125433847D02*
X234815162Y-125052895D01*
X234815162Y-125052895D02*
X235005638Y-124671942D01*
X235005638Y-124671942D02*
X235386591Y-124481466D01*
X235386591Y-124481466D02*
X236338972Y-124481466D01*
X236338972Y-124481466D02*
X236719924Y-124290990D01*
X238434210Y-125814800D02*
X238815163Y-126005276D01*
X238815163Y-126005276D02*
X239577067Y-126005276D01*
X239577067Y-126005276D02*
X239958020Y-125814800D01*
X239958020Y-125814800D02*
X240148496Y-125433847D01*
X240148496Y-125433847D02*
X240148496Y-125243371D01*
X240148496Y-125243371D02*
X239958020Y-124862419D01*
X239958020Y-124862419D02*
X239577067Y-124671942D01*
X239577067Y-124671942D02*
X239005639Y-124671942D01*
X239005639Y-124671942D02*
X238624686Y-124481466D01*
X238624686Y-124481466D02*
X238434210Y-124100514D01*
X238434210Y-124100514D02*
X238434210Y-123910038D01*
X238434210Y-123910038D02*
X238624686Y-123529085D01*
X238624686Y-123529085D02*
X239005639Y-123338609D01*
X239005639Y-123338609D02*
X239577067Y-123338609D01*
X239577067Y-123338609D02*
X239958020Y-123529085D01*
X241291353Y-123338609D02*
X242815162Y-123338609D01*
X241862781Y-122005276D02*
X241862781Y-125433847D01*
X241862781Y-125433847D02*
X242053258Y-125814800D01*
X242053258Y-125814800D02*
X242434210Y-126005276D01*
X242434210Y-126005276D02*
X242815162Y-126005276D01*
X244148495Y-126005276D02*
X244148495Y-123338609D01*
X244148495Y-122005276D02*
X243958019Y-122195752D01*
X243958019Y-122195752D02*
X244148495Y-122386228D01*
X244148495Y-122386228D02*
X244338972Y-122195752D01*
X244338972Y-122195752D02*
X244148495Y-122005276D01*
X244148495Y-122005276D02*
X244148495Y-122386228D01*
X247577067Y-125814800D02*
X247196115Y-126005276D01*
X247196115Y-126005276D02*
X246434210Y-126005276D01*
X246434210Y-126005276D02*
X246053257Y-125814800D01*
X246053257Y-125814800D02*
X245862781Y-125433847D01*
X245862781Y-125433847D02*
X245862781Y-123910038D01*
X245862781Y-123910038D02*
X246053257Y-123529085D01*
X246053257Y-123529085D02*
X246434210Y-123338609D01*
X246434210Y-123338609D02*
X247196115Y-123338609D01*
X247196115Y-123338609D02*
X247577067Y-123529085D01*
X247577067Y-123529085D02*
X247767543Y-123910038D01*
X247767543Y-123910038D02*
X247767543Y-124290990D01*
X247767543Y-124290990D02*
X245862781Y-124671942D01*
X249481828Y-123338609D02*
X249481828Y-126005276D01*
X249481828Y-123719561D02*
X249672305Y-123529085D01*
X249672305Y-123529085D02*
X250053257Y-123338609D01*
X250053257Y-123338609D02*
X250624686Y-123338609D01*
X250624686Y-123338609D02*
X251005638Y-123529085D01*
X251005638Y-123529085D02*
X251196114Y-123910038D01*
X251196114Y-123910038D02*
X251196114Y-126005276D01*
X255958019Y-122386228D02*
X256148495Y-122195752D01*
X256148495Y-122195752D02*
X256529448Y-122005276D01*
X256529448Y-122005276D02*
X257481829Y-122005276D01*
X257481829Y-122005276D02*
X257862781Y-122195752D01*
X257862781Y-122195752D02*
X258053257Y-122386228D01*
X258053257Y-122386228D02*
X258243734Y-122767180D01*
X258243734Y-122767180D02*
X258243734Y-123148133D01*
X258243734Y-123148133D02*
X258053257Y-123719561D01*
X258053257Y-123719561D02*
X255767543Y-126005276D01*
X255767543Y-126005276D02*
X258243734Y-126005276D01*
X260719924Y-122005276D02*
X261100877Y-122005276D01*
X261100877Y-122005276D02*
X261481829Y-122195752D01*
X261481829Y-122195752D02*
X261672305Y-122386228D01*
X261672305Y-122386228D02*
X261862781Y-122767180D01*
X261862781Y-122767180D02*
X262053258Y-123529085D01*
X262053258Y-123529085D02*
X262053258Y-124481466D01*
X262053258Y-124481466D02*
X261862781Y-125243371D01*
X261862781Y-125243371D02*
X261672305Y-125624323D01*
X261672305Y-125624323D02*
X261481829Y-125814800D01*
X261481829Y-125814800D02*
X261100877Y-126005276D01*
X261100877Y-126005276D02*
X260719924Y-126005276D01*
X260719924Y-126005276D02*
X260338972Y-125814800D01*
X260338972Y-125814800D02*
X260148496Y-125624323D01*
X260148496Y-125624323D02*
X259958019Y-125243371D01*
X259958019Y-125243371D02*
X259767543Y-124481466D01*
X259767543Y-124481466D02*
X259767543Y-123529085D01*
X259767543Y-123529085D02*
X259958019Y-122767180D01*
X259958019Y-122767180D02*
X260148496Y-122386228D01*
X260148496Y-122386228D02*
X260338972Y-122195752D01*
X260338972Y-122195752D02*
X260719924Y-122005276D01*
X263577067Y-122386228D02*
X263767543Y-122195752D01*
X263767543Y-122195752D02*
X264148496Y-122005276D01*
X264148496Y-122005276D02*
X265100877Y-122005276D01*
X265100877Y-122005276D02*
X265481829Y-122195752D01*
X265481829Y-122195752D02*
X265672305Y-122386228D01*
X265672305Y-122386228D02*
X265862782Y-122767180D01*
X265862782Y-122767180D02*
X265862782Y-123148133D01*
X265862782Y-123148133D02*
X265672305Y-123719561D01*
X265672305Y-123719561D02*
X263386591Y-126005276D01*
X263386591Y-126005276D02*
X265862782Y-126005276D01*
X269291353Y-122005276D02*
X268529448Y-122005276D01*
X268529448Y-122005276D02*
X268148496Y-122195752D01*
X268148496Y-122195752D02*
X267958020Y-122386228D01*
X267958020Y-122386228D02*
X267577067Y-122957657D01*
X267577067Y-122957657D02*
X267386591Y-123719561D01*
X267386591Y-123719561D02*
X267386591Y-125243371D01*
X267386591Y-125243371D02*
X267577067Y-125624323D01*
X267577067Y-125624323D02*
X267767544Y-125814800D01*
X267767544Y-125814800D02*
X268148496Y-126005276D01*
X268148496Y-126005276D02*
X268910401Y-126005276D01*
X268910401Y-126005276D02*
X269291353Y-125814800D01*
X269291353Y-125814800D02*
X269481829Y-125624323D01*
X269481829Y-125624323D02*
X269672306Y-125243371D01*
X269672306Y-125243371D02*
X269672306Y-124290990D01*
X269672306Y-124290990D02*
X269481829Y-123910038D01*
X269481829Y-123910038D02*
X269291353Y-123719561D01*
X269291353Y-123719561D02*
X268910401Y-123529085D01*
X268910401Y-123529085D02*
X268148496Y-123529085D01*
X268148496Y-123529085D02*
X267767544Y-123719561D01*
X267767544Y-123719561D02*
X267577067Y-123910038D01*
X267577067Y-123910038D02*
X267386591Y-124290990D01*
D11*
X125465996Y-66260877D02*
X125934952Y-66343566D01*
X125322591Y-66525712D02*
X125824508Y-65598787D01*
X125824508Y-65598787D02*
X125979129Y-66641478D01*
X126823250Y-66790319D02*
X126260503Y-66691092D01*
X126541877Y-66740705D02*
X126715525Y-65755898D01*
X126715525Y-65755898D02*
X126596927Y-65880047D01*
X126596927Y-65880047D02*
X126486597Y-65957300D01*
X126486597Y-65957300D02*
X126384537Y-65987658D01*
X105053545Y-60630758D02*
X105522501Y-60713447D01*
X104910140Y-60895593D02*
X105412057Y-59968668D01*
X105412057Y-59968668D02*
X105566678Y-61011359D01*
X106005162Y-60169956D02*
X106060327Y-60131330D01*
X106060327Y-60131330D02*
X106162387Y-60100972D01*
X106162387Y-60100972D02*
X106396865Y-60142317D01*
X106396865Y-60142317D02*
X106482387Y-60205750D01*
X106482387Y-60205750D02*
X106521014Y-60260915D01*
X106521014Y-60260915D02*
X106551371Y-60362975D01*
X106551371Y-60362975D02*
X106534834Y-60456766D01*
X106534834Y-60456766D02*
X106463131Y-60589184D01*
X106463131Y-60589184D02*
X105801156Y-61052704D01*
X105801156Y-61052704D02*
X106410799Y-61160200D01*
X83214127Y-57795306D02*
X83683083Y-57877995D01*
X83070722Y-58060141D02*
X83572639Y-57133216D01*
X83572639Y-57133216D02*
X83727260Y-58175907D01*
X84135386Y-57232444D02*
X84745029Y-57339940D01*
X84745029Y-57339940D02*
X84350608Y-57657223D01*
X84350608Y-57657223D02*
X84491295Y-57682030D01*
X84491295Y-57682030D02*
X84576817Y-57745463D01*
X84576817Y-57745463D02*
X84615444Y-57800628D01*
X84615444Y-57800628D02*
X84645802Y-57902688D01*
X84645802Y-57902688D02*
X84604457Y-58137166D01*
X84604457Y-58137166D02*
X84541023Y-58222688D01*
X84541023Y-58222688D02*
X84485859Y-58261315D01*
X84485859Y-58261315D02*
X84383799Y-58291672D01*
X84383799Y-58291672D02*
X84102425Y-58242059D01*
X84102425Y-58242059D02*
X84016903Y-58178625D01*
X84016903Y-58178625D02*
X83978276Y-58123461D01*
X62330975Y-58174749D02*
X62799931Y-58257438D01*
X62187570Y-58439584D02*
X62689487Y-57512659D01*
X62689487Y-57512659D02*
X62844108Y-58555350D01*
X63710203Y-58031115D02*
X63594438Y-58687653D01*
X63541877Y-57614605D02*
X63183365Y-58276694D01*
X63183365Y-58276694D02*
X63793007Y-58384191D01*
X122285915Y-85848141D02*
X122418333Y-85919844D01*
X122418333Y-85919844D02*
X122456960Y-85975008D01*
X122456960Y-85975008D02*
X122487318Y-86077068D01*
X122487318Y-86077068D02*
X122462511Y-86217755D01*
X122462511Y-86217755D02*
X122399077Y-86303277D01*
X122399077Y-86303277D02*
X122343913Y-86341904D01*
X122343913Y-86341904D02*
X122241852Y-86372262D01*
X122241852Y-86372262D02*
X121866688Y-86306110D01*
X121866688Y-86306110D02*
X122040336Y-85321302D01*
X122040336Y-85321302D02*
X122368605Y-85379185D01*
X122368605Y-85379185D02*
X122454127Y-85442619D01*
X122454127Y-85442619D02*
X122492754Y-85497783D01*
X122492754Y-85497783D02*
X122523112Y-85599843D01*
X122523112Y-85599843D02*
X122506574Y-85693634D01*
X122506574Y-85693634D02*
X122443140Y-85779157D01*
X122443140Y-85779157D02*
X122387976Y-85817783D01*
X122387976Y-85817783D02*
X122285915Y-85848141D01*
X122285915Y-85848141D02*
X121957646Y-85790258D01*
X123367347Y-86570717D02*
X122804600Y-86471489D01*
X123085973Y-86521103D02*
X123259622Y-85536295D01*
X123259622Y-85536295D02*
X123141023Y-85660444D01*
X123141023Y-85660444D02*
X123030694Y-85737697D01*
X123030694Y-85737697D02*
X122928634Y-85768055D01*
X101847963Y-80132291D02*
X101980381Y-80203994D01*
X101980381Y-80203994D02*
X102019008Y-80259158D01*
X102019008Y-80259158D02*
X102049366Y-80361218D01*
X102049366Y-80361218D02*
X102024559Y-80501905D01*
X102024559Y-80501905D02*
X101961125Y-80587427D01*
X101961125Y-80587427D02*
X101905961Y-80626054D01*
X101905961Y-80626054D02*
X101803900Y-80656412D01*
X101803900Y-80656412D02*
X101428736Y-80590260D01*
X101428736Y-80590260D02*
X101602384Y-79605452D01*
X101602384Y-79605452D02*
X101930653Y-79663335D01*
X101930653Y-79663335D02*
X102016175Y-79726769D01*
X102016175Y-79726769D02*
X102054802Y-79781933D01*
X102054802Y-79781933D02*
X102085160Y-79883993D01*
X102085160Y-79883993D02*
X102068622Y-79977784D01*
X102068622Y-79977784D02*
X102005188Y-80063307D01*
X102005188Y-80063307D02*
X101950024Y-80101933D01*
X101950024Y-80101933D02*
X101847963Y-80132291D01*
X101847963Y-80132291D02*
X101519694Y-80074408D01*
X102523758Y-79864623D02*
X102578923Y-79825996D01*
X102578923Y-79825996D02*
X102680983Y-79795638D01*
X102680983Y-79795638D02*
X102915461Y-79836983D01*
X102915461Y-79836983D02*
X103000983Y-79900417D01*
X103000983Y-79900417D02*
X103039610Y-79955581D01*
X103039610Y-79955581D02*
X103069967Y-80057641D01*
X103069967Y-80057641D02*
X103053429Y-80151433D01*
X103053429Y-80151433D02*
X102981727Y-80283851D01*
X102981727Y-80283851D02*
X102319752Y-80747370D01*
X102319752Y-80747370D02*
X102929395Y-80854867D01*
X80087329Y-77310731D02*
X80219747Y-77382434D01*
X80219747Y-77382434D02*
X80258374Y-77437598D01*
X80258374Y-77437598D02*
X80288732Y-77539658D01*
X80288732Y-77539658D02*
X80263925Y-77680345D01*
X80263925Y-77680345D02*
X80200491Y-77765867D01*
X80200491Y-77765867D02*
X80145327Y-77804494D01*
X80145327Y-77804494D02*
X80043266Y-77834852D01*
X80043266Y-77834852D02*
X79668102Y-77768700D01*
X79668102Y-77768700D02*
X79841750Y-76783892D01*
X79841750Y-76783892D02*
X80170019Y-76841775D01*
X80170019Y-76841775D02*
X80255541Y-76905209D01*
X80255541Y-76905209D02*
X80294168Y-76960373D01*
X80294168Y-76960373D02*
X80324526Y-77062433D01*
X80324526Y-77062433D02*
X80307988Y-77156224D01*
X80307988Y-77156224D02*
X80244554Y-77241747D01*
X80244554Y-77241747D02*
X80189390Y-77280373D01*
X80189390Y-77280373D02*
X80087329Y-77310731D01*
X80087329Y-77310731D02*
X79759060Y-77252848D01*
X80732766Y-76941003D02*
X81342409Y-77048499D01*
X81342409Y-77048499D02*
X80947988Y-77365781D01*
X80947988Y-77365781D02*
X81088675Y-77390588D01*
X81088675Y-77390588D02*
X81174197Y-77454022D01*
X81174197Y-77454022D02*
X81212824Y-77509186D01*
X81212824Y-77509186D02*
X81243182Y-77611246D01*
X81243182Y-77611246D02*
X81201837Y-77845724D01*
X81201837Y-77845724D02*
X81138403Y-77931247D01*
X81138403Y-77931247D02*
X81083239Y-77969873D01*
X81083239Y-77969873D02*
X80981179Y-78000231D01*
X80981179Y-78000231D02*
X80699805Y-77950617D01*
X80699805Y-77950617D02*
X80614283Y-77887184D01*
X80614283Y-77887184D02*
X80575656Y-77832019D01*
X59204177Y-77690174D02*
X59336595Y-77761877D01*
X59336595Y-77761877D02*
X59375222Y-77817041D01*
X59375222Y-77817041D02*
X59405580Y-77919101D01*
X59405580Y-77919101D02*
X59380773Y-78059788D01*
X59380773Y-78059788D02*
X59317339Y-78145310D01*
X59317339Y-78145310D02*
X59262175Y-78183937D01*
X59262175Y-78183937D02*
X59160114Y-78214295D01*
X59160114Y-78214295D02*
X58784950Y-78148143D01*
X58784950Y-78148143D02*
X58958598Y-77163335D01*
X58958598Y-77163335D02*
X59286867Y-77221218D01*
X59286867Y-77221218D02*
X59372389Y-77284652D01*
X59372389Y-77284652D02*
X59411016Y-77339816D01*
X59411016Y-77339816D02*
X59441374Y-77441876D01*
X59441374Y-77441876D02*
X59424836Y-77535667D01*
X59424836Y-77535667D02*
X59361402Y-77621190D01*
X59361402Y-77621190D02*
X59306238Y-77659816D01*
X59306238Y-77659816D02*
X59204177Y-77690174D01*
X59204177Y-77690174D02*
X58875908Y-77632291D01*
X60307583Y-77739673D02*
X60191818Y-78396212D01*
X60139257Y-77323164D02*
X59780744Y-77985253D01*
X59780744Y-77985253D02*
X60390387Y-78092749D01*
X193268329Y-85371814D02*
X193094680Y-84387007D01*
X193094680Y-84387007D02*
X193329158Y-84345662D01*
X193329158Y-84345662D02*
X193478114Y-84367751D01*
X193478114Y-84367751D02*
X193588443Y-84445004D01*
X193588443Y-84445004D02*
X193651877Y-84530526D01*
X193651877Y-84530526D02*
X193731848Y-84709840D01*
X193731848Y-84709840D02*
X193756655Y-84850526D01*
X193756655Y-84850526D02*
X193742835Y-85046378D01*
X193742835Y-85046378D02*
X193712478Y-85148438D01*
X193712478Y-85148438D02*
X193635224Y-85258767D01*
X193635224Y-85258767D02*
X193502807Y-85330470D01*
X193502807Y-85330470D02*
X193268329Y-85371814D01*
X194267071Y-84180283D02*
X194454653Y-84147207D01*
X194454653Y-84147207D02*
X194556713Y-84177564D01*
X194556713Y-84177564D02*
X194667042Y-84254818D01*
X194667042Y-84254818D02*
X194747014Y-84434131D01*
X194747014Y-84434131D02*
X194804896Y-84762400D01*
X194804896Y-84762400D02*
X194791077Y-84958252D01*
X194791077Y-84958252D02*
X194713823Y-85068581D01*
X194713823Y-85068581D02*
X194628301Y-85132015D01*
X194628301Y-85132015D02*
X194440719Y-85165090D01*
X194440719Y-85165090D02*
X194338659Y-85134733D01*
X194338659Y-85134733D02*
X194228329Y-85057479D01*
X194228329Y-85057479D02*
X194148358Y-84878166D01*
X194148358Y-84878166D02*
X194090475Y-84549897D01*
X194090475Y-84549897D02*
X194104295Y-84354045D01*
X194104295Y-84354045D02*
X194181548Y-84243716D01*
X194181548Y-84243716D02*
X194267071Y-84180283D01*
X195017400Y-84047979D02*
X195425526Y-84991442D01*
X195425526Y-84991442D02*
X195489074Y-84254932D01*
X195489074Y-84254932D02*
X195800691Y-84925290D01*
X195800691Y-84925290D02*
X195861521Y-83899138D01*
X196410334Y-84817794D02*
X196236686Y-83832986D01*
X196236686Y-83832986D02*
X196973081Y-84718566D01*
X196973081Y-84718566D02*
X196799433Y-83733759D01*
X197957889Y-84544918D02*
X197395142Y-84644146D01*
X197676515Y-84594532D02*
X197502867Y-83609724D01*
X197502867Y-83609724D02*
X197433883Y-83766949D01*
X197433883Y-83766949D02*
X197356630Y-83877278D01*
X197356630Y-83877278D02*
X197271107Y-83940712D01*
X203666666Y-17934819D02*
X203666666Y-18649104D01*
X203666666Y-18649104D02*
X203619047Y-18791961D01*
X203619047Y-18791961D02*
X203523809Y-18887200D01*
X203523809Y-18887200D02*
X203380952Y-18934819D01*
X203380952Y-18934819D02*
X203285714Y-18934819D01*
X204095238Y-18030057D02*
X204142857Y-17982438D01*
X204142857Y-17982438D02*
X204238095Y-17934819D01*
X204238095Y-17934819D02*
X204476190Y-17934819D01*
X204476190Y-17934819D02*
X204571428Y-17982438D01*
X204571428Y-17982438D02*
X204619047Y-18030057D01*
X204619047Y-18030057D02*
X204666666Y-18125295D01*
X204666666Y-18125295D02*
X204666666Y-18220533D01*
X204666666Y-18220533D02*
X204619047Y-18363390D01*
X204619047Y-18363390D02*
X204047619Y-18934819D01*
X204047619Y-18934819D02*
X204666666Y-18934819D01*
X174762384Y-88634912D02*
X174293428Y-88717601D01*
X174293428Y-88717601D02*
X174119780Y-87732793D01*
X174999695Y-88061177D02*
X175327964Y-88003294D01*
X175559609Y-88494339D02*
X175090653Y-88577029D01*
X175090653Y-88577029D02*
X174917005Y-87592221D01*
X174917005Y-87592221D02*
X175385961Y-87509532D01*
X176218981Y-87846184D02*
X175890711Y-87904067D01*
X175981670Y-88419919D02*
X175808022Y-87435111D01*
X175808022Y-87435111D02*
X176276978Y-87352421D01*
X176511456Y-87311076D02*
X177074203Y-87211849D01*
X176966478Y-88246270D02*
X176792830Y-87261463D01*
X178091973Y-88047815D02*
X177529225Y-88147043D01*
X177810599Y-88097429D02*
X177636951Y-87112621D01*
X177636951Y-87112621D02*
X177567967Y-87269846D01*
X177567967Y-87269846D02*
X177490713Y-87380175D01*
X177490713Y-87380175D02*
X177405191Y-87443609D01*
X212952292Y-81901000D02*
X212541333Y-81489927D01*
X212389544Y-82000228D02*
X212215896Y-81015420D01*
X212215896Y-81015420D02*
X212591061Y-80949268D01*
X212591061Y-80949268D02*
X212693121Y-80979626D01*
X212693121Y-80979626D02*
X212748286Y-81018253D01*
X212748286Y-81018253D02*
X212811719Y-81103775D01*
X212811719Y-81103775D02*
X212836526Y-81244462D01*
X212836526Y-81244462D02*
X212806168Y-81346522D01*
X212806168Y-81346522D02*
X212767542Y-81401686D01*
X212767542Y-81401686D02*
X212682019Y-81465120D01*
X212682019Y-81465120D02*
X212306855Y-81531272D01*
X213374352Y-81826580D02*
X213200704Y-80841772D01*
X214193780Y-80715019D02*
X214091720Y-80684662D01*
X214091720Y-80684662D02*
X213951033Y-80709469D01*
X213951033Y-80709469D02*
X213818615Y-80781171D01*
X213818615Y-80781171D02*
X213741362Y-80891500D01*
X213741362Y-80891500D02*
X213711004Y-80993560D01*
X213711004Y-80993560D02*
X213697184Y-81189412D01*
X213697184Y-81189412D02*
X213721991Y-81330099D01*
X213721991Y-81330099D02*
X213801963Y-81509412D01*
X213801963Y-81509412D02*
X213865396Y-81594934D01*
X213865396Y-81594934D02*
X213975725Y-81672188D01*
X213975725Y-81672188D02*
X214124681Y-81694276D01*
X214124681Y-81694276D02*
X214218472Y-81677738D01*
X214218472Y-81677738D02*
X214350890Y-81606036D01*
X214350890Y-81606036D02*
X214389517Y-81550871D01*
X214389517Y-81550871D02*
X214331634Y-81222602D01*
X214331634Y-81222602D02*
X214144052Y-81255678D01*
X214828115Y-81570242D02*
X214654467Y-80585434D01*
X214737157Y-81054390D02*
X215299904Y-80955163D01*
X215390863Y-81471014D02*
X215217214Y-80486207D01*
X215545484Y-80428324D02*
X216108231Y-80329096D01*
X216000505Y-81363518D02*
X215826857Y-80378710D01*
X217126000Y-81165063D02*
X216563253Y-81264290D01*
X216844627Y-81214677D02*
X216670978Y-80229869D01*
X216670978Y-80229869D02*
X216601994Y-80387094D01*
X216601994Y-80387094D02*
X216524741Y-80497423D01*
X216524741Y-80497423D02*
X216439219Y-80560856D01*
X168268095Y-22779819D02*
X168268095Y-23589342D01*
X168268095Y-23589342D02*
X168315714Y-23684580D01*
X168315714Y-23684580D02*
X168363333Y-23732200D01*
X168363333Y-23732200D02*
X168458571Y-23779819D01*
X168458571Y-23779819D02*
X168649047Y-23779819D01*
X168649047Y-23779819D02*
X168744285Y-23732200D01*
X168744285Y-23732200D02*
X168791904Y-23684580D01*
X168791904Y-23684580D02*
X168839523Y-23589342D01*
X168839523Y-23589342D02*
X168839523Y-22779819D01*
X169839523Y-23779819D02*
X169268095Y-23779819D01*
X169553809Y-23779819D02*
X169553809Y-22779819D01*
X169553809Y-22779819D02*
X169458571Y-22922676D01*
X169458571Y-22922676D02*
X169363333Y-23017914D01*
X169363333Y-23017914D02*
X169268095Y-23065533D01*
X162819819Y-20949404D02*
X163629342Y-20949404D01*
X163629342Y-20949404D02*
X163724580Y-20901785D01*
X163724580Y-20901785D02*
X163772200Y-20854166D01*
X163772200Y-20854166D02*
X163819819Y-20758928D01*
X163819819Y-20758928D02*
X163819819Y-20568452D01*
X163819819Y-20568452D02*
X163772200Y-20473214D01*
X163772200Y-20473214D02*
X163724580Y-20425595D01*
X163724580Y-20425595D02*
X163629342Y-20377976D01*
X163629342Y-20377976D02*
X162819819Y-20377976D01*
X163153152Y-19473214D02*
X163819819Y-19473214D01*
X162772200Y-19711309D02*
X163486485Y-19949404D01*
X163486485Y-19949404D02*
X163486485Y-19330357D01*
X190688658Y-65010434D02*
X190829231Y-65807659D01*
X190829231Y-65807659D02*
X190892664Y-65893181D01*
X190892664Y-65893181D02*
X190947829Y-65931808D01*
X190947829Y-65931808D02*
X191049889Y-65962165D01*
X191049889Y-65962165D02*
X191237471Y-65929090D01*
X191237471Y-65929090D02*
X191322994Y-65865656D01*
X191322994Y-65865656D02*
X191361620Y-65810492D01*
X191361620Y-65810492D02*
X191391978Y-65708431D01*
X191391978Y-65708431D02*
X191251406Y-64911206D01*
X191894010Y-65813324D02*
X191720362Y-64828516D01*
X191720362Y-64828516D02*
X192095526Y-64762365D01*
X192095526Y-64762365D02*
X192197587Y-64792722D01*
X192197587Y-64792722D02*
X192252751Y-64831349D01*
X192252751Y-64831349D02*
X192316185Y-64916871D01*
X192316185Y-64916871D02*
X192340992Y-65057558D01*
X192340992Y-65057558D02*
X192310634Y-65159618D01*
X192310634Y-65159618D02*
X192272007Y-65214783D01*
X192272007Y-65214783D02*
X192186485Y-65278216D01*
X192186485Y-65278216D02*
X191811320Y-65344368D01*
X193394669Y-65548717D02*
X192831922Y-65647945D01*
X193113296Y-65598331D02*
X192939647Y-64613523D01*
X192939647Y-64613523D02*
X192870663Y-64770748D01*
X192870663Y-64770748D02*
X192793410Y-64881077D01*
X192793410Y-64881077D02*
X192707887Y-64944511D01*
X148488095Y-115784819D02*
X148488095Y-116594342D01*
X148488095Y-116594342D02*
X148535714Y-116689580D01*
X148535714Y-116689580D02*
X148583333Y-116737200D01*
X148583333Y-116737200D02*
X148678571Y-116784819D01*
X148678571Y-116784819D02*
X148869047Y-116784819D01*
X148869047Y-116784819D02*
X148964285Y-116737200D01*
X148964285Y-116737200D02*
X149011904Y-116689580D01*
X149011904Y-116689580D02*
X149059523Y-116594342D01*
X149059523Y-116594342D02*
X149059523Y-115784819D01*
X149535714Y-116784819D02*
X149535714Y-115784819D01*
X149535714Y-115784819D02*
X149916666Y-115784819D01*
X149916666Y-115784819D02*
X150011904Y-115832438D01*
X150011904Y-115832438D02*
X150059523Y-115880057D01*
X150059523Y-115880057D02*
X150107142Y-115975295D01*
X150107142Y-115975295D02*
X150107142Y-116118152D01*
X150107142Y-116118152D02*
X150059523Y-116213390D01*
X150059523Y-116213390D02*
X150011904Y-116261009D01*
X150011904Y-116261009D02*
X149916666Y-116308628D01*
X149916666Y-116308628D02*
X149535714Y-116308628D01*
X150488095Y-115880057D02*
X150535714Y-115832438D01*
X150535714Y-115832438D02*
X150630952Y-115784819D01*
X150630952Y-115784819D02*
X150869047Y-115784819D01*
X150869047Y-115784819D02*
X150964285Y-115832438D01*
X150964285Y-115832438D02*
X151011904Y-115880057D01*
X151011904Y-115880057D02*
X151059523Y-115975295D01*
X151059523Y-115975295D02*
X151059523Y-116070533D01*
X151059523Y-116070533D02*
X151011904Y-116213390D01*
X151011904Y-116213390D02*
X150440476Y-116784819D01*
X150440476Y-116784819D02*
X151059523Y-116784819D01*
X141126666Y-16261009D02*
X140793333Y-16261009D01*
X140793333Y-16784819D02*
X140793333Y-15784819D01*
X140793333Y-15784819D02*
X141269523Y-15784819D01*
X141983809Y-16261009D02*
X142126666Y-16308628D01*
X142126666Y-16308628D02*
X142174285Y-16356247D01*
X142174285Y-16356247D02*
X142221904Y-16451485D01*
X142221904Y-16451485D02*
X142221904Y-16594342D01*
X142221904Y-16594342D02*
X142174285Y-16689580D01*
X142174285Y-16689580D02*
X142126666Y-16737200D01*
X142126666Y-16737200D02*
X142031428Y-16784819D01*
X142031428Y-16784819D02*
X141650476Y-16784819D01*
X141650476Y-16784819D02*
X141650476Y-15784819D01*
X141650476Y-15784819D02*
X141983809Y-15784819D01*
X141983809Y-15784819D02*
X142079047Y-15832438D01*
X142079047Y-15832438D02*
X142126666Y-15880057D01*
X142126666Y-15880057D02*
X142174285Y-15975295D01*
X142174285Y-15975295D02*
X142174285Y-16070533D01*
X142174285Y-16070533D02*
X142126666Y-16165771D01*
X142126666Y-16165771D02*
X142079047Y-16213390D01*
X142079047Y-16213390D02*
X141983809Y-16261009D01*
X141983809Y-16261009D02*
X141650476Y-16261009D01*
X143174285Y-16784819D02*
X142602857Y-16784819D01*
X142888571Y-16784819D02*
X142888571Y-15784819D01*
X142888571Y-15784819D02*
X142793333Y-15927676D01*
X142793333Y-15927676D02*
X142698095Y-16022914D01*
X142698095Y-16022914D02*
X142602857Y-16070533D01*
X170423809Y-44678628D02*
X170423809Y-45154819D01*
X170090476Y-44154819D02*
X170423809Y-44678628D01*
X170423809Y-44678628D02*
X170757142Y-44154819D01*
X171614285Y-45154819D02*
X171042857Y-45154819D01*
X171328571Y-45154819D02*
X171328571Y-44154819D01*
X171328571Y-44154819D02*
X171233333Y-44297676D01*
X171233333Y-44297676D02*
X171138095Y-44392914D01*
X171138095Y-44392914D02*
X171042857Y-44440533D01*
X103738662Y-89222517D02*
X103912310Y-88237710D01*
X103912310Y-88237710D02*
X104146788Y-88279054D01*
X104146788Y-88279054D02*
X104279206Y-88350757D01*
X104279206Y-88350757D02*
X104356459Y-88461086D01*
X104356459Y-88461086D02*
X104386817Y-88563146D01*
X104386817Y-88563146D02*
X104400637Y-88758998D01*
X104400637Y-88758998D02*
X104375830Y-88899684D01*
X104375830Y-88899684D02*
X104295858Y-89078998D01*
X104295858Y-89078998D02*
X104232425Y-89164520D01*
X104232425Y-89164520D02*
X104122096Y-89241773D01*
X104122096Y-89241773D02*
X103973140Y-89263862D01*
X103973140Y-89263862D02*
X103738662Y-89222517D01*
X105239321Y-89487124D02*
X104676574Y-89387897D01*
X104957948Y-89437510D02*
X105131596Y-88452703D01*
X105131596Y-88452703D02*
X105012998Y-88576851D01*
X105012998Y-88576851D02*
X104902669Y-88654105D01*
X104902669Y-88654105D02*
X104800609Y-88684462D01*
X105771597Y-88662259D02*
X105826761Y-88623633D01*
X105826761Y-88623633D02*
X105928821Y-88593275D01*
X105928821Y-88593275D02*
X106163299Y-88634620D01*
X106163299Y-88634620D02*
X106248822Y-88698053D01*
X106248822Y-88698053D02*
X106287448Y-88753218D01*
X106287448Y-88753218D02*
X106317806Y-88855278D01*
X106317806Y-88855278D02*
X106301268Y-88949069D01*
X106301268Y-88949069D02*
X106229566Y-89081487D01*
X106229566Y-89081487D02*
X105567591Y-89545007D01*
X105567591Y-89545007D02*
X106177234Y-89652503D01*
X107680583Y-69609052D02*
X107854231Y-68624244D01*
X107854231Y-68624244D02*
X108088709Y-68665589D01*
X108088709Y-68665589D02*
X108221127Y-68737292D01*
X108221127Y-68737292D02*
X108298380Y-68847621D01*
X108298380Y-68847621D02*
X108328738Y-68949681D01*
X108328738Y-68949681D02*
X108342557Y-69145532D01*
X108342557Y-69145532D02*
X108317750Y-69286219D01*
X108317750Y-69286219D02*
X108237779Y-69465533D01*
X108237779Y-69465533D02*
X108174346Y-69551055D01*
X108174346Y-69551055D02*
X108064016Y-69628308D01*
X108064016Y-69628308D02*
X107915061Y-69650397D01*
X107915061Y-69650397D02*
X107680583Y-69609052D01*
X108745247Y-68781355D02*
X109401786Y-68897120D01*
X109401786Y-68897120D02*
X108806077Y-69807507D01*
X114738095Y-22054819D02*
X114738095Y-22864342D01*
X114738095Y-22864342D02*
X114785714Y-22959580D01*
X114785714Y-22959580D02*
X114833333Y-23007200D01*
X114833333Y-23007200D02*
X114928571Y-23054819D01*
X114928571Y-23054819D02*
X115119047Y-23054819D01*
X115119047Y-23054819D02*
X115214285Y-23007200D01*
X115214285Y-23007200D02*
X115261904Y-22959580D01*
X115261904Y-22959580D02*
X115309523Y-22864342D01*
X115309523Y-22864342D02*
X115309523Y-22054819D01*
X115738095Y-22150057D02*
X115785714Y-22102438D01*
X115785714Y-22102438D02*
X115880952Y-22054819D01*
X115880952Y-22054819D02*
X116119047Y-22054819D01*
X116119047Y-22054819D02*
X116214285Y-22102438D01*
X116214285Y-22102438D02*
X116261904Y-22150057D01*
X116261904Y-22150057D02*
X116309523Y-22245295D01*
X116309523Y-22245295D02*
X116309523Y-22340533D01*
X116309523Y-22340533D02*
X116261904Y-22483390D01*
X116261904Y-22483390D02*
X115690476Y-23054819D01*
X115690476Y-23054819D02*
X116309523Y-23054819D01*
X161429580Y-16417857D02*
X161477200Y-16465476D01*
X161477200Y-16465476D02*
X161524819Y-16608333D01*
X161524819Y-16608333D02*
X161524819Y-16703571D01*
X161524819Y-16703571D02*
X161477200Y-16846428D01*
X161477200Y-16846428D02*
X161381961Y-16941666D01*
X161381961Y-16941666D02*
X161286723Y-16989285D01*
X161286723Y-16989285D02*
X161096247Y-17036904D01*
X161096247Y-17036904D02*
X160953390Y-17036904D01*
X160953390Y-17036904D02*
X160762914Y-16989285D01*
X160762914Y-16989285D02*
X160667676Y-16941666D01*
X160667676Y-16941666D02*
X160572438Y-16846428D01*
X160572438Y-16846428D02*
X160524819Y-16703571D01*
X160524819Y-16703571D02*
X160524819Y-16608333D01*
X160524819Y-16608333D02*
X160572438Y-16465476D01*
X160572438Y-16465476D02*
X160620057Y-16417857D01*
X161524819Y-15465476D02*
X161524819Y-16036904D01*
X161524819Y-15751190D02*
X160524819Y-15751190D01*
X160524819Y-15751190D02*
X160667676Y-15846428D01*
X160667676Y-15846428D02*
X160762914Y-15941666D01*
X160762914Y-15941666D02*
X160810533Y-16036904D01*
X160524819Y-14608333D02*
X160524819Y-14798809D01*
X160524819Y-14798809D02*
X160572438Y-14894047D01*
X160572438Y-14894047D02*
X160620057Y-14941666D01*
X160620057Y-14941666D02*
X160762914Y-15036904D01*
X160762914Y-15036904D02*
X160953390Y-15084523D01*
X160953390Y-15084523D02*
X161334342Y-15084523D01*
X161334342Y-15084523D02*
X161429580Y-15036904D01*
X161429580Y-15036904D02*
X161477200Y-14989285D01*
X161477200Y-14989285D02*
X161524819Y-14894047D01*
X161524819Y-14894047D02*
X161524819Y-14703571D01*
X161524819Y-14703571D02*
X161477200Y-14608333D01*
X161477200Y-14608333D02*
X161429580Y-14560714D01*
X161429580Y-14560714D02*
X161334342Y-14513095D01*
X161334342Y-14513095D02*
X161096247Y-14513095D01*
X161096247Y-14513095D02*
X161001009Y-14560714D01*
X161001009Y-14560714D02*
X160953390Y-14608333D01*
X160953390Y-14608333D02*
X160905771Y-14703571D01*
X160905771Y-14703571D02*
X160905771Y-14894047D01*
X160905771Y-14894047D02*
X160953390Y-14989285D01*
X160953390Y-14989285D02*
X161001009Y-15036904D01*
X161001009Y-15036904D02*
X161096247Y-15084523D01*
X103333333Y-19954819D02*
X103000000Y-19478628D01*
X102761905Y-19954819D02*
X102761905Y-18954819D01*
X102761905Y-18954819D02*
X103142857Y-18954819D01*
X103142857Y-18954819D02*
X103238095Y-19002438D01*
X103238095Y-19002438D02*
X103285714Y-19050057D01*
X103285714Y-19050057D02*
X103333333Y-19145295D01*
X103333333Y-19145295D02*
X103333333Y-19288152D01*
X103333333Y-19288152D02*
X103285714Y-19383390D01*
X103285714Y-19383390D02*
X103238095Y-19431009D01*
X103238095Y-19431009D02*
X103142857Y-19478628D01*
X103142857Y-19478628D02*
X102761905Y-19478628D01*
X103714286Y-19050057D02*
X103761905Y-19002438D01*
X103761905Y-19002438D02*
X103857143Y-18954819D01*
X103857143Y-18954819D02*
X104095238Y-18954819D01*
X104095238Y-18954819D02*
X104190476Y-19002438D01*
X104190476Y-19002438D02*
X104238095Y-19050057D01*
X104238095Y-19050057D02*
X104285714Y-19145295D01*
X104285714Y-19145295D02*
X104285714Y-19240533D01*
X104285714Y-19240533D02*
X104238095Y-19383390D01*
X104238095Y-19383390D02*
X103666667Y-19954819D01*
X103666667Y-19954819D02*
X104285714Y-19954819D01*
X167804819Y-39166666D02*
X167328628Y-39499999D01*
X167804819Y-39738094D02*
X166804819Y-39738094D01*
X166804819Y-39738094D02*
X166804819Y-39357142D01*
X166804819Y-39357142D02*
X166852438Y-39261904D01*
X166852438Y-39261904D02*
X166900057Y-39214285D01*
X166900057Y-39214285D02*
X166995295Y-39166666D01*
X166995295Y-39166666D02*
X167138152Y-39166666D01*
X167138152Y-39166666D02*
X167233390Y-39214285D01*
X167233390Y-39214285D02*
X167281009Y-39261904D01*
X167281009Y-39261904D02*
X167328628Y-39357142D01*
X167328628Y-39357142D02*
X167328628Y-39738094D01*
X166804819Y-38261904D02*
X166804819Y-38738094D01*
X166804819Y-38738094D02*
X167281009Y-38785713D01*
X167281009Y-38785713D02*
X167233390Y-38738094D01*
X167233390Y-38738094D02*
X167185771Y-38642856D01*
X167185771Y-38642856D02*
X167185771Y-38404761D01*
X167185771Y-38404761D02*
X167233390Y-38309523D01*
X167233390Y-38309523D02*
X167281009Y-38261904D01*
X167281009Y-38261904D02*
X167376247Y-38214285D01*
X167376247Y-38214285D02*
X167614342Y-38214285D01*
X167614342Y-38214285D02*
X167709580Y-38261904D01*
X167709580Y-38261904D02*
X167757200Y-38309523D01*
X167757200Y-38309523D02*
X167804819Y-38404761D01*
X167804819Y-38404761D02*
X167804819Y-38642856D01*
X167804819Y-38642856D02*
X167757200Y-38738094D01*
X167757200Y-38738094D02*
X167709580Y-38785713D01*
X219433816Y-88475374D02*
X219260167Y-87490566D01*
X219260167Y-87490566D02*
X219494645Y-87449221D01*
X219494645Y-87449221D02*
X219643601Y-87471310D01*
X219643601Y-87471310D02*
X219753930Y-87548563D01*
X219753930Y-87548563D02*
X219817364Y-87634085D01*
X219817364Y-87634085D02*
X219897335Y-87813399D01*
X219897335Y-87813399D02*
X219922142Y-87954086D01*
X219922142Y-87954086D02*
X219908322Y-88149937D01*
X219908322Y-88149937D02*
X219877965Y-88251997D01*
X219877965Y-88251997D02*
X219800711Y-88362326D01*
X219800711Y-88362326D02*
X219668294Y-88434029D01*
X219668294Y-88434029D02*
X219433816Y-88475374D01*
X220713931Y-87234228D02*
X220244975Y-87316918D01*
X220244975Y-87316918D02*
X220280769Y-87794143D01*
X220280769Y-87794143D02*
X220319396Y-87738978D01*
X220319396Y-87738978D02*
X220404918Y-87675545D01*
X220404918Y-87675545D02*
X220639396Y-87634200D01*
X220639396Y-87634200D02*
X220741456Y-87664558D01*
X220741456Y-87664558D02*
X220796621Y-87703184D01*
X220796621Y-87703184D02*
X220860054Y-87788706D01*
X220860054Y-87788706D02*
X220901399Y-88023184D01*
X220901399Y-88023184D02*
X220871041Y-88125245D01*
X220871041Y-88125245D02*
X220832415Y-88180409D01*
X220832415Y-88180409D02*
X220746893Y-88243843D01*
X220746893Y-88243843D02*
X220512415Y-88285188D01*
X220512415Y-88285188D02*
X220410354Y-88254830D01*
X220410354Y-88254830D02*
X220355190Y-88216203D01*
X128266666Y-15601009D02*
X127933333Y-15601009D01*
X127933333Y-16124819D02*
X127933333Y-15124819D01*
X127933333Y-15124819D02*
X128409523Y-15124819D01*
X129314285Y-16124819D02*
X128742857Y-16124819D01*
X129028571Y-16124819D02*
X129028571Y-15124819D01*
X129028571Y-15124819D02*
X128933333Y-15267676D01*
X128933333Y-15267676D02*
X128838095Y-15362914D01*
X128838095Y-15362914D02*
X128742857Y-15410533D01*
X196930749Y-73150166D02*
X196757100Y-72165358D01*
X196757100Y-72165358D02*
X196991578Y-72124013D01*
X196991578Y-72124013D02*
X197140534Y-72146102D01*
X197140534Y-72146102D02*
X197250863Y-72223355D01*
X197250863Y-72223355D02*
X197314297Y-72308877D01*
X197314297Y-72308877D02*
X197394268Y-72488191D01*
X197394268Y-72488191D02*
X197419075Y-72628878D01*
X197419075Y-72628878D02*
X197405255Y-72824729D01*
X197405255Y-72824729D02*
X197374898Y-72926789D01*
X197374898Y-72926789D02*
X197297644Y-73037118D01*
X197297644Y-73037118D02*
X197165227Y-73108821D01*
X197165227Y-73108821D02*
X196930749Y-73150166D01*
X198221851Y-72245558D02*
X198337617Y-72902097D01*
X197921222Y-71911738D02*
X197810778Y-72656517D01*
X197810778Y-72656517D02*
X198420421Y-72549021D01*
X24558333Y-33789580D02*
X24510714Y-33837200D01*
X24510714Y-33837200D02*
X24367857Y-33884819D01*
X24367857Y-33884819D02*
X24272619Y-33884819D01*
X24272619Y-33884819D02*
X24129762Y-33837200D01*
X24129762Y-33837200D02*
X24034524Y-33741961D01*
X24034524Y-33741961D02*
X23986905Y-33646723D01*
X23986905Y-33646723D02*
X23939286Y-33456247D01*
X23939286Y-33456247D02*
X23939286Y-33313390D01*
X23939286Y-33313390D02*
X23986905Y-33122914D01*
X23986905Y-33122914D02*
X24034524Y-33027676D01*
X24034524Y-33027676D02*
X24129762Y-32932438D01*
X24129762Y-32932438D02*
X24272619Y-32884819D01*
X24272619Y-32884819D02*
X24367857Y-32884819D01*
X24367857Y-32884819D02*
X24510714Y-32932438D01*
X24510714Y-32932438D02*
X24558333Y-32980057D01*
X25415476Y-33218152D02*
X25415476Y-33884819D01*
X25177381Y-32837200D02*
X24939286Y-33551485D01*
X24939286Y-33551485D02*
X25558333Y-33551485D01*
X28833333Y-47289580D02*
X28785714Y-47337200D01*
X28785714Y-47337200D02*
X28642857Y-47384819D01*
X28642857Y-47384819D02*
X28547619Y-47384819D01*
X28547619Y-47384819D02*
X28404762Y-47337200D01*
X28404762Y-47337200D02*
X28309524Y-47241961D01*
X28309524Y-47241961D02*
X28261905Y-47146723D01*
X28261905Y-47146723D02*
X28214286Y-46956247D01*
X28214286Y-46956247D02*
X28214286Y-46813390D01*
X28214286Y-46813390D02*
X28261905Y-46622914D01*
X28261905Y-46622914D02*
X28309524Y-46527676D01*
X28309524Y-46527676D02*
X28404762Y-46432438D01*
X28404762Y-46432438D02*
X28547619Y-46384819D01*
X28547619Y-46384819D02*
X28642857Y-46384819D01*
X28642857Y-46384819D02*
X28785714Y-46432438D01*
X28785714Y-46432438D02*
X28833333Y-46480057D01*
X29690476Y-46384819D02*
X29500000Y-46384819D01*
X29500000Y-46384819D02*
X29404762Y-46432438D01*
X29404762Y-46432438D02*
X29357143Y-46480057D01*
X29357143Y-46480057D02*
X29261905Y-46622914D01*
X29261905Y-46622914D02*
X29214286Y-46813390D01*
X29214286Y-46813390D02*
X29214286Y-47194342D01*
X29214286Y-47194342D02*
X29261905Y-47289580D01*
X29261905Y-47289580D02*
X29309524Y-47337200D01*
X29309524Y-47337200D02*
X29404762Y-47384819D01*
X29404762Y-47384819D02*
X29595238Y-47384819D01*
X29595238Y-47384819D02*
X29690476Y-47337200D01*
X29690476Y-47337200D02*
X29738095Y-47289580D01*
X29738095Y-47289580D02*
X29785714Y-47194342D01*
X29785714Y-47194342D02*
X29785714Y-46956247D01*
X29785714Y-46956247D02*
X29738095Y-46861009D01*
X29738095Y-46861009D02*
X29690476Y-46813390D01*
X29690476Y-46813390D02*
X29595238Y-46765771D01*
X29595238Y-46765771D02*
X29404762Y-46765771D01*
X29404762Y-46765771D02*
X29309524Y-46813390D01*
X29309524Y-46813390D02*
X29261905Y-46861009D01*
X29261905Y-46861009D02*
X29214286Y-46956247D01*
X128093034Y-75239171D02*
X128266682Y-74254363D01*
X128266682Y-74254363D02*
X128501160Y-74295708D01*
X128501160Y-74295708D02*
X128633578Y-74367411D01*
X128633578Y-74367411D02*
X128710831Y-74477740D01*
X128710831Y-74477740D02*
X128741189Y-74579800D01*
X128741189Y-74579800D02*
X128755008Y-74775651D01*
X128755008Y-74775651D02*
X128730201Y-74916338D01*
X128730201Y-74916338D02*
X128650230Y-75095652D01*
X128650230Y-75095652D02*
X128586797Y-75181174D01*
X128586797Y-75181174D02*
X128476467Y-75258427D01*
X128476467Y-75258427D02*
X128327512Y-75280516D01*
X128327512Y-75280516D02*
X128093034Y-75239171D01*
X129673550Y-74502432D02*
X129485968Y-74469356D01*
X129485968Y-74469356D02*
X129383907Y-74499714D01*
X129383907Y-74499714D02*
X129328743Y-74538341D01*
X129328743Y-74538341D02*
X129210145Y-74662489D01*
X129210145Y-74662489D02*
X129130173Y-74841803D01*
X129130173Y-74841803D02*
X129064022Y-75216968D01*
X129064022Y-75216968D02*
X129094379Y-75319028D01*
X129094379Y-75319028D02*
X129133006Y-75374193D01*
X129133006Y-75374193D02*
X129218528Y-75437626D01*
X129218528Y-75437626D02*
X129406111Y-75470702D01*
X129406111Y-75470702D02*
X129508171Y-75440344D01*
X129508171Y-75440344D02*
X129563335Y-75401718D01*
X129563335Y-75401718D02*
X129626769Y-75316195D01*
X129626769Y-75316195D02*
X129668114Y-75081717D01*
X129668114Y-75081717D02*
X129637756Y-74979657D01*
X129637756Y-74979657D02*
X129599129Y-74924493D01*
X129599129Y-74924493D02*
X129513607Y-74861059D01*
X129513607Y-74861059D02*
X129326025Y-74827983D01*
X129326025Y-74827983D02*
X129223964Y-74858341D01*
X129223964Y-74858341D02*
X129168800Y-74896968D01*
X129168800Y-74896968D02*
X129105366Y-74982490D01*
X165582142Y-51789580D02*
X165534523Y-51837200D01*
X165534523Y-51837200D02*
X165391666Y-51884819D01*
X165391666Y-51884819D02*
X165296428Y-51884819D01*
X165296428Y-51884819D02*
X165153571Y-51837200D01*
X165153571Y-51837200D02*
X165058333Y-51741961D01*
X165058333Y-51741961D02*
X165010714Y-51646723D01*
X165010714Y-51646723D02*
X164963095Y-51456247D01*
X164963095Y-51456247D02*
X164963095Y-51313390D01*
X164963095Y-51313390D02*
X165010714Y-51122914D01*
X165010714Y-51122914D02*
X165058333Y-51027676D01*
X165058333Y-51027676D02*
X165153571Y-50932438D01*
X165153571Y-50932438D02*
X165296428Y-50884819D01*
X165296428Y-50884819D02*
X165391666Y-50884819D01*
X165391666Y-50884819D02*
X165534523Y-50932438D01*
X165534523Y-50932438D02*
X165582142Y-50980057D01*
X166534523Y-51884819D02*
X165963095Y-51884819D01*
X166248809Y-51884819D02*
X166248809Y-50884819D01*
X166248809Y-50884819D02*
X166153571Y-51027676D01*
X166153571Y-51027676D02*
X166058333Y-51122914D01*
X166058333Y-51122914D02*
X165963095Y-51170533D01*
X167391666Y-51218152D02*
X167391666Y-51884819D01*
X167153571Y-50837200D02*
X166915476Y-51551485D01*
X166915476Y-51551485D02*
X167534523Y-51551485D01*
X177983333Y-28289580D02*
X177935714Y-28337200D01*
X177935714Y-28337200D02*
X177792857Y-28384819D01*
X177792857Y-28384819D02*
X177697619Y-28384819D01*
X177697619Y-28384819D02*
X177554762Y-28337200D01*
X177554762Y-28337200D02*
X177459524Y-28241961D01*
X177459524Y-28241961D02*
X177411905Y-28146723D01*
X177411905Y-28146723D02*
X177364286Y-27956247D01*
X177364286Y-27956247D02*
X177364286Y-27813390D01*
X177364286Y-27813390D02*
X177411905Y-27622914D01*
X177411905Y-27622914D02*
X177459524Y-27527676D01*
X177459524Y-27527676D02*
X177554762Y-27432438D01*
X177554762Y-27432438D02*
X177697619Y-27384819D01*
X177697619Y-27384819D02*
X177792857Y-27384819D01*
X177792857Y-27384819D02*
X177935714Y-27432438D01*
X177935714Y-27432438D02*
X177983333Y-27480057D01*
X178364286Y-27480057D02*
X178411905Y-27432438D01*
X178411905Y-27432438D02*
X178507143Y-27384819D01*
X178507143Y-27384819D02*
X178745238Y-27384819D01*
X178745238Y-27384819D02*
X178840476Y-27432438D01*
X178840476Y-27432438D02*
X178888095Y-27480057D01*
X178888095Y-27480057D02*
X178935714Y-27575295D01*
X178935714Y-27575295D02*
X178935714Y-27670533D01*
X178935714Y-27670533D02*
X178888095Y-27813390D01*
X178888095Y-27813390D02*
X178316667Y-28384819D01*
X178316667Y-28384819D02*
X178935714Y-28384819D01*
X200366130Y-92345235D02*
X200192481Y-91360427D01*
X200192481Y-91360427D02*
X200426959Y-91319082D01*
X200426959Y-91319082D02*
X200575915Y-91341171D01*
X200575915Y-91341171D02*
X200686244Y-91418424D01*
X200686244Y-91418424D02*
X200749678Y-91503946D01*
X200749678Y-91503946D02*
X200829649Y-91683260D01*
X200829649Y-91683260D02*
X200854456Y-91823947D01*
X200854456Y-91823947D02*
X200840636Y-92019798D01*
X200840636Y-92019798D02*
X200810279Y-92121858D01*
X200810279Y-92121858D02*
X200733025Y-92232187D01*
X200733025Y-92232187D02*
X200600608Y-92303890D01*
X200600608Y-92303890D02*
X200366130Y-92345235D01*
X201083498Y-91203317D02*
X201693141Y-91095820D01*
X201693141Y-91095820D02*
X201431023Y-91528868D01*
X201431023Y-91528868D02*
X201571710Y-91504061D01*
X201571710Y-91504061D02*
X201673770Y-91534419D01*
X201673770Y-91534419D02*
X201728935Y-91573045D01*
X201728935Y-91573045D02*
X201792368Y-91658567D01*
X201792368Y-91658567D02*
X201833713Y-91893045D01*
X201833713Y-91893045D02*
X201803355Y-91995106D01*
X201803355Y-91995106D02*
X201764729Y-92050270D01*
X201764729Y-92050270D02*
X201679207Y-92113704D01*
X201679207Y-92113704D02*
X201397833Y-92163317D01*
X201397833Y-92163317D02*
X201295773Y-92132960D01*
X201295773Y-92132960D02*
X201240608Y-92094333D01*
X178304819Y-18079166D02*
X177828628Y-18412499D01*
X178304819Y-18650594D02*
X177304819Y-18650594D01*
X177304819Y-18650594D02*
X177304819Y-18269642D01*
X177304819Y-18269642D02*
X177352438Y-18174404D01*
X177352438Y-18174404D02*
X177400057Y-18126785D01*
X177400057Y-18126785D02*
X177495295Y-18079166D01*
X177495295Y-18079166D02*
X177638152Y-18079166D01*
X177638152Y-18079166D02*
X177733390Y-18126785D01*
X177733390Y-18126785D02*
X177781009Y-18174404D01*
X177781009Y-18174404D02*
X177828628Y-18269642D01*
X177828628Y-18269642D02*
X177828628Y-18650594D01*
X177638152Y-17222023D02*
X178304819Y-17222023D01*
X177257200Y-17460118D02*
X177971485Y-17698213D01*
X177971485Y-17698213D02*
X177971485Y-17079166D01*
X163789580Y-32917857D02*
X163837200Y-32965476D01*
X163837200Y-32965476D02*
X163884819Y-33108333D01*
X163884819Y-33108333D02*
X163884819Y-33203571D01*
X163884819Y-33203571D02*
X163837200Y-33346428D01*
X163837200Y-33346428D02*
X163741961Y-33441666D01*
X163741961Y-33441666D02*
X163646723Y-33489285D01*
X163646723Y-33489285D02*
X163456247Y-33536904D01*
X163456247Y-33536904D02*
X163313390Y-33536904D01*
X163313390Y-33536904D02*
X163122914Y-33489285D01*
X163122914Y-33489285D02*
X163027676Y-33441666D01*
X163027676Y-33441666D02*
X162932438Y-33346428D01*
X162932438Y-33346428D02*
X162884819Y-33203571D01*
X162884819Y-33203571D02*
X162884819Y-33108333D01*
X162884819Y-33108333D02*
X162932438Y-32965476D01*
X162932438Y-32965476D02*
X162980057Y-32917857D01*
X163884819Y-31965476D02*
X163884819Y-32536904D01*
X163884819Y-32251190D02*
X162884819Y-32251190D01*
X162884819Y-32251190D02*
X163027676Y-32346428D01*
X163027676Y-32346428D02*
X163122914Y-32441666D01*
X163122914Y-32441666D02*
X163170533Y-32536904D01*
X163884819Y-31013095D02*
X163884819Y-31584523D01*
X163884819Y-31298809D02*
X162884819Y-31298809D01*
X162884819Y-31298809D02*
X163027676Y-31394047D01*
X163027676Y-31394047D02*
X163122914Y-31489285D01*
X163122914Y-31489285D02*
X163170533Y-31584523D01*
X173304819Y-18079166D02*
X172828628Y-18412499D01*
X173304819Y-18650594D02*
X172304819Y-18650594D01*
X172304819Y-18650594D02*
X172304819Y-18269642D01*
X172304819Y-18269642D02*
X172352438Y-18174404D01*
X172352438Y-18174404D02*
X172400057Y-18126785D01*
X172400057Y-18126785D02*
X172495295Y-18079166D01*
X172495295Y-18079166D02*
X172638152Y-18079166D01*
X172638152Y-18079166D02*
X172733390Y-18126785D01*
X172733390Y-18126785D02*
X172781009Y-18174404D01*
X172781009Y-18174404D02*
X172828628Y-18269642D01*
X172828628Y-18269642D02*
X172828628Y-18650594D01*
X172304819Y-17745832D02*
X172304819Y-17126785D01*
X172304819Y-17126785D02*
X172685771Y-17460118D01*
X172685771Y-17460118D02*
X172685771Y-17317261D01*
X172685771Y-17317261D02*
X172733390Y-17222023D01*
X172733390Y-17222023D02*
X172781009Y-17174404D01*
X172781009Y-17174404D02*
X172876247Y-17126785D01*
X172876247Y-17126785D02*
X173114342Y-17126785D01*
X173114342Y-17126785D02*
X173209580Y-17174404D01*
X173209580Y-17174404D02*
X173257200Y-17222023D01*
X173257200Y-17222023D02*
X173304819Y-17317261D01*
X173304819Y-17317261D02*
X173304819Y-17602975D01*
X173304819Y-17602975D02*
X173257200Y-17698213D01*
X173257200Y-17698213D02*
X173209580Y-17745832D01*
X154608333Y-31289580D02*
X154560714Y-31337200D01*
X154560714Y-31337200D02*
X154417857Y-31384819D01*
X154417857Y-31384819D02*
X154322619Y-31384819D01*
X154322619Y-31384819D02*
X154179762Y-31337200D01*
X154179762Y-31337200D02*
X154084524Y-31241961D01*
X154084524Y-31241961D02*
X154036905Y-31146723D01*
X154036905Y-31146723D02*
X153989286Y-30956247D01*
X153989286Y-30956247D02*
X153989286Y-30813390D01*
X153989286Y-30813390D02*
X154036905Y-30622914D01*
X154036905Y-30622914D02*
X154084524Y-30527676D01*
X154084524Y-30527676D02*
X154179762Y-30432438D01*
X154179762Y-30432438D02*
X154322619Y-30384819D01*
X154322619Y-30384819D02*
X154417857Y-30384819D01*
X154417857Y-30384819D02*
X154560714Y-30432438D01*
X154560714Y-30432438D02*
X154608333Y-30480057D01*
X155084524Y-31384819D02*
X155275000Y-31384819D01*
X155275000Y-31384819D02*
X155370238Y-31337200D01*
X155370238Y-31337200D02*
X155417857Y-31289580D01*
X155417857Y-31289580D02*
X155513095Y-31146723D01*
X155513095Y-31146723D02*
X155560714Y-30956247D01*
X155560714Y-30956247D02*
X155560714Y-30575295D01*
X155560714Y-30575295D02*
X155513095Y-30480057D01*
X155513095Y-30480057D02*
X155465476Y-30432438D01*
X155465476Y-30432438D02*
X155370238Y-30384819D01*
X155370238Y-30384819D02*
X155179762Y-30384819D01*
X155179762Y-30384819D02*
X155084524Y-30432438D01*
X155084524Y-30432438D02*
X155036905Y-30480057D01*
X155036905Y-30480057D02*
X154989286Y-30575295D01*
X154989286Y-30575295D02*
X154989286Y-30813390D01*
X154989286Y-30813390D02*
X155036905Y-30908628D01*
X155036905Y-30908628D02*
X155084524Y-30956247D01*
X155084524Y-30956247D02*
X155179762Y-31003866D01*
X155179762Y-31003866D02*
X155370238Y-31003866D01*
X155370238Y-31003866D02*
X155465476Y-30956247D01*
X155465476Y-30956247D02*
X155513095Y-30908628D01*
X155513095Y-30908628D02*
X155560714Y-30813390D01*
X174132142Y-31429580D02*
X174084523Y-31477200D01*
X174084523Y-31477200D02*
X173941666Y-31524819D01*
X173941666Y-31524819D02*
X173846428Y-31524819D01*
X173846428Y-31524819D02*
X173703571Y-31477200D01*
X173703571Y-31477200D02*
X173608333Y-31381961D01*
X173608333Y-31381961D02*
X173560714Y-31286723D01*
X173560714Y-31286723D02*
X173513095Y-31096247D01*
X173513095Y-31096247D02*
X173513095Y-30953390D01*
X173513095Y-30953390D02*
X173560714Y-30762914D01*
X173560714Y-30762914D02*
X173608333Y-30667676D01*
X173608333Y-30667676D02*
X173703571Y-30572438D01*
X173703571Y-30572438D02*
X173846428Y-30524819D01*
X173846428Y-30524819D02*
X173941666Y-30524819D01*
X173941666Y-30524819D02*
X174084523Y-30572438D01*
X174084523Y-30572438D02*
X174132142Y-30620057D01*
X175084523Y-31524819D02*
X174513095Y-31524819D01*
X174798809Y-31524819D02*
X174798809Y-30524819D01*
X174798809Y-30524819D02*
X174703571Y-30667676D01*
X174703571Y-30667676D02*
X174608333Y-30762914D01*
X174608333Y-30762914D02*
X174513095Y-30810533D01*
X175417857Y-30524819D02*
X176036904Y-30524819D01*
X176036904Y-30524819D02*
X175703571Y-30905771D01*
X175703571Y-30905771D02*
X175846428Y-30905771D01*
X175846428Y-30905771D02*
X175941666Y-30953390D01*
X175941666Y-30953390D02*
X175989285Y-31001009D01*
X175989285Y-31001009D02*
X176036904Y-31096247D01*
X176036904Y-31096247D02*
X176036904Y-31334342D01*
X176036904Y-31334342D02*
X175989285Y-31429580D01*
X175989285Y-31429580D02*
X175941666Y-31477200D01*
X175941666Y-31477200D02*
X175846428Y-31524819D01*
X175846428Y-31524819D02*
X175560714Y-31524819D01*
X175560714Y-31524819D02*
X175465476Y-31477200D01*
X175465476Y-31477200D02*
X175417857Y-31429580D01*
X145289580Y-24441666D02*
X145337200Y-24489285D01*
X145337200Y-24489285D02*
X145384819Y-24632142D01*
X145384819Y-24632142D02*
X145384819Y-24727380D01*
X145384819Y-24727380D02*
X145337200Y-24870237D01*
X145337200Y-24870237D02*
X145241961Y-24965475D01*
X145241961Y-24965475D02*
X145146723Y-25013094D01*
X145146723Y-25013094D02*
X144956247Y-25060713D01*
X144956247Y-25060713D02*
X144813390Y-25060713D01*
X144813390Y-25060713D02*
X144622914Y-25013094D01*
X144622914Y-25013094D02*
X144527676Y-24965475D01*
X144527676Y-24965475D02*
X144432438Y-24870237D01*
X144432438Y-24870237D02*
X144384819Y-24727380D01*
X144384819Y-24727380D02*
X144384819Y-24632142D01*
X144384819Y-24632142D02*
X144432438Y-24489285D01*
X144432438Y-24489285D02*
X144480057Y-24441666D01*
X145384819Y-23489285D02*
X145384819Y-24060713D01*
X145384819Y-23774999D02*
X144384819Y-23774999D01*
X144384819Y-23774999D02*
X144527676Y-23870237D01*
X144527676Y-23870237D02*
X144622914Y-23965475D01*
X144622914Y-23965475D02*
X144670533Y-24060713D01*
X159289580Y-24666666D02*
X159337200Y-24714285D01*
X159337200Y-24714285D02*
X159384819Y-24857142D01*
X159384819Y-24857142D02*
X159384819Y-24952380D01*
X159384819Y-24952380D02*
X159337200Y-25095237D01*
X159337200Y-25095237D02*
X159241961Y-25190475D01*
X159241961Y-25190475D02*
X159146723Y-25238094D01*
X159146723Y-25238094D02*
X158956247Y-25285713D01*
X158956247Y-25285713D02*
X158813390Y-25285713D01*
X158813390Y-25285713D02*
X158622914Y-25238094D01*
X158622914Y-25238094D02*
X158527676Y-25190475D01*
X158527676Y-25190475D02*
X158432438Y-25095237D01*
X158432438Y-25095237D02*
X158384819Y-24952380D01*
X158384819Y-24952380D02*
X158384819Y-24857142D01*
X158384819Y-24857142D02*
X158432438Y-24714285D01*
X158432438Y-24714285D02*
X158480057Y-24666666D01*
X158384819Y-24333332D02*
X158384819Y-23714285D01*
X158384819Y-23714285D02*
X158765771Y-24047618D01*
X158765771Y-24047618D02*
X158765771Y-23904761D01*
X158765771Y-23904761D02*
X158813390Y-23809523D01*
X158813390Y-23809523D02*
X158861009Y-23761904D01*
X158861009Y-23761904D02*
X158956247Y-23714285D01*
X158956247Y-23714285D02*
X159194342Y-23714285D01*
X159194342Y-23714285D02*
X159289580Y-23761904D01*
X159289580Y-23761904D02*
X159337200Y-23809523D01*
X159337200Y-23809523D02*
X159384819Y-23904761D01*
X159384819Y-23904761D02*
X159384819Y-24190475D01*
X159384819Y-24190475D02*
X159337200Y-24285713D01*
X159337200Y-24285713D02*
X159289580Y-24333332D01*
X65086037Y-67175618D02*
X65259685Y-66190810D01*
X65259685Y-66190810D02*
X65494163Y-66232155D01*
X65494163Y-66232155D02*
X65626581Y-66303858D01*
X65626581Y-66303858D02*
X65703834Y-66414187D01*
X65703834Y-66414187D02*
X65734192Y-66516247D01*
X65734192Y-66516247D02*
X65748011Y-66712098D01*
X65748011Y-66712098D02*
X65723204Y-66852785D01*
X65723204Y-66852785D02*
X65643233Y-67032099D01*
X65643233Y-67032099D02*
X65579800Y-67117621D01*
X65579800Y-67117621D02*
X65469470Y-67194874D01*
X65469470Y-67194874D02*
X65320515Y-67216963D01*
X65320515Y-67216963D02*
X65086037Y-67175618D01*
X66117740Y-67357535D02*
X66305322Y-67390611D01*
X66305322Y-67390611D02*
X66407383Y-67360253D01*
X66407383Y-67360253D02*
X66462547Y-67321627D01*
X66462547Y-67321627D02*
X66581145Y-67197478D01*
X66581145Y-67197478D02*
X66661117Y-67018164D01*
X66661117Y-67018164D02*
X66727268Y-66642999D01*
X66727268Y-66642999D02*
X66696911Y-66540939D01*
X66696911Y-66540939D02*
X66658284Y-66485775D01*
X66658284Y-66485775D02*
X66572762Y-66422341D01*
X66572762Y-66422341D02*
X66385179Y-66389265D01*
X66385179Y-66389265D02*
X66283119Y-66419623D01*
X66283119Y-66419623D02*
X66227955Y-66458250D01*
X66227955Y-66458250D02*
X66164521Y-66543772D01*
X66164521Y-66543772D02*
X66123176Y-66778250D01*
X66123176Y-66778250D02*
X66153534Y-66880310D01*
X66153534Y-66880310D02*
X66192161Y-66935475D01*
X66192161Y-66935475D02*
X66277683Y-66998908D01*
X66277683Y-66998908D02*
X66465265Y-67031984D01*
X66465265Y-67031984D02*
X66567325Y-67001626D01*
X66567325Y-67001626D02*
X66622490Y-66963000D01*
X66622490Y-66963000D02*
X66685924Y-66877477D01*
X155789580Y-24666666D02*
X155837200Y-24714285D01*
X155837200Y-24714285D02*
X155884819Y-24857142D01*
X155884819Y-24857142D02*
X155884819Y-24952380D01*
X155884819Y-24952380D02*
X155837200Y-25095237D01*
X155837200Y-25095237D02*
X155741961Y-25190475D01*
X155741961Y-25190475D02*
X155646723Y-25238094D01*
X155646723Y-25238094D02*
X155456247Y-25285713D01*
X155456247Y-25285713D02*
X155313390Y-25285713D01*
X155313390Y-25285713D02*
X155122914Y-25238094D01*
X155122914Y-25238094D02*
X155027676Y-25190475D01*
X155027676Y-25190475D02*
X154932438Y-25095237D01*
X154932438Y-25095237D02*
X154884819Y-24952380D01*
X154884819Y-24952380D02*
X154884819Y-24857142D01*
X154884819Y-24857142D02*
X154932438Y-24714285D01*
X154932438Y-24714285D02*
X154980057Y-24666666D01*
X154884819Y-24333332D02*
X154884819Y-23666666D01*
X154884819Y-23666666D02*
X155884819Y-24095237D01*
X239357142Y-31359580D02*
X239309523Y-31407200D01*
X239309523Y-31407200D02*
X239166666Y-31454819D01*
X239166666Y-31454819D02*
X239071428Y-31454819D01*
X239071428Y-31454819D02*
X238928571Y-31407200D01*
X238928571Y-31407200D02*
X238833333Y-31311961D01*
X238833333Y-31311961D02*
X238785714Y-31216723D01*
X238785714Y-31216723D02*
X238738095Y-31026247D01*
X238738095Y-31026247D02*
X238738095Y-30883390D01*
X238738095Y-30883390D02*
X238785714Y-30692914D01*
X238785714Y-30692914D02*
X238833333Y-30597676D01*
X238833333Y-30597676D02*
X238928571Y-30502438D01*
X238928571Y-30502438D02*
X239071428Y-30454819D01*
X239071428Y-30454819D02*
X239166666Y-30454819D01*
X239166666Y-30454819D02*
X239309523Y-30502438D01*
X239309523Y-30502438D02*
X239357142Y-30550057D01*
X240309523Y-31454819D02*
X239738095Y-31454819D01*
X240023809Y-31454819D02*
X240023809Y-30454819D01*
X240023809Y-30454819D02*
X239928571Y-30597676D01*
X239928571Y-30597676D02*
X239833333Y-30692914D01*
X239833333Y-30692914D02*
X239738095Y-30740533D01*
X240642857Y-30454819D02*
X241309523Y-30454819D01*
X241309523Y-30454819D02*
X240880952Y-31454819D01*
X102833333Y-26454819D02*
X102500000Y-25978628D01*
X102261905Y-26454819D02*
X102261905Y-25454819D01*
X102261905Y-25454819D02*
X102642857Y-25454819D01*
X102642857Y-25454819D02*
X102738095Y-25502438D01*
X102738095Y-25502438D02*
X102785714Y-25550057D01*
X102785714Y-25550057D02*
X102833333Y-25645295D01*
X102833333Y-25645295D02*
X102833333Y-25788152D01*
X102833333Y-25788152D02*
X102785714Y-25883390D01*
X102785714Y-25883390D02*
X102738095Y-25931009D01*
X102738095Y-25931009D02*
X102642857Y-25978628D01*
X102642857Y-25978628D02*
X102261905Y-25978628D01*
X103785714Y-26454819D02*
X103214286Y-26454819D01*
X103500000Y-26454819D02*
X103500000Y-25454819D01*
X103500000Y-25454819D02*
X103404762Y-25597676D01*
X103404762Y-25597676D02*
X103309524Y-25692914D01*
X103309524Y-25692914D02*
X103214286Y-25740533D01*
X181113138Y-95740057D02*
X180939489Y-94755249D01*
X180939489Y-94755249D02*
X181173967Y-94713904D01*
X181173967Y-94713904D02*
X181322923Y-94735993D01*
X181322923Y-94735993D02*
X181433252Y-94813246D01*
X181433252Y-94813246D02*
X181496686Y-94898768D01*
X181496686Y-94898768D02*
X181576657Y-95078082D01*
X181576657Y-95078082D02*
X181601464Y-95218769D01*
X181601464Y-95218769D02*
X181587644Y-95414620D01*
X181587644Y-95414620D02*
X181557287Y-95516680D01*
X181557287Y-95516680D02*
X181480033Y-95627009D01*
X181480033Y-95627009D02*
X181347616Y-95698712D01*
X181347616Y-95698712D02*
X181113138Y-95740057D01*
X181893939Y-94683661D02*
X181932566Y-94628496D01*
X181932566Y-94628496D02*
X182018088Y-94565063D01*
X182018088Y-94565063D02*
X182252566Y-94523718D01*
X182252566Y-94523718D02*
X182354627Y-94554076D01*
X182354627Y-94554076D02*
X182409791Y-94592702D01*
X182409791Y-94592702D02*
X182473225Y-94678225D01*
X182473225Y-94678225D02*
X182489763Y-94772016D01*
X182489763Y-94772016D02*
X182467674Y-94920972D01*
X182467674Y-94920972D02*
X182004154Y-95582946D01*
X182004154Y-95582946D02*
X182613797Y-95475450D01*
X199833333Y-30429580D02*
X199785714Y-30477200D01*
X199785714Y-30477200D02*
X199642857Y-30524819D01*
X199642857Y-30524819D02*
X199547619Y-30524819D01*
X199547619Y-30524819D02*
X199404762Y-30477200D01*
X199404762Y-30477200D02*
X199309524Y-30381961D01*
X199309524Y-30381961D02*
X199261905Y-30286723D01*
X199261905Y-30286723D02*
X199214286Y-30096247D01*
X199214286Y-30096247D02*
X199214286Y-29953390D01*
X199214286Y-29953390D02*
X199261905Y-29762914D01*
X199261905Y-29762914D02*
X199309524Y-29667676D01*
X199309524Y-29667676D02*
X199404762Y-29572438D01*
X199404762Y-29572438D02*
X199547619Y-29524819D01*
X199547619Y-29524819D02*
X199642857Y-29524819D01*
X199642857Y-29524819D02*
X199785714Y-29572438D01*
X199785714Y-29572438D02*
X199833333Y-29620057D01*
X200404762Y-29953390D02*
X200309524Y-29905771D01*
X200309524Y-29905771D02*
X200261905Y-29858152D01*
X200261905Y-29858152D02*
X200214286Y-29762914D01*
X200214286Y-29762914D02*
X200214286Y-29715295D01*
X200214286Y-29715295D02*
X200261905Y-29620057D01*
X200261905Y-29620057D02*
X200309524Y-29572438D01*
X200309524Y-29572438D02*
X200404762Y-29524819D01*
X200404762Y-29524819D02*
X200595238Y-29524819D01*
X200595238Y-29524819D02*
X200690476Y-29572438D01*
X200690476Y-29572438D02*
X200738095Y-29620057D01*
X200738095Y-29620057D02*
X200785714Y-29715295D01*
X200785714Y-29715295D02*
X200785714Y-29762914D01*
X200785714Y-29762914D02*
X200738095Y-29858152D01*
X200738095Y-29858152D02*
X200690476Y-29905771D01*
X200690476Y-29905771D02*
X200595238Y-29953390D01*
X200595238Y-29953390D02*
X200404762Y-29953390D01*
X200404762Y-29953390D02*
X200309524Y-30001009D01*
X200309524Y-30001009D02*
X200261905Y-30048628D01*
X200261905Y-30048628D02*
X200214286Y-30143866D01*
X200214286Y-30143866D02*
X200214286Y-30334342D01*
X200214286Y-30334342D02*
X200261905Y-30429580D01*
X200261905Y-30429580D02*
X200309524Y-30477200D01*
X200309524Y-30477200D02*
X200404762Y-30524819D01*
X200404762Y-30524819D02*
X200595238Y-30524819D01*
X200595238Y-30524819D02*
X200690476Y-30477200D01*
X200690476Y-30477200D02*
X200738095Y-30429580D01*
X200738095Y-30429580D02*
X200785714Y-30334342D01*
X200785714Y-30334342D02*
X200785714Y-30143866D01*
X200785714Y-30143866D02*
X200738095Y-30048628D01*
X200738095Y-30048628D02*
X200690476Y-30001009D01*
X200690476Y-30001009D02*
X200595238Y-29953390D01*
X167058333Y-37789580D02*
X167010714Y-37837200D01*
X167010714Y-37837200D02*
X166867857Y-37884819D01*
X166867857Y-37884819D02*
X166772619Y-37884819D01*
X166772619Y-37884819D02*
X166629762Y-37837200D01*
X166629762Y-37837200D02*
X166534524Y-37741961D01*
X166534524Y-37741961D02*
X166486905Y-37646723D01*
X166486905Y-37646723D02*
X166439286Y-37456247D01*
X166439286Y-37456247D02*
X166439286Y-37313390D01*
X166439286Y-37313390D02*
X166486905Y-37122914D01*
X166486905Y-37122914D02*
X166534524Y-37027676D01*
X166534524Y-37027676D02*
X166629762Y-36932438D01*
X166629762Y-36932438D02*
X166772619Y-36884819D01*
X166772619Y-36884819D02*
X166867857Y-36884819D01*
X166867857Y-36884819D02*
X167010714Y-36932438D01*
X167010714Y-36932438D02*
X167058333Y-36980057D01*
X167963095Y-36884819D02*
X167486905Y-36884819D01*
X167486905Y-36884819D02*
X167439286Y-37361009D01*
X167439286Y-37361009D02*
X167486905Y-37313390D01*
X167486905Y-37313390D02*
X167582143Y-37265771D01*
X167582143Y-37265771D02*
X167820238Y-37265771D01*
X167820238Y-37265771D02*
X167915476Y-37313390D01*
X167915476Y-37313390D02*
X167963095Y-37361009D01*
X167963095Y-37361009D02*
X168010714Y-37456247D01*
X168010714Y-37456247D02*
X168010714Y-37694342D01*
X168010714Y-37694342D02*
X167963095Y-37789580D01*
X167963095Y-37789580D02*
X167915476Y-37837200D01*
X167915476Y-37837200D02*
X167820238Y-37884819D01*
X167820238Y-37884819D02*
X167582143Y-37884819D01*
X167582143Y-37884819D02*
X167486905Y-37837200D01*
X167486905Y-37837200D02*
X167439286Y-37789580D01*
X180483333Y-25304819D02*
X180150000Y-24828628D01*
X179911905Y-25304819D02*
X179911905Y-24304819D01*
X179911905Y-24304819D02*
X180292857Y-24304819D01*
X180292857Y-24304819D02*
X180388095Y-24352438D01*
X180388095Y-24352438D02*
X180435714Y-24400057D01*
X180435714Y-24400057D02*
X180483333Y-24495295D01*
X180483333Y-24495295D02*
X180483333Y-24638152D01*
X180483333Y-24638152D02*
X180435714Y-24733390D01*
X180435714Y-24733390D02*
X180388095Y-24781009D01*
X180388095Y-24781009D02*
X180292857Y-24828628D01*
X180292857Y-24828628D02*
X179911905Y-24828628D01*
X180816667Y-24304819D02*
X181483333Y-24304819D01*
X181483333Y-24304819D02*
X181054762Y-25304819D01*
X165632142Y-46289580D02*
X165584523Y-46337200D01*
X165584523Y-46337200D02*
X165441666Y-46384819D01*
X165441666Y-46384819D02*
X165346428Y-46384819D01*
X165346428Y-46384819D02*
X165203571Y-46337200D01*
X165203571Y-46337200D02*
X165108333Y-46241961D01*
X165108333Y-46241961D02*
X165060714Y-46146723D01*
X165060714Y-46146723D02*
X165013095Y-45956247D01*
X165013095Y-45956247D02*
X165013095Y-45813390D01*
X165013095Y-45813390D02*
X165060714Y-45622914D01*
X165060714Y-45622914D02*
X165108333Y-45527676D01*
X165108333Y-45527676D02*
X165203571Y-45432438D01*
X165203571Y-45432438D02*
X165346428Y-45384819D01*
X165346428Y-45384819D02*
X165441666Y-45384819D01*
X165441666Y-45384819D02*
X165584523Y-45432438D01*
X165584523Y-45432438D02*
X165632142Y-45480057D01*
X166584523Y-46384819D02*
X166013095Y-46384819D01*
X166298809Y-46384819D02*
X166298809Y-45384819D01*
X166298809Y-45384819D02*
X166203571Y-45527676D01*
X166203571Y-45527676D02*
X166108333Y-45622914D01*
X166108333Y-45622914D02*
X166013095Y-45670533D01*
X167489285Y-45384819D02*
X167013095Y-45384819D01*
X167013095Y-45384819D02*
X166965476Y-45861009D01*
X166965476Y-45861009D02*
X167013095Y-45813390D01*
X167013095Y-45813390D02*
X167108333Y-45765771D01*
X167108333Y-45765771D02*
X167346428Y-45765771D01*
X167346428Y-45765771D02*
X167441666Y-45813390D01*
X167441666Y-45813390D02*
X167489285Y-45861009D01*
X167489285Y-45861009D02*
X167536904Y-45956247D01*
X167536904Y-45956247D02*
X167536904Y-46194342D01*
X167536904Y-46194342D02*
X167489285Y-46289580D01*
X167489285Y-46289580D02*
X167441666Y-46337200D01*
X167441666Y-46337200D02*
X167346428Y-46384819D01*
X167346428Y-46384819D02*
X167108333Y-46384819D01*
X167108333Y-46384819D02*
X167013095Y-46337200D01*
X167013095Y-46337200D02*
X166965476Y-46289580D01*
X174582142Y-21429580D02*
X174534523Y-21477200D01*
X174534523Y-21477200D02*
X174391666Y-21524819D01*
X174391666Y-21524819D02*
X174296428Y-21524819D01*
X174296428Y-21524819D02*
X174153571Y-21477200D01*
X174153571Y-21477200D02*
X174058333Y-21381961D01*
X174058333Y-21381961D02*
X174010714Y-21286723D01*
X174010714Y-21286723D02*
X173963095Y-21096247D01*
X173963095Y-21096247D02*
X173963095Y-20953390D01*
X173963095Y-20953390D02*
X174010714Y-20762914D01*
X174010714Y-20762914D02*
X174058333Y-20667676D01*
X174058333Y-20667676D02*
X174153571Y-20572438D01*
X174153571Y-20572438D02*
X174296428Y-20524819D01*
X174296428Y-20524819D02*
X174391666Y-20524819D01*
X174391666Y-20524819D02*
X174534523Y-20572438D01*
X174534523Y-20572438D02*
X174582142Y-20620057D01*
X175534523Y-21524819D02*
X174963095Y-21524819D01*
X175248809Y-21524819D02*
X175248809Y-20524819D01*
X175248809Y-20524819D02*
X175153571Y-20667676D01*
X175153571Y-20667676D02*
X175058333Y-20762914D01*
X175058333Y-20762914D02*
X174963095Y-20810533D01*
X175915476Y-20620057D02*
X175963095Y-20572438D01*
X175963095Y-20572438D02*
X176058333Y-20524819D01*
X176058333Y-20524819D02*
X176296428Y-20524819D01*
X176296428Y-20524819D02*
X176391666Y-20572438D01*
X176391666Y-20572438D02*
X176439285Y-20620057D01*
X176439285Y-20620057D02*
X176486904Y-20715295D01*
X176486904Y-20715295D02*
X176486904Y-20810533D01*
X176486904Y-20810533D02*
X176439285Y-20953390D01*
X176439285Y-20953390D02*
X175867857Y-21524819D01*
X175867857Y-21524819D02*
X176486904Y-21524819D01*
X152795714Y-124804819D02*
X152795714Y-123804819D01*
X152795714Y-123804819D02*
X153033809Y-123804819D01*
X153033809Y-123804819D02*
X153176666Y-123852438D01*
X153176666Y-123852438D02*
X153271904Y-123947676D01*
X153271904Y-123947676D02*
X153319523Y-124042914D01*
X153319523Y-124042914D02*
X153367142Y-124233390D01*
X153367142Y-124233390D02*
X153367142Y-124376247D01*
X153367142Y-124376247D02*
X153319523Y-124566723D01*
X153319523Y-124566723D02*
X153271904Y-124661961D01*
X153271904Y-124661961D02*
X153176666Y-124757200D01*
X153176666Y-124757200D02*
X153033809Y-124804819D01*
X153033809Y-124804819D02*
X152795714Y-124804819D01*
X154319523Y-124804819D02*
X153748095Y-124804819D01*
X154033809Y-124804819D02*
X154033809Y-123804819D01*
X154033809Y-123804819D02*
X153938571Y-123947676D01*
X153938571Y-123947676D02*
X153843333Y-124042914D01*
X153843333Y-124042914D02*
X153748095Y-124090533D01*
X154938571Y-123804819D02*
X155033809Y-123804819D01*
X155033809Y-123804819D02*
X155129047Y-123852438D01*
X155129047Y-123852438D02*
X155176666Y-123900057D01*
X155176666Y-123900057D02*
X155224285Y-123995295D01*
X155224285Y-123995295D02*
X155271904Y-124185771D01*
X155271904Y-124185771D02*
X155271904Y-124423866D01*
X155271904Y-124423866D02*
X155224285Y-124614342D01*
X155224285Y-124614342D02*
X155176666Y-124709580D01*
X155176666Y-124709580D02*
X155129047Y-124757200D01*
X155129047Y-124757200D02*
X155033809Y-124804819D01*
X155033809Y-124804819D02*
X154938571Y-124804819D01*
X154938571Y-124804819D02*
X154843333Y-124757200D01*
X154843333Y-124757200D02*
X154795714Y-124709580D01*
X154795714Y-124709580D02*
X154748095Y-124614342D01*
X154748095Y-124614342D02*
X154700476Y-124423866D01*
X154700476Y-124423866D02*
X154700476Y-124185771D01*
X154700476Y-124185771D02*
X154748095Y-123995295D01*
X154748095Y-123995295D02*
X154795714Y-123900057D01*
X154795714Y-123900057D02*
X154843333Y-123852438D01*
X154843333Y-123852438D02*
X154938571Y-123804819D01*
X81978028Y-86400957D02*
X82151676Y-85416150D01*
X82151676Y-85416150D02*
X82386154Y-85457494D01*
X82386154Y-85457494D02*
X82518572Y-85529197D01*
X82518572Y-85529197D02*
X82595825Y-85639526D01*
X82595825Y-85639526D02*
X82626183Y-85741586D01*
X82626183Y-85741586D02*
X82640003Y-85937438D01*
X82640003Y-85937438D02*
X82615196Y-86078124D01*
X82615196Y-86078124D02*
X82535224Y-86257438D01*
X82535224Y-86257438D02*
X82471791Y-86342960D01*
X82471791Y-86342960D02*
X82361462Y-86420213D01*
X82361462Y-86420213D02*
X82212506Y-86442302D01*
X82212506Y-86442302D02*
X81978028Y-86400957D01*
X83478687Y-86665564D02*
X82915940Y-86566337D01*
X83197314Y-86615950D02*
X83370962Y-85631143D01*
X83370962Y-85631143D02*
X83252364Y-85755291D01*
X83252364Y-85755291D02*
X83142035Y-85832545D01*
X83142035Y-85832545D02*
X83039975Y-85862902D01*
X83980605Y-85738639D02*
X84590248Y-85846136D01*
X84590248Y-85846136D02*
X84195827Y-86163418D01*
X84195827Y-86163418D02*
X84336514Y-86188225D01*
X84336514Y-86188225D02*
X84422036Y-86251658D01*
X84422036Y-86251658D02*
X84460663Y-86306823D01*
X84460663Y-86306823D02*
X84491020Y-86408883D01*
X84491020Y-86408883D02*
X84449675Y-86643361D01*
X84449675Y-86643361D02*
X84386242Y-86728883D01*
X84386242Y-86728883D02*
X84331077Y-86767510D01*
X84331077Y-86767510D02*
X84229017Y-86797867D01*
X84229017Y-86797867D02*
X83947644Y-86748254D01*
X83947644Y-86748254D02*
X83862121Y-86684820D01*
X83862121Y-86684820D02*
X83823495Y-86629656D01*
X179833333Y-22454819D02*
X179500000Y-21978628D01*
X179261905Y-22454819D02*
X179261905Y-21454819D01*
X179261905Y-21454819D02*
X179642857Y-21454819D01*
X179642857Y-21454819D02*
X179738095Y-21502438D01*
X179738095Y-21502438D02*
X179785714Y-21550057D01*
X179785714Y-21550057D02*
X179833333Y-21645295D01*
X179833333Y-21645295D02*
X179833333Y-21788152D01*
X179833333Y-21788152D02*
X179785714Y-21883390D01*
X179785714Y-21883390D02*
X179738095Y-21931009D01*
X179738095Y-21931009D02*
X179642857Y-21978628D01*
X179642857Y-21978628D02*
X179261905Y-21978628D01*
X180690476Y-21454819D02*
X180500000Y-21454819D01*
X180500000Y-21454819D02*
X180404762Y-21502438D01*
X180404762Y-21502438D02*
X180357143Y-21550057D01*
X180357143Y-21550057D02*
X180261905Y-21692914D01*
X180261905Y-21692914D02*
X180214286Y-21883390D01*
X180214286Y-21883390D02*
X180214286Y-22264342D01*
X180214286Y-22264342D02*
X180261905Y-22359580D01*
X180261905Y-22359580D02*
X180309524Y-22407200D01*
X180309524Y-22407200D02*
X180404762Y-22454819D01*
X180404762Y-22454819D02*
X180595238Y-22454819D01*
X180595238Y-22454819D02*
X180690476Y-22407200D01*
X180690476Y-22407200D02*
X180738095Y-22359580D01*
X180738095Y-22359580D02*
X180785714Y-22264342D01*
X180785714Y-22264342D02*
X180785714Y-22026247D01*
X180785714Y-22026247D02*
X180738095Y-21931009D01*
X180738095Y-21931009D02*
X180690476Y-21883390D01*
X180690476Y-21883390D02*
X180595238Y-21835771D01*
X180595238Y-21835771D02*
X180404762Y-21835771D01*
X180404762Y-21835771D02*
X180309524Y-21883390D01*
X180309524Y-21883390D02*
X180261905Y-21931009D01*
X180261905Y-21931009D02*
X180214286Y-22026247D01*
X147738095Y-25554819D02*
X147738095Y-26364342D01*
X147738095Y-26364342D02*
X147785714Y-26459580D01*
X147785714Y-26459580D02*
X147833333Y-26507200D01*
X147833333Y-26507200D02*
X147928571Y-26554819D01*
X147928571Y-26554819D02*
X148119047Y-26554819D01*
X148119047Y-26554819D02*
X148214285Y-26507200D01*
X148214285Y-26507200D02*
X148261904Y-26459580D01*
X148261904Y-26459580D02*
X148309523Y-26364342D01*
X148309523Y-26364342D02*
X148309523Y-25554819D01*
X148690476Y-25554819D02*
X149309523Y-25554819D01*
X149309523Y-25554819D02*
X148976190Y-25935771D01*
X148976190Y-25935771D02*
X149119047Y-25935771D01*
X149119047Y-25935771D02*
X149214285Y-25983390D01*
X149214285Y-25983390D02*
X149261904Y-26031009D01*
X149261904Y-26031009D02*
X149309523Y-26126247D01*
X149309523Y-26126247D02*
X149309523Y-26364342D01*
X149309523Y-26364342D02*
X149261904Y-26459580D01*
X149261904Y-26459580D02*
X149214285Y-26507200D01*
X149214285Y-26507200D02*
X149119047Y-26554819D01*
X149119047Y-26554819D02*
X148833333Y-26554819D01*
X148833333Y-26554819D02*
X148738095Y-26507200D01*
X148738095Y-26507200D02*
X148690476Y-26459580D01*
X85969189Y-66796174D02*
X86142837Y-65811366D01*
X86142837Y-65811366D02*
X86377315Y-65852711D01*
X86377315Y-65852711D02*
X86509733Y-65924414D01*
X86509733Y-65924414D02*
X86586986Y-66034743D01*
X86586986Y-66034743D02*
X86617344Y-66136803D01*
X86617344Y-66136803D02*
X86631163Y-66332654D01*
X86631163Y-66332654D02*
X86606356Y-66473341D01*
X86606356Y-66473341D02*
X86526385Y-66652655D01*
X86526385Y-66652655D02*
X86462952Y-66738177D01*
X86462952Y-66738177D02*
X86352622Y-66815430D01*
X86352622Y-66815430D02*
X86203667Y-66837519D01*
X86203667Y-66837519D02*
X85969189Y-66796174D01*
X87193911Y-66431882D02*
X87108388Y-66368448D01*
X87108388Y-66368448D02*
X87069762Y-66313284D01*
X87069762Y-66313284D02*
X87039404Y-66211224D01*
X87039404Y-66211224D02*
X87047673Y-66164328D01*
X87047673Y-66164328D02*
X87111107Y-66078806D01*
X87111107Y-66078806D02*
X87166271Y-66040179D01*
X87166271Y-66040179D02*
X87268331Y-66009821D01*
X87268331Y-66009821D02*
X87455914Y-66042897D01*
X87455914Y-66042897D02*
X87541436Y-66106331D01*
X87541436Y-66106331D02*
X87580063Y-66161495D01*
X87580063Y-66161495D02*
X87610420Y-66263555D01*
X87610420Y-66263555D02*
X87602151Y-66310451D01*
X87602151Y-66310451D02*
X87538718Y-66395973D01*
X87538718Y-66395973D02*
X87483553Y-66434600D01*
X87483553Y-66434600D02*
X87381493Y-66464958D01*
X87381493Y-66464958D02*
X87193911Y-66431882D01*
X87193911Y-66431882D02*
X87091850Y-66462239D01*
X87091850Y-66462239D02*
X87036686Y-66500866D01*
X87036686Y-66500866D02*
X86973252Y-66586388D01*
X86973252Y-66586388D02*
X86940177Y-66773971D01*
X86940177Y-66773971D02*
X86970534Y-66876031D01*
X86970534Y-66876031D02*
X87009161Y-66931196D01*
X87009161Y-66931196D02*
X87094683Y-66994629D01*
X87094683Y-66994629D02*
X87282266Y-67027705D01*
X87282266Y-67027705D02*
X87384326Y-66997347D01*
X87384326Y-66997347D02*
X87439490Y-66958721D01*
X87439490Y-66958721D02*
X87502924Y-66873198D01*
X87502924Y-66873198D02*
X87536000Y-66685616D01*
X87536000Y-66685616D02*
X87505642Y-66583556D01*
X87505642Y-66583556D02*
X87467015Y-66528391D01*
X87467015Y-66528391D02*
X87381493Y-66464958D01*
X124151113Y-94852636D02*
X124324761Y-93867829D01*
X124324761Y-93867829D02*
X124559239Y-93909173D01*
X124559239Y-93909173D02*
X124691657Y-93980876D01*
X124691657Y-93980876D02*
X124768910Y-94091205D01*
X124768910Y-94091205D02*
X124799268Y-94193265D01*
X124799268Y-94193265D02*
X124813088Y-94389117D01*
X124813088Y-94389117D02*
X124788281Y-94529803D01*
X124788281Y-94529803D02*
X124708309Y-94709117D01*
X124708309Y-94709117D02*
X124644876Y-94794639D01*
X124644876Y-94794639D02*
X124534547Y-94871892D01*
X124534547Y-94871892D02*
X124385591Y-94893981D01*
X124385591Y-94893981D02*
X124151113Y-94852636D01*
X125651772Y-95117243D02*
X125089025Y-95018016D01*
X125370399Y-95067629D02*
X125544047Y-94082822D01*
X125544047Y-94082822D02*
X125425449Y-94206970D01*
X125425449Y-94206970D02*
X125315120Y-94284224D01*
X125315120Y-94284224D02*
X125213060Y-94314581D01*
X126589685Y-95282622D02*
X126026937Y-95183395D01*
X126308311Y-95233009D02*
X126481959Y-94248201D01*
X126481959Y-94248201D02*
X126363361Y-94372350D01*
X126363361Y-94372350D02*
X126253032Y-94449603D01*
X126253032Y-94449603D02*
X126150972Y-94479961D01*
X174082142Y-44289580D02*
X174034523Y-44337200D01*
X174034523Y-44337200D02*
X173891666Y-44384819D01*
X173891666Y-44384819D02*
X173796428Y-44384819D01*
X173796428Y-44384819D02*
X173653571Y-44337200D01*
X173653571Y-44337200D02*
X173558333Y-44241961D01*
X173558333Y-44241961D02*
X173510714Y-44146723D01*
X173510714Y-44146723D02*
X173463095Y-43956247D01*
X173463095Y-43956247D02*
X173463095Y-43813390D01*
X173463095Y-43813390D02*
X173510714Y-43622914D01*
X173510714Y-43622914D02*
X173558333Y-43527676D01*
X173558333Y-43527676D02*
X173653571Y-43432438D01*
X173653571Y-43432438D02*
X173796428Y-43384819D01*
X173796428Y-43384819D02*
X173891666Y-43384819D01*
X173891666Y-43384819D02*
X174034523Y-43432438D01*
X174034523Y-43432438D02*
X174082142Y-43480057D01*
X175034523Y-44384819D02*
X174463095Y-44384819D01*
X174748809Y-44384819D02*
X174748809Y-43384819D01*
X174748809Y-43384819D02*
X174653571Y-43527676D01*
X174653571Y-43527676D02*
X174558333Y-43622914D01*
X174558333Y-43622914D02*
X174463095Y-43670533D01*
X175653571Y-43384819D02*
X175748809Y-43384819D01*
X175748809Y-43384819D02*
X175844047Y-43432438D01*
X175844047Y-43432438D02*
X175891666Y-43480057D01*
X175891666Y-43480057D02*
X175939285Y-43575295D01*
X175939285Y-43575295D02*
X175986904Y-43765771D01*
X175986904Y-43765771D02*
X175986904Y-44003866D01*
X175986904Y-44003866D02*
X175939285Y-44194342D01*
X175939285Y-44194342D02*
X175891666Y-44289580D01*
X175891666Y-44289580D02*
X175844047Y-44337200D01*
X175844047Y-44337200D02*
X175748809Y-44384819D01*
X175748809Y-44384819D02*
X175653571Y-44384819D01*
X175653571Y-44384819D02*
X175558333Y-44337200D01*
X175558333Y-44337200D02*
X175510714Y-44289580D01*
X175510714Y-44289580D02*
X175463095Y-44194342D01*
X175463095Y-44194342D02*
X175415476Y-44003866D01*
X175415476Y-44003866D02*
X175415476Y-43765771D01*
X175415476Y-43765771D02*
X175463095Y-43575295D01*
X175463095Y-43575295D02*
X175510714Y-43480057D01*
X175510714Y-43480057D02*
X175558333Y-43432438D01*
X175558333Y-43432438D02*
X175653571Y-43384819D01*
X61094877Y-86780400D02*
X61268525Y-85795593D01*
X61268525Y-85795593D02*
X61503003Y-85836937D01*
X61503003Y-85836937D02*
X61635421Y-85908640D01*
X61635421Y-85908640D02*
X61712674Y-86018969D01*
X61712674Y-86018969D02*
X61743032Y-86121029D01*
X61743032Y-86121029D02*
X61756852Y-86316881D01*
X61756852Y-86316881D02*
X61732045Y-86457567D01*
X61732045Y-86457567D02*
X61652073Y-86636881D01*
X61652073Y-86636881D02*
X61588640Y-86722403D01*
X61588640Y-86722403D02*
X61478311Y-86799656D01*
X61478311Y-86799656D02*
X61329355Y-86821745D01*
X61329355Y-86821745D02*
X61094877Y-86780400D01*
X62595536Y-87045007D02*
X62032789Y-86945780D01*
X62314163Y-86995393D02*
X62487811Y-86010586D01*
X62487811Y-86010586D02*
X62369213Y-86134734D01*
X62369213Y-86134734D02*
X62258884Y-86211988D01*
X62258884Y-86211988D02*
X62156824Y-86242345D01*
X63555423Y-86537310D02*
X63439657Y-87193848D01*
X63387096Y-86120800D02*
X63028584Y-86782890D01*
X63028584Y-86782890D02*
X63638227Y-86890386D01*
X113166666Y-18279819D02*
X113166666Y-18994104D01*
X113166666Y-18994104D02*
X113119047Y-19136961D01*
X113119047Y-19136961D02*
X113023809Y-19232200D01*
X113023809Y-19232200D02*
X112880952Y-19279819D01*
X112880952Y-19279819D02*
X112785714Y-19279819D01*
X114166666Y-19279819D02*
X113595238Y-19279819D01*
X113880952Y-19279819D02*
X113880952Y-18279819D01*
X113880952Y-18279819D02*
X113785714Y-18422676D01*
X113785714Y-18422676D02*
X113690476Y-18517914D01*
X113690476Y-18517914D02*
X113595238Y-18565533D01*
D12*
X69880952Y-131872257D02*
X69880952Y-128872257D01*
X74642857Y-131872257D02*
X74642857Y-129872257D01*
X74642857Y-130157971D02*
X75119047Y-130015114D01*
X75119047Y-130015114D02*
X76071428Y-129872257D01*
X76071428Y-129872257D02*
X77500000Y-129872257D01*
X77500000Y-129872257D02*
X78452381Y-130015114D01*
X78452381Y-130015114D02*
X78928571Y-130300828D01*
X78928571Y-130300828D02*
X78928571Y-131872257D01*
X78928571Y-130300828D02*
X79404762Y-130015114D01*
X79404762Y-130015114D02*
X80357143Y-129872257D01*
X80357143Y-129872257D02*
X81785714Y-129872257D01*
X81785714Y-129872257D02*
X82738095Y-130015114D01*
X82738095Y-130015114D02*
X83214285Y-130300828D01*
X83214285Y-130300828D02*
X83214285Y-131872257D01*
X87976190Y-129872257D02*
X87976190Y-132872257D01*
X87976190Y-130015114D02*
X88928571Y-129872257D01*
X88928571Y-129872257D02*
X90833333Y-129872257D01*
X90833333Y-129872257D02*
X91785714Y-130015114D01*
X91785714Y-130015114D02*
X92261904Y-130157971D01*
X92261904Y-130157971D02*
X92738095Y-130443685D01*
X92738095Y-130443685D02*
X92738095Y-131300828D01*
X92738095Y-131300828D02*
X92261904Y-131586542D01*
X92261904Y-131586542D02*
X91785714Y-131729400D01*
X91785714Y-131729400D02*
X90833333Y-131872257D01*
X90833333Y-131872257D02*
X88928571Y-131872257D01*
X88928571Y-131872257D02*
X87976190Y-131729400D01*
X101309523Y-129872257D02*
X101309523Y-131872257D01*
X97023809Y-129872257D02*
X97023809Y-131443685D01*
X97023809Y-131443685D02*
X97499999Y-131729400D01*
X97499999Y-131729400D02*
X98452380Y-131872257D01*
X98452380Y-131872257D02*
X99880952Y-131872257D01*
X99880952Y-131872257D02*
X100833333Y-131729400D01*
X100833333Y-131729400D02*
X101309523Y-131586542D01*
X106071428Y-131872257D02*
X106071428Y-129872257D01*
X106071428Y-130443685D02*
X106547618Y-130157971D01*
X106547618Y-130157971D02*
X107023809Y-130015114D01*
X107023809Y-130015114D02*
X107976190Y-129872257D01*
X107976190Y-129872257D02*
X108928571Y-129872257D01*
X116071428Y-131729400D02*
X115119047Y-131872257D01*
X115119047Y-131872257D02*
X113214285Y-131872257D01*
X113214285Y-131872257D02*
X112261904Y-131729400D01*
X112261904Y-131729400D02*
X111785713Y-131443685D01*
X111785713Y-131443685D02*
X111785713Y-130300828D01*
X111785713Y-130300828D02*
X112261904Y-130015114D01*
X112261904Y-130015114D02*
X113214285Y-129872257D01*
X113214285Y-129872257D02*
X115119047Y-129872257D01*
X115119047Y-129872257D02*
X116071428Y-130015114D01*
X116071428Y-130015114D02*
X116547618Y-130300828D01*
X116547618Y-130300828D02*
X116547618Y-130586542D01*
X116547618Y-130586542D02*
X111785713Y-130872257D01*
X127023809Y-129872257D02*
X130833333Y-129872257D01*
X128452381Y-131872257D02*
X128452381Y-129300828D01*
X128452381Y-129300828D02*
X128928571Y-129015114D01*
X128928571Y-129015114D02*
X129880952Y-128872257D01*
X129880952Y-128872257D02*
X130833333Y-128872257D01*
X135595238Y-131872257D02*
X134642857Y-131729400D01*
X134642857Y-131729400D02*
X134166667Y-131586542D01*
X134166667Y-131586542D02*
X133690476Y-131300828D01*
X133690476Y-131300828D02*
X133690476Y-130443685D01*
X133690476Y-130443685D02*
X134166667Y-130157971D01*
X134166667Y-130157971D02*
X134642857Y-130015114D01*
X134642857Y-130015114D02*
X135595238Y-129872257D01*
X135595238Y-129872257D02*
X137023810Y-129872257D01*
X137023810Y-129872257D02*
X137976191Y-130015114D01*
X137976191Y-130015114D02*
X138452381Y-130157971D01*
X138452381Y-130157971D02*
X138928572Y-130443685D01*
X138928572Y-130443685D02*
X138928572Y-131300828D01*
X138928572Y-131300828D02*
X138452381Y-131586542D01*
X138452381Y-131586542D02*
X137976191Y-131729400D01*
X137976191Y-131729400D02*
X137023810Y-131872257D01*
X137023810Y-131872257D02*
X135595238Y-131872257D01*
X144642857Y-131872257D02*
X143690476Y-131729400D01*
X143690476Y-131729400D02*
X143214286Y-131586542D01*
X143214286Y-131586542D02*
X142738095Y-131300828D01*
X142738095Y-131300828D02*
X142738095Y-130443685D01*
X142738095Y-130443685D02*
X143214286Y-130157971D01*
X143214286Y-130157971D02*
X143690476Y-130015114D01*
X143690476Y-130015114D02*
X144642857Y-129872257D01*
X144642857Y-129872257D02*
X146071429Y-129872257D01*
X146071429Y-129872257D02*
X147023810Y-130015114D01*
X147023810Y-130015114D02*
X147500000Y-130157971D01*
X147500000Y-130157971D02*
X147976191Y-130443685D01*
X147976191Y-130443685D02*
X147976191Y-131300828D01*
X147976191Y-131300828D02*
X147500000Y-131586542D01*
X147500000Y-131586542D02*
X147023810Y-131729400D01*
X147023810Y-131729400D02*
X146071429Y-131872257D01*
X146071429Y-131872257D02*
X144642857Y-131872257D01*
X153690476Y-131872257D02*
X152738095Y-131729400D01*
X152738095Y-131729400D02*
X152261905Y-131443685D01*
X152261905Y-131443685D02*
X152261905Y-128872257D01*
X157023809Y-131729400D02*
X157976190Y-131872257D01*
X157976190Y-131872257D02*
X159880952Y-131872257D01*
X159880952Y-131872257D02*
X160833333Y-131729400D01*
X160833333Y-131729400D02*
X161309524Y-131443685D01*
X161309524Y-131443685D02*
X161309524Y-131300828D01*
X161309524Y-131300828D02*
X160833333Y-131015114D01*
X160833333Y-131015114D02*
X159880952Y-130872257D01*
X159880952Y-130872257D02*
X158452381Y-130872257D01*
X158452381Y-130872257D02*
X157500000Y-130729400D01*
X157500000Y-130729400D02*
X157023809Y-130443685D01*
X157023809Y-130443685D02*
X157023809Y-130300828D01*
X157023809Y-130300828D02*
X157500000Y-130015114D01*
X157500000Y-130015114D02*
X158452381Y-129872257D01*
X158452381Y-129872257D02*
X159880952Y-129872257D01*
X159880952Y-129872257D02*
X160833333Y-130015114D01*
X165595238Y-131586542D02*
X166071428Y-131729400D01*
X166071428Y-131729400D02*
X165595238Y-131872257D01*
X165595238Y-131872257D02*
X165119047Y-131729400D01*
X165119047Y-131729400D02*
X165595238Y-131586542D01*
X165595238Y-131586542D02*
X165595238Y-131872257D01*
X170357143Y-131586542D02*
X170833333Y-131729400D01*
X170833333Y-131729400D02*
X170357143Y-131872257D01*
X170357143Y-131872257D02*
X169880952Y-131729400D01*
X169880952Y-131729400D02*
X170357143Y-131586542D01*
X170357143Y-131586542D02*
X170357143Y-131872257D01*
X175119048Y-131586542D02*
X175595238Y-131729400D01*
X175595238Y-131729400D02*
X175119048Y-131872257D01*
X175119048Y-131872257D02*
X174642857Y-131729400D01*
X174642857Y-131729400D02*
X175119048Y-131586542D01*
X175119048Y-131586542D02*
X175119048Y-131872257D01*
%TO.C,A1*%
D11*
X135275620Y-62741508D02*
G75*
G02*
X136897944Y-65058421I-347292J-1969617D01*
G01*
X130746194Y-66055326D02*
G75*
G02*
X132686148Y-68265777I-407105J-2313791D01*
G01*
X126250720Y-65262653D02*
G75*
G02*
X125845140Y-64683425I86825J492405D01*
G01*
X136759021Y-65846266D02*
X136897940Y-65058420D01*
X136264124Y-68652969D02*
X136222448Y-68889322D01*
X135275620Y-62741508D02*
X129465255Y-61716984D01*
X127988043Y-61456512D02*
X126461591Y-61187357D01*
X126461591Y-61187357D02*
X126421652Y-61413863D01*
X126250720Y-65262653D02*
X130746194Y-66055326D01*
X125926755Y-64220565D02*
X125845140Y-64683425D01*
%TO.C,A2*%
X114863169Y-57111389D02*
G75*
G02*
X116485493Y-59428302I-347292J-1969617D01*
G01*
X110333743Y-60425207D02*
G75*
G02*
X112273697Y-62635658I-407105J-2313791D01*
G01*
X105838269Y-59632534D02*
G75*
G02*
X105432689Y-59053306I86825J492405D01*
G01*
X116346570Y-60216147D02*
X116485489Y-59428301D01*
X115851673Y-63022850D02*
X115809997Y-63259203D01*
X114863169Y-57111389D02*
X109052804Y-56086865D01*
X107575592Y-55826393D02*
X106049140Y-55557238D01*
X106049140Y-55557238D02*
X106009201Y-55783744D01*
X105838269Y-59632534D02*
X110333743Y-60425207D01*
X105514304Y-58590446D02*
X105432689Y-59053306D01*
%TO.C,A3*%
X93023751Y-54275937D02*
G75*
G02*
X94646075Y-56592850I-347292J-1969617D01*
G01*
X88494325Y-57589755D02*
G75*
G02*
X90434279Y-59800206I-407105J-2313791D01*
G01*
X83998851Y-56797082D02*
G75*
G02*
X83593271Y-56217854I86825J492405D01*
G01*
X94507152Y-57380695D02*
X94646071Y-56592849D01*
X94012255Y-60187398D02*
X93970579Y-60423751D01*
X93023751Y-54275937D02*
X87213386Y-53251413D01*
X85736174Y-52990941D02*
X84209722Y-52721786D01*
X84209722Y-52721786D02*
X84169783Y-52948292D01*
X83998851Y-56797082D02*
X88494325Y-57589755D01*
X83674886Y-55754994D02*
X83593271Y-56217854D01*
%TO.C,A4*%
X72140599Y-54655380D02*
G75*
G02*
X73762923Y-56972293I-347292J-1969617D01*
G01*
X67611173Y-57969198D02*
G75*
G02*
X69551127Y-60179649I-407105J-2313791D01*
G01*
X63115699Y-57176525D02*
G75*
G02*
X62710119Y-56597297I86825J492405D01*
G01*
X73624000Y-57760138D02*
X73762919Y-56972292D01*
X73129103Y-60566841D02*
X73087427Y-60803194D01*
X72140599Y-54655380D02*
X66330234Y-53630856D01*
X64853022Y-53370384D02*
X63326570Y-53101229D01*
X63326570Y-53101229D02*
X63286631Y-53327735D01*
X63115699Y-57176525D02*
X67611173Y-57969198D01*
X62791734Y-56134437D02*
X62710119Y-56597297D01*
%TO.C,B1*%
X131749373Y-82509502D02*
G75*
G02*
X133371697Y-84826415I-347292J-1969617D01*
G01*
X127219947Y-85823320D02*
G75*
G02*
X129159901Y-88033771I-407105J-2313791D01*
G01*
X122724473Y-85030647D02*
G75*
G02*
X122318893Y-84451419I86825J492405D01*
G01*
X133232774Y-85614260D02*
X133371693Y-84826414D01*
X132737877Y-88420963D02*
X132696201Y-88657316D01*
X131749373Y-82509502D02*
X125939008Y-81484978D01*
X124461796Y-81224506D02*
X122935344Y-80955351D01*
X122935344Y-80955351D02*
X122895405Y-81181857D01*
X122724473Y-85030647D02*
X127219947Y-85823320D01*
X122400508Y-83988559D02*
X122318893Y-84451419D01*
%TO.C,B2*%
X111311421Y-76793652D02*
G75*
G02*
X112933745Y-79110565I-347292J-1969617D01*
G01*
X106781995Y-80107470D02*
G75*
G02*
X108721949Y-82317921I-407105J-2313791D01*
G01*
X102286521Y-79314797D02*
G75*
G02*
X101880941Y-78735569I86825J492405D01*
G01*
X112794822Y-79898410D02*
X112933741Y-79110564D01*
X112299925Y-82705113D02*
X112258249Y-82941466D01*
X111311421Y-76793652D02*
X105501056Y-75769128D01*
X104023844Y-75508656D02*
X102497392Y-75239501D01*
X102497392Y-75239501D02*
X102457453Y-75466007D01*
X102286521Y-79314797D02*
X106781995Y-80107470D01*
X101962556Y-78272709D02*
X101880941Y-78735569D01*
%TO.C,B3*%
X89550787Y-73972092D02*
G75*
G02*
X91173111Y-76289005I-347292J-1969617D01*
G01*
X85021361Y-77285910D02*
G75*
G02*
X86961315Y-79496361I-407105J-2313791D01*
G01*
X80525887Y-76493237D02*
G75*
G02*
X80120307Y-75914009I86825J492405D01*
G01*
X91034188Y-77076850D02*
X91173107Y-76289004D01*
X90539291Y-79883553D02*
X90497615Y-80119906D01*
X89550787Y-73972092D02*
X83740422Y-72947568D01*
X82263210Y-72687096D02*
X80736758Y-72417941D01*
X80736758Y-72417941D02*
X80696819Y-72644447D01*
X80525887Y-76493237D02*
X85021361Y-77285910D01*
X80201922Y-75451149D02*
X80120307Y-75914009D01*
%TO.C,B4*%
X68667635Y-74351535D02*
G75*
G02*
X70289959Y-76668448I-347292J-1969617D01*
G01*
X64138209Y-77665353D02*
G75*
G02*
X66078163Y-79875804I-407105J-2313791D01*
G01*
X59642735Y-76872680D02*
G75*
G02*
X59237155Y-76293452I86825J492405D01*
G01*
X70151036Y-77456293D02*
X70289955Y-76668447D01*
X69656139Y-80262996D02*
X69614463Y-80499349D01*
X68667635Y-74351535D02*
X62857270Y-73327011D01*
X61380058Y-73066539D02*
X59853606Y-72797384D01*
X59853606Y-72797384D02*
X59813667Y-73023890D01*
X59642735Y-76872680D02*
X64138209Y-77665353D01*
X59318770Y-75830592D02*
X59237155Y-76293452D01*
%TO.C,DOWN1*%
X202850950Y-78142948D02*
G75*
G02*
X205167865Y-79765267I347300J-1969614D01*
G01*
X199728073Y-82806073D02*
G75*
G02*
X202307052Y-84219714I408812J-2313486D01*
G01*
X195232599Y-83598747D02*
G75*
G02*
X194653371Y-83193167I-86820J492410D01*
G01*
X205801678Y-83359815D02*
X205843353Y-83596169D01*
X205306780Y-80553114D02*
X205167861Y-79765268D01*
X202850950Y-78142948D02*
X197040584Y-79167472D01*
X195563372Y-79427944D02*
X194036920Y-79697100D01*
X195232599Y-83598747D02*
X199728073Y-82806073D01*
X194571757Y-82730307D02*
X194653371Y-83193167D01*
X194036920Y-79697100D02*
X194076859Y-79923605D01*
%TO.C,J2*%
D13*
X200890000Y-13785000D02*
X200890000Y-16285000D01*
X200890000Y-16285000D02*
X201940000Y-16285000D01*
X205940000Y-11815000D02*
X202060000Y-11815000D01*
X206060000Y-16285000D02*
X206060000Y-17275000D01*
X207110000Y-13785000D02*
X207110000Y-16285000D01*
X207110000Y-16285000D02*
X206060000Y-16285000D01*
%TO.C,LEFT1*%
D11*
X183430541Y-81567290D02*
G75*
G02*
X185747456Y-83189609I347300J-1969614D01*
G01*
X180307664Y-86230415D02*
G75*
G02*
X182886643Y-87644056I408812J-2313486D01*
G01*
X175812190Y-87023089D02*
G75*
G02*
X175232962Y-86617509I-86820J492410D01*
G01*
X186381269Y-86784157D02*
X186422944Y-87020511D01*
X185886371Y-83977456D02*
X185747452Y-83189610D01*
X183430541Y-81567290D02*
X177620175Y-82591814D01*
X176142963Y-82852286D02*
X174616511Y-83121442D01*
X175812190Y-87023089D02*
X180307664Y-86230415D01*
X175151348Y-86154649D02*
X175232962Y-86617509D01*
X174616511Y-83121442D02*
X174656450Y-83347947D01*
%TO.C,RIGHT1*%
X221995613Y-74767227D02*
G75*
G02*
X224312528Y-76389546I347300J-1969614D01*
G01*
X218872736Y-79430352D02*
G75*
G02*
X221451715Y-80843993I408812J-2313486D01*
G01*
X214377262Y-80223026D02*
G75*
G02*
X213798034Y-79817446I-86820J492410D01*
G01*
X224946341Y-79984094D02*
X224988016Y-80220448D01*
X224451443Y-77177393D02*
X224312524Y-76389547D01*
X221995613Y-74767227D02*
X216185247Y-75791751D01*
X214708035Y-76052223D02*
X213181583Y-76321379D01*
X214377262Y-80223026D02*
X218872736Y-79430352D01*
X213716420Y-79354586D02*
X213798034Y-79817446D01*
X213181583Y-76321379D02*
X213221522Y-76547884D01*
D13*
%TO.C,U1*%
X164890000Y-25555000D02*
X164560000Y-25795000D01*
X164560000Y-25315000D01*
X164890000Y-25555000D01*
G36*
X164890000Y-25555000D02*
G01*
X164560000Y-25795000D01*
X164560000Y-25315000D01*
X164890000Y-25555000D01*
G37*
X172640000Y-31765000D02*
X171990000Y-31765000D01*
X172640000Y-31115000D02*
X172640000Y-31765000D01*
X172640000Y-24545000D02*
X172640000Y-25195000D01*
X171990000Y-24545000D02*
X172640000Y-24545000D01*
X166070000Y-31765000D02*
X165420000Y-31765000D01*
X165420000Y-31765000D02*
X165420000Y-31115000D01*
X165420000Y-25195000D02*
X165420000Y-24545000D01*
X165420000Y-24545000D02*
X166070000Y-24545000D01*
%TO.C,U4*%
X165695000Y-21987500D02*
X165215000Y-21987500D01*
X165455000Y-21657500D01*
X165695000Y-21987500D01*
G36*
X165695000Y-21987500D02*
G01*
X165215000Y-21987500D01*
X165455000Y-21657500D01*
X165695000Y-21987500D01*
G37*
X169975000Y-21447500D02*
X169780000Y-21447500D01*
X169975000Y-15227500D02*
X169975000Y-21447500D01*
X169780000Y-15227500D02*
X169975000Y-15227500D01*
X164950000Y-21447500D02*
X164755000Y-21447500D01*
X164755000Y-21447500D02*
X164755000Y-15227500D01*
X164755000Y-15227500D02*
X164950000Y-15227500D01*
%TO.C,UP1*%
D11*
X199366329Y-58956561D02*
G75*
G02*
X201683244Y-60578880I347300J-1969614D01*
G01*
X196243452Y-63619686D02*
G75*
G02*
X198822431Y-65033327I408812J-2313486D01*
G01*
X191747978Y-64412360D02*
G75*
G02*
X191168750Y-64006780I-86820J492410D01*
G01*
X202317057Y-64173428D02*
X202358732Y-64409782D01*
X201822159Y-61366727D02*
X201683240Y-60578881D01*
X199366329Y-58956561D02*
X193555963Y-59981085D01*
X192078751Y-60241557D02*
X190552299Y-60510713D01*
X191747978Y-64412360D02*
X196243452Y-63619686D01*
X191087136Y-63543920D02*
X191168750Y-64006780D01*
X190552299Y-60510713D02*
X190592238Y-60737218D01*
%TO.C,UP2*%
X158085176Y-111329780D02*
G75*
G02*
X160085180Y-113329780I4J-2000000D01*
G01*
X154200000Y-115379780D02*
G75*
G02*
X156494322Y-117219780I866J-2349332D01*
G01*
X149635176Y-115379780D02*
G75*
G02*
X149135176Y-114879780I1J500001D01*
G01*
X160085176Y-116979780D02*
X160085176Y-117219780D01*
X160085176Y-114129780D02*
X160085176Y-113329780D01*
X158085176Y-111329780D02*
X152185176Y-111329780D01*
X150685176Y-111329780D02*
X149135176Y-111329780D01*
X149635176Y-115379780D02*
X154200000Y-115379780D01*
X149135176Y-114409780D02*
X149135176Y-114879780D01*
X149135176Y-111329780D02*
X149135176Y-111559780D01*
%TO.C,Y1*%
D13*
X168840000Y-45440000D02*
X168840000Y-48860000D01*
X168840000Y-48860000D02*
X172960000Y-48860000D01*
%TO.C,D12*%
X106772668Y-88280233D02*
X104153079Y-87818329D01*
X106772668Y-88280233D02*
X107067869Y-86606060D01*
X107067869Y-86606060D02*
X104448281Y-86144156D01*
%TO.C,D7*%
X110245632Y-68584078D02*
X107626043Y-68122174D01*
X110245632Y-68584078D02*
X110540833Y-66909905D01*
X110540833Y-66909905D02*
X107921245Y-66448001D01*
%TO.C,U2*%
X114590000Y-23440000D02*
X116410000Y-23440000D01*
X114590000Y-23490000D02*
X114590000Y-23440000D01*
X114590000Y-26560000D02*
X114590000Y-26510000D01*
X116410000Y-23440000D02*
X116410000Y-23490000D01*
X116410000Y-26510000D02*
X116410000Y-26560000D01*
X116410000Y-26560000D02*
X114590000Y-26560000D01*
X114050000Y-23490000D02*
X113810000Y-23160000D01*
X114290000Y-23160000D01*
X114050000Y-23490000D01*
G36*
X114050000Y-23490000D02*
G01*
X113810000Y-23160000D01*
X114290000Y-23160000D01*
X114050000Y-23490000D01*
G37*
%TO.C,C16*%
X161990000Y-15915580D02*
X161990000Y-15634420D01*
X163010000Y-15915580D02*
X163010000Y-15634420D01*
%TO.C,R2*%
X106227064Y-20265000D02*
X105772936Y-20265000D01*
X106227064Y-21735000D02*
X105772936Y-21735000D01*
%TO.C,R5*%
X168265000Y-39227064D02*
X168265000Y-38772936D01*
X169735000Y-39227064D02*
X169735000Y-38772936D01*
%TO.C,D5*%
X221198409Y-84960742D02*
X218578821Y-85422646D01*
X221493611Y-86634915D02*
X218874023Y-87096819D01*
X221493611Y-86634915D02*
X221198409Y-84960742D01*
%TO.C,F1*%
X127997936Y-16590000D02*
X129202064Y-16590000D01*
X127997936Y-18410000D02*
X129202064Y-18410000D01*
%TO.C,D4*%
X198695342Y-69635534D02*
X196075754Y-70097438D01*
X198990544Y-71309707D02*
X196370956Y-71771611D01*
X198990544Y-71309707D02*
X198695342Y-69635534D01*
%TO.C,C4*%
X24865580Y-32510000D02*
X24584420Y-32510000D01*
X24865580Y-31490000D02*
X24584420Y-31490000D01*
%TO.C,C6*%
X29140580Y-46010000D02*
X28859420Y-46010000D01*
X29140580Y-44990000D02*
X28859420Y-44990000D01*
%TO.C,D6*%
X130658083Y-74214197D02*
X128038494Y-73752293D01*
X130658083Y-74214197D02*
X130953284Y-72540024D01*
X130953284Y-72540024D02*
X128333696Y-72078120D01*
%TO.C,C14*%
X166365580Y-50510000D02*
X166084420Y-50510000D01*
X166365580Y-49490000D02*
X166084420Y-49490000D01*
%TO.C,C2*%
X178290580Y-25990000D02*
X178009420Y-25990000D01*
X178290580Y-27010000D02*
X178009420Y-27010000D01*
%TO.C,D3*%
X202130723Y-88830603D02*
X199511135Y-89292507D01*
X202425925Y-90504776D02*
X199806337Y-90966680D01*
X202425925Y-90504776D02*
X202130723Y-88830603D01*
%TO.C,R4*%
X178765000Y-18139564D02*
X178765000Y-17685436D01*
X180235000Y-18139564D02*
X180235000Y-17685436D01*
%TO.C,C11*%
X161490000Y-32134420D02*
X161490000Y-32415580D01*
X162510000Y-32134420D02*
X162510000Y-32415580D01*
%TO.C,R3*%
X173765000Y-18139564D02*
X173765000Y-17685436D01*
X175235000Y-18139564D02*
X175235000Y-17685436D01*
%TO.C,C9*%
X154915580Y-30010000D02*
X154634420Y-30010000D01*
X154915580Y-28990000D02*
X154634420Y-28990000D01*
%TO.C,C13*%
X174634420Y-33010000D02*
X174915580Y-33010000D01*
X174634420Y-31990000D02*
X174915580Y-31990000D01*
%TO.C,C1*%
X142990000Y-24134420D02*
X142990000Y-24415580D01*
X144010000Y-24134420D02*
X144010000Y-24415580D01*
%TO.C,C3*%
X158010000Y-24359420D02*
X158010000Y-24640580D01*
X156990000Y-24359420D02*
X156990000Y-24640580D01*
%TO.C,D9*%
X67651086Y-66150644D02*
X65031497Y-65688740D01*
X67651086Y-66150644D02*
X67946287Y-64476471D01*
X67946287Y-64476471D02*
X65326699Y-64014567D01*
%TO.C,C7*%
X154510000Y-24359420D02*
X154510000Y-24640580D01*
X153490000Y-24359420D02*
X153490000Y-24640580D01*
%TO.C,C17*%
X242634420Y-31490000D02*
X242915580Y-31490000D01*
X242634420Y-32510000D02*
X242915580Y-32510000D01*
%TO.C,R1*%
X106227064Y-23765000D02*
X105772936Y-23765000D01*
X106227064Y-25235000D02*
X105772936Y-25235000D01*
%TO.C,D2*%
X182877731Y-92225425D02*
X180258143Y-92687329D01*
X183172933Y-93899598D02*
X180553345Y-94361502D01*
X183172933Y-93899598D02*
X182877731Y-92225425D01*
%TO.C,C8*%
X199859420Y-30990000D02*
X200140580Y-30990000D01*
X199859420Y-32010000D02*
X200140580Y-32010000D01*
%TO.C,C5*%
X167365580Y-36510000D02*
X167084420Y-36510000D01*
X167365580Y-35490000D02*
X167084420Y-35490000D01*
%TO.C,R7*%
X181922936Y-25765000D02*
X182377064Y-25765000D01*
X181922936Y-27235000D02*
X182377064Y-27235000D01*
%TO.C,C15*%
X166415580Y-43990000D02*
X166134420Y-43990000D01*
X166415580Y-45010000D02*
X166134420Y-45010000D01*
%TO.C,C12*%
X175084420Y-21990000D02*
X175365580Y-21990000D01*
X175084420Y-23010000D02*
X175365580Y-23010000D01*
%TO.C,D10*%
X155620000Y-121650000D02*
X152960000Y-121650000D01*
X155620000Y-123350000D02*
X152960000Y-123350000D01*
X155620000Y-123350000D02*
X155620000Y-121650000D01*
%TO.C,D13*%
X85012034Y-85458673D02*
X82392445Y-84996769D01*
X85012034Y-85458673D02*
X85307235Y-83784500D01*
X85307235Y-83784500D02*
X82687647Y-83322596D01*
%TO.C,R6*%
X182227064Y-22765000D02*
X181772936Y-22765000D01*
X182227064Y-24235000D02*
X181772936Y-24235000D01*
%TO.C,U3*%
X147540000Y-25040000D02*
X147540000Y-24150000D01*
X147540000Y-25040000D02*
X149390000Y-25040000D01*
X147555000Y-21920000D02*
X149405000Y-21920000D01*
X147555000Y-22810000D02*
X147555000Y-21920000D01*
X150020000Y-25380000D02*
X149540000Y-25380000D01*
X149780000Y-25050000D01*
X150020000Y-25380000D01*
G36*
X150020000Y-25380000D02*
G01*
X149540000Y-25380000D01*
X149780000Y-25050000D01*
X150020000Y-25380000D01*
G37*
%TO.C,D8*%
X88534238Y-65771200D02*
X85914649Y-65309296D01*
X88534238Y-65771200D02*
X88829439Y-64097027D01*
X88829439Y-64097027D02*
X86209851Y-63635123D01*
%TO.C,D11*%
X127185119Y-93910352D02*
X124565530Y-93448448D01*
X127185119Y-93910352D02*
X127480320Y-92236179D01*
X127480320Y-92236179D02*
X124860732Y-91774275D01*
%TO.C,C10*%
X174865580Y-43010000D02*
X174584420Y-43010000D01*
X174865580Y-41990000D02*
X174584420Y-41990000D01*
%TO.C,D14*%
X64128883Y-85838116D02*
X61509294Y-85376212D01*
X64128883Y-85838116D02*
X64424084Y-84163943D01*
X64424084Y-84163943D02*
X61804496Y-83702039D01*
%TO.C,J1*%
X118095000Y-14625000D02*
X118095000Y-13725000D01*
X118095000Y-11025000D02*
X118095000Y-8295000D01*
X118095000Y-8295000D02*
X108905000Y-8295000D01*
X117975000Y-17705000D02*
X109025000Y-17705000D01*
X108905000Y-14625000D02*
X108905000Y-13725000D01*
X108905000Y-11025000D02*
X108905000Y-8295000D01*
%TD*%
M02*
