M48
; DRILL file KiCad 10.0.0 date 2026-04-08T14:12:02
; FORMAT={-:-/ absolute / metric / decimal}
; #@! TF.CreationDate,2026-04-08T14:12:02+02:00
; #@! TF.GenerationSoftware,Kicad,Pcbnew,10.0.0
; #@! TF.FileFunction,NonPlated,1,2,NPTH
FMAT,2
METRIC
; #@! TA.AperFunction,NonPlated,NPTH,ComponentDrill
T1C1.750
; #@! TA.AperFunction,NonPlated,NPTH,ComponentDrill
T2C3.000
; #@! TA.AperFunction,NonPlated,NPTH,ComponentDrill
T3C3.988
%
G90
G05
T1
X58.47Y-79.408
X61.942Y-59.712
X68.475Y-81.172
X71.948Y-61.476
X79.353Y-79.028
X82.826Y-59.332
X89.358Y-80.793
X92.831Y-61.096
X101.113Y-81.85
X104.665Y-62.168
X111.119Y-83.614
X114.671Y-63.932
X121.551Y-87.566
X125.078Y-67.798
X131.557Y-89.33
X135.083Y-69.562
X148.92Y-118.08
X159.08Y-118.08
X175.577Y-89.806
X185.582Y-88.042
X191.513Y-67.196
X194.997Y-86.382
X201.518Y-65.431
X205.003Y-84.618
X214.142Y-83.006
X224.147Y-81.242
T2
X239.44Y-41.2
X239.44Y-70.9
X270.94Y-41.2
X270.94Y-70.9
T3
X63.472Y-80.29
X66.945Y-60.594
X84.356Y-79.91
X87.828Y-60.214
X106.116Y-82.732
X109.668Y-63.05
X126.554Y-88.448
X130.08Y-68.68
X154.0Y-118.08
X180.58Y-88.924
X196.515Y-66.314
X200.0Y-85.5
X219.145Y-82.124
M30
