M48
; DRILL file KiCad 10.0.0 date 2026-04-08T14:12:02
; FORMAT={-:-/ absolute / metric / decimal}
; #@! TF.CreationDate,2026-04-08T14:12:02+02:00
; #@! TF.GenerationSoftware,Kicad,Pcbnew,10.0.0
; #@! TF.FileFunction,Plated,1,2,PTH
FMAT,2
METRIC
; #@! TA.AperFunction,Plated,PTH,ViaDrill
T1C0.300
; #@! TA.AperFunction,Plated,PTH,ComponentDrill
T2C0.400
; #@! TA.AperFunction,Plated,PTH,ComponentDrill
T3C0.600
; #@! TA.AperFunction,Plated,PTH,ComponentDrill
T4C1.000
; #@! TA.AperFunction,Plated,PTH,ComponentDrill
T5C1.143
; #@! TA.AperFunction,Plated,PTH,ComponentDrill
T6C3.000
%
G90
G05
T1
X19.92Y-32.08
X27.0Y-45.5
X28.5Y-32.0
X30.5Y-21.5
X31.0Y-45.5
X74.5Y-69.0
X74.5Y-72.0
X95.0Y-72.0
X95.518Y-68.5
X106.0Y-17.5
X109.0Y-21.0
X110.5Y-24.5
X112.5Y-20.0
X114.0Y-22.5
X115.0Y-21.5
X115.25Y-19.75
X117.357Y-68.5
X117.5Y-72.0
X121.0Y-19.5
X135.0Y-17.5
X138.0Y-17.5
X140.5Y-25.0
X143.5Y-75.0
X143.5Y-80.0
X148.5Y-26.5
X151.5Y-26.14
X152.0Y-28.5
X153.5Y-27.0
X154.5Y-35.0
X159.5Y-35.0
X159.5Y-36.5
X160.0Y-26.0
X162.0Y-27.0
X162.5Y-15.0
X163.0Y-24.0
X163.5Y-31.0
X164.0Y-23.0
X164.0Y-32.0
X164.5Y-34.0
X165.5Y-33.0
X165.5Y-36.0
X165.5Y-38.0
X167.0Y-76.0
X167.0Y-79.5
X167.365Y-18.337
X167.5Y-26.0
X169.0Y-34.0
X169.0Y-38.087
X169.03Y-28.155
X169.5Y-25.5
X170.0Y-20.5
X170.0Y-34.0
X170.0Y-36.0
X170.0Y-42.0
X170.23Y-32.826
X172.0Y-36.0
X172.0Y-40.0
X172.0Y-44.0
X174.0Y-32.5
X174.5Y-15.5
X174.5Y-26.5
X174.5Y-35.0
X175.5Y-12.798
X175.55Y-33.95
X176.0Y-22.5
X176.0Y-35.5
X176.5Y-31.5
X176.698Y-12.198
X176.75Y-38.75
X177.438Y-26.562
X177.5Y-31.5
X178.0Y-37.5
X179.0Y-38.0
X179.5Y-15.0
X179.5Y-25.0
X179.5Y-32.5
X182.0Y-35.0
X183.0Y-28.0
X183.0Y-37.0
X184.0Y-75.5
X186.0Y-77.5
X187.46Y-115.54
X188.0Y-24.0
X193.0Y-115.5
X196.0Y-32.0
X198.5Y-34.5
X199.5Y-18.0
X201.0Y-17.0
X203.5Y-18.0
X205.0Y-30.5
X207.0Y-65.5
X207.0Y-70.0
X207.5Y-27.5
X211.0Y-24.0
X230.5Y-78.5
X236.0Y-78.5
X238.5Y-35.0
X240.0Y-32.0
X246.0Y-32.12
X248.5Y-32.5
X249.5Y-35.0
T2
X110.525Y-15.675
X110.525Y-17.025
X111.375Y-15.675
X111.375Y-17.025
X112.225Y-15.675
X112.225Y-17.025
X113.075Y-15.675
X113.075Y-17.025
X113.925Y-15.675
X113.925Y-17.025
X114.775Y-15.675
X114.775Y-17.025
X115.625Y-15.675
X115.625Y-17.025
X116.475Y-15.675
X116.475Y-17.025
T4
X251.38Y-40.5
X253.92Y-40.5
X256.46Y-40.5
X259.0Y-40.5
T5
X19.92Y-37.88
X19.92Y-45.5
X19.92Y-56.5
X19.92Y-64.12
X22.46Y-45.5
X22.46Y-64.12
X25.0Y-37.88
X25.0Y-45.5
X25.0Y-56.5
X25.0Y-64.12
X243.42Y-21.5
X243.42Y-29.12
X245.96Y-29.12
X248.5Y-21.5
X248.5Y-29.12
X262.42Y-21.5
X262.42Y-29.12
X264.96Y-29.12
X267.5Y-21.5
X267.5Y-29.12
T6
X61.853Y-74.846
X65.326Y-55.15
X67.666Y-78.45
X71.139Y-58.754
X82.736Y-74.466
X86.209Y-54.77
X88.549Y-78.071
X92.022Y-58.374
X104.497Y-77.288
X108.049Y-57.606
X110.309Y-80.892
X113.861Y-61.21
X124.935Y-83.004
X128.461Y-63.236
X130.747Y-86.608
X134.274Y-66.84
X151.46Y-113.0
X157.81Y-115.54
X177.196Y-84.363
X183.891Y-85.761
X193.132Y-61.752
X196.616Y-80.938
X199.826Y-63.151
X203.311Y-82.337
X215.761Y-77.563
X222.456Y-78.961
T3
G00X109.175Y-13.065
M15
G01X109.175Y-12.265
M16
G05
G00X109.175Y-16.795
M15
G01X109.175Y-15.295
M16
G05
G00X117.825Y-13.065
M15
G01X117.825Y-12.265
M16
G05
G00X117.825Y-16.795
M15
G01X117.825Y-15.295
M16
G05
M30
